<?xml version="1.0" standalone="no"?>
<!DOCTYPE svg PUBLIC "-//W3C//DTD SVG 1.1//EN" "http://www.w3.org/Graphics/SVG/1.1/DTD/svg11.dtd" >
<svg>
<metadata>
Created by FontForge 20090622 at Mon Sep 12 06:13:41 2016
 By deploy user
Copyright 2004, SUDTIPOS. Expanded and digitized from the Bluemlein Script collection by Alejandro Paul. All rights reserved.
</metadata>
<defs>
<font id="DrSugiyama" horiz-adv-x="530" >
  <font-face 
    font-family="Dr Sugiyama"
    font-weight="400"
    font-stretch="normal"
    units-per-em="1000"
    panose-1="2 0 6 3 3 0 0 2 0 4"
    ascent="800"
    descent="-200"
    x-height="212"
    cap-height="852"
    bbox="-171 -450 1036 1009"
    underline-thickness="50"
    underline-position="-50"
    unicode-range="U+0020-U+FB02"
  />
<missing-glyph horiz-adv-x="234" 
 />
    <glyph glyph-name=".notdef" horiz-adv-x="234" 
 />
    <glyph glyph-name="eth" unicode="&#xf0;" horiz-adv-x="302" 
d="M333 403q0 -6 -3 -19.5t-9 -14.5q-8 -1 -23 -4t-35 -8q1 -10 1 -19.5v-19.5q0 -63 -11.5 -126t-35 -113.5t-59.5 -82t-86 -31.5q-21 0 -34.5 8.5t-22 22t-12 30.5t-3.5 35q0 30 19 60.5t44.5 55t51.5 40t41 15.5q9 0 12 -11q0 -8 -10.5 -15t-15.5 -10
q-26 -16 -32.5 -32.5t-6.5 -29.5q0 -22 7 -35t16 -19.5t17.5 -8t11.5 -1.5q21 0 36 19.5t25 51t14.5 72.5t4.5 84q0 13 -0.5 25.5t-1.5 25.5q-31 -10 -60 -22.5t-45 -26.5q-1 -1 -4 -1t-3 6q0 4 1.5 10.5l3 13t3.5 11.5t3 6q8 7 26 16t42 18q6 2 13.5 5t16.5 5
q-3 32 -9 59.5t-13.5 47.5t-17.5 32t-21 12q-13 -1 -13 -15t8.5 -30.5t8.5 -21.5q0 -2 -2 -5t-5 -3q-14 0 -27 7t-22.5 18t-15.5 24.5t-6 25.5q0 17 12.5 29t42.5 12q22 0 40 -14t31.5 -39t23 -58.5t14.5 -71.5q18 5 35.5 8.5t31.5 3.5q2 0 4.5 -1t2.5 -6z" />
    <glyph glyph-name="Lslash" unicode="&#x141;" horiz-adv-x="641" 
d="M640 49q0 -14 -20 -33t-48.5 -36t-59.5 -29t-54 -12q-34 0 -74 18.5t-80 41.5t-76.5 41.5t-64.5 18.5q-16 0 -33 -10t-32 -24t-27 -28.5t-18 -23.5q-11 -16 -20 -16q-8 0 -16 7t-8 15q0 3 0.5 6t1.5 7q5 20 7 46t2 55q0 38 -1.5 66t-4 54l-5.5 55.5t-5 71.5
q-30 -9 -56.5 -19.5t-42.5 -21.5q-1 -1 -5 -1t-4 6q0 4 1.5 10.5t4 13l4.5 11.5t4 6q10 7 32.5 16t51.5 18q6 2 8 3q-1 24 -1 52v63q0 61 23.5 113.5t60 91t80 60.5t83.5 22q24 0 37.5 -14t13.5 -37q0 -11 -6.5 -29t-17 -35t-22.5 -29.5t-23 -12.5q-4 0 -12.5 6.5t-8.5 12.5
q0 5 5 8t5 9q0 5 -1 11.5t-5 12t-11 9.5t-19 4q-21 0 -50 -16t-53 -49q-14 -19 -22 -43.5t-12.5 -49t-6 -46.5t-1.5 -36q0 -17 0.5 -34t1.5 -34q28 7 57.5 12.5t51.5 5.5q2 0 5.5 -1t3.5 -6q0 -6 -4 -19.5t-12 -14.5q-12 -1 -40 -6t-61 -13q4 -80 9 -157t5 -138q0 -19 5 -19
q2 0 5 3.5t5 5.5q5 6 24.5 26t46.5 42t56.5 39.5t54.5 17.5q36 0 72.5 -20.5t74 -45t75.5 -45t76 -20.5q20 0 30 5.5t16 12.5t10 12.5t12 5.5q6 0 14 -9.5t8 -16.5z" />
    <glyph glyph-name="lslash" unicode="&#x142;" horiz-adv-x="256" 
d="M297 82q0 -10 -17.5 -29t-43.5 -37.5t-55.5 -32t-52.5 -13.5q-41 0 -66.5 19t-40 48t-20.5 64t-8 66l-31.5 -13.5t-24.5 -13.5q-1 -1 -5 -1t-4 6q0 4 1.5 10.5t4 13l4.5 11.5t4 6q7 5 20 10.5l30 12.5v8q0 45 5 92.5t14 93.5t21.5 87t27.5 72t32.5 49.5t36.5 19.5
q6 0 12 -2t11.5 -8t9 -18t3.5 -34q0 -107 -17 -188t-50 -142q23 5 44.5 8.5t38.5 3.5q2 0 5.5 -1t3.5 -6q0 -6 -4 -19.5t-12 -14.5q-13 -1 -42 -6.5t-63 -13.5q8 -25 19.5 -47.5t27 -39t36.5 -26t47 -9.5q17 0 34 7l32 13q4 2 7.5 3t8.5 1q6 0 11 -2.5t5 -7.5zM128 501
q0 26 -7.5 39.5t-18.5 13.5q-16 0 -27 -22t-17.5 -52t-9.5 -60.5t-3 -47.5q0 -31 2.5 -68t10.5 -75q2 1 5 1q9 15 20.5 38.5t21 57t16.5 77t7 98.5z" />
    <glyph glyph-name="Scaron" unicode="&#x160;" horiz-adv-x="648" 
d="M549 877q0 -11 -29 -21q-27 -10 -40 -23.5t-21.5 -26.5t-16.5 -22t-25 -9t-25 9t-16.5 22t-21.5 26.5t-40 23.5q-29 10 -29 21q0 8 13 13t36 5q12 0 33 -10.5t50 -35.5q29 25 50 35.5t33 10.5q23 0 36 -5t13 -13zM691 94q0 -9 -13 -16q-28 -27 -85.5 -54.5t-128.5 -50
t-147 -36.5t-142 -14q-37 0 -69.5 5.5t-55.5 17.5t-36.5 31.5t-13.5 47.5q0 9 10 21t23.5 24.5t27 23t21.5 14.5q4 2 7 2q9 0 34 -15.5t61 -34.5t81.5 -34.5t94.5 -15.5q35 0 59.5 12t40 30t22.5 39t7 39q0 33 -24.5 58.5t-61.5 47.5t-79.5 43t-79.5 45.5t-61.5 54.5
t-24.5 70q0 38 22 76.5t58.5 74.5t83 67.5t94.5 54.5t94 36.5t82 13.5q12 0 27.5 -1.5t29.5 -7.5t23.5 -18t9.5 -33q0 -20 -10 -38t-24 -31.5t-29 -21.5t-24 -8q-7 0 -11.5 5t-4.5 10q0 7 5 13t5 17q0 13 -7.5 21.5t-19 13.5t-24 7t-21.5 2q-34 0 -74.5 -12.5t-76.5 -35
t-63 -54t-35 -68.5q5 -39 31.5 -68t63.5 -53.5t78.5 -46.5t77 -47t58.5 -55t23 -71q0 -27 -17.5 -53.5t-38 -48t-38 -36.5t-17.5 -19q0 -1 3 -1q26 0 57.5 12t59 26t45 25.5t15.5 10.5q7 4 10 4q4 0 8 -6t4 -11z" />
    <glyph glyph-name="scaron" unicode="&#x161;" horiz-adv-x="317" 
d="M291 392q0 -11 -29 -21q-27 -10 -40 -23.5t-21.5 -26.5t-16.5 -22t-25 -9t-25 9t-16.5 22t-21.5 26.5t-40 23.5q-29 10 -29 21q0 8 13 13t36 5q12 0 33 -10.5t50 -35.5q29 25 50 35.5t33 10.5q23 0 36 -5t13 -13zM362 104q0 -5 -1 -8q-14 -33 -41.5 -59t-60.5 -44
t-67 -27.5t-62 -9.5q-42 0 -69.5 20t-27.5 64q0 6 8.5 16.5t20 20.5t22 18t13.5 10q8 6 12 6q5 0 10 -7q3 -5 9.5 -14.5t15.5 -19.5t20.5 -17t25.5 -7q8 0 11 5t3 12q0 24 -10 43t-23.5 32.5t-27.5 20.5t-22 7q-5 0 -10 -6l-8.5 -8.5l-11 -11.5t-10.5 -10.5t-7 -6.5t-5 -5.5
t-8 -3.5q-3 0 -7 2q-8 4 -8 11l34 41l37 43t33.5 33.5t22.5 13.5q13 0 30.5 -10t33 -26.5t26 -37t10.5 -40.5q0 -30 -5.5 -50.5t-5.5 -24.5q0 -5 2 -5q12 0 24.5 7.5t23.5 16.5l24 23q7 7 14 7q12 0 12 -14z" />
    <glyph glyph-name="Yacute" unicode="&#xdd;" 
d="M455 851q0 -21 -13.5 -36t-33.5 -25.5t-44 -16.5t-45 -9.5t-36 -4.5t-18 -1q-15 0 -15 12q0 14 26 23q47 16 65.5 33t26.5 30.5t16 22.5t34 9q20 0 28.5 -13t8.5 -24zM671 735q0 -31 -15 -75.5t-42 -94t-64.5 -101t-82.5 -96.5q-11 -66 -16.5 -133.5t-5.5 -127.5v-39
t1 -36.5t2 -29t2 -18.5q2 -9 4 -12t4 -3t5 2t7 2q5 -1 10 -5t6 -12q-1 -15 -6 -38.5t-15 -46t-24.5 -38.5t-33.5 -16q-9 0 -15 9.5t-9 25t-4.5 35.5t-1.5 41q0 101 9 199.5t26 189.5q-55 -46 -115 -74.5t-121 -28.5q-33 0 -64 16t-56 45t-40 69t-15 89q0 44 9.5 86.5
t21.5 78t24.5 61.5l18.5 38q2 4 5 8q5 7 14 7q6 0 11 -5t5 -10t-3 -11q-10 -27 -14 -52.5t-4 -48.5q0 -41 13.5 -87t40.5 -84.5t66.5 -64t91.5 -25.5q32 0 63 12.5t59 35.5q19 87 43 160.5t51.5 127.5t57.5 84t60 30q36 0 36 -39zM598 681q0 11 -8 11q-16 0 -32 -21.5
t-30.5 -58t-27 -85.5t-23.5 -105q27 31 49.5 66.5t38 70.5t24.5 67t9 55z" />
    <glyph glyph-name="yacute" unicode="&#xfd;" horiz-adv-x="336" 
d="M270 373q0 -21 -13.5 -36t-33.5 -25.5t-44 -16.5t-45 -9.5t-36 -4.5t-18 -1q-15 0 -15 12q0 14 26 23q47 16 65.5 33t26.5 30.5t16 22.5t34 9q20 0 28.5 -13t8.5 -24zM391 112q0 -7 -9 -15q-17 -14 -34.5 -32l-36.5 -38q-9 -9 -17 -18t-16 -17q3 -83 3 -156
q0 -54 -3 -100t-12 -79t-24.5 -51.5t-41.5 -18.5q-20 0 -36.5 11.5t-28 29.5t-17.5 40t-6 43q0 49 11.5 89t31 74t45 63.5t52.5 56.5q-1 27 -1.5 47t-0.5 28q0 3 -0.5 7t-4.5 4q-6 0 -13 -10l-38 -39.5t-33 -29.5t-32 -18.5t-36 -6.5q-41 0 -67 28t-26 85q0 27 6 52.5t15 45
t19.5 31.5t18.5 12q12 0 12 -11q0 -5 -2 -17.5t-2 -22.5q0 -21 7.5 -40t21 -33t31 -22t38.5 -8q22 1 37.5 9t26.5 18q12 11 21 26q1 28 6 46.5t12 29.5t14 15.5t11 4.5q11 0 12.5 -11t1.5 -21q0 -5 -4.5 -14l-10.5 -20q-7 -12 -16 -26v-57.5t1 -56.5l45 44t41 46
q13 10 21 10q7 0 7 -7zM252 -40q-31 -42 -47 -80t-16 -73q0 -15 2 -33.5t6.5 -35t12 -27.5t19.5 -11q9 0 13.5 25t6.5 63.5t2.5 84.5t0.5 87z" />
    <glyph glyph-name="Thorn" unicode="&#xde;" horiz-adv-x="484" 
d="M626 541q0 -60 -13 -110.5t-32.5 -90.5t-43 -70.5t-45 -52t-38 -33.5t-22.5 -15t-13 -3q-8 0 -12.5 6t-4.5 15q0 11 15 18q38 27 61.5 55t36.5 55.5t17 53.5t4 49q0 30 -8 69t-27.5 76t-53.5 66.5t-86 39.5l2.5 -60t3.5 -79l4 -84.5t3.5 -77.5t3 -59t1.5 -28
q1 -9 3 -28.5t5 -44.5t6 -53.5l6 -55.5t4.5 -49.5t1.5 -36.5q0 -9 -3 -22t-10.5 -24t-18.5 -19t-28 -8q-37 0 -76.5 14.5t-77.5 41t-72 63t-60 80t-41 92.5t-15 100q0 82 19.5 152.5t58.5 125.5t97.5 92t135.5 51v74q0 18 8.5 33t28.5 15q5 0 5.5 -6.5t0.5 -20.5v-89
q26 3 54 3q60 0 101 -23.5t66.5 -58t36.5 -72t11 -66.5zM357 103q-1 24 -6.5 82t-11.5 136l-12.5 170t-9.5 183h-3q-63 0 -111 -20t-80.5 -56t-49 -85.5t-16.5 -108.5q0 -69 27 -129t68.5 -104t92 -69.5t96.5 -25.5q8 0 11.5 9.5t4.5 17.5z" />
    <glyph glyph-name="thorn" unicode="&#xfe;" horiz-adv-x="316" 
d="M364 120q0 -13 -26 -40t-66 -56t-88.5 -54.5t-93.5 -35.5q-1 -19 -1.5 -40.5t-0.5 -38.5q0 -22 1 -35t2.5 -22.5t2.5 -17t1 -18.5q0 -12 -5 -16t-11 -7.5t-12 -3.5q-13 0 -14 20q-1 11 -1 34.5v50.5v89q-11 0 -21.5 6.5t-18.5 17t-13 23t-5 24.5q0 9 4.5 22t13 25
t20.5 21t27 9h3v9q0 2 1 17t3 37t3.5 48t3.5 49t3 40t1 21v11q0 6 -3 6t-8 -6q-10 -12 -21 -12q-10 0 -10 8q0 6 7 13q11 13 19 31.5t14.5 35t13 28t13.5 11.5q12 0 17.5 -10t5.5 -20q0 -7 -4 -37l-9 -67t-9 -73.5t-4 -56.5q0 -5 1.5 -8.5t3.5 -3.5q3 0 13 13.5t24 29.5
t31 29.5t34 13.5q32 0 53 -20t21 -65q0 -40 -10 -64.5t-23 -43.5q20 14 38.5 29l33.5 28q18 15 33 29q12 0 12 -7zM206 52q0 19 -6 34t-15.5 26t-21 17t-21.5 6q-9 0 -15.5 -9t-11.5 -24t-8.5 -33.5t-5.5 -36.5q11 -13 25 -22t36 -9q16 0 36 10q8 24 8 41z" />
    <glyph glyph-name="Zcaron" unicode="&#x17d;" horiz-adv-x="765" 
d="M523 876q0 -11 -29 -21q-27 -10 -40 -23.5t-21.5 -26.5t-16.5 -22t-25 -9t-25 9t-16.5 22t-21.5 26.5t-40 23.5q-29 10 -29 21q0 8 13 13t36 5q12 0 33 -10.5t50 -35.5q29 25 50 35.5t33 10.5q23 0 36 -5t13 -13zM764 27q0 -23 -23 -45t-54.5 -39t-64 -27t-50.5 -10
q-30 0 -62.5 10t-64 24.5t-61.5 32l-56 32t-47 24.5t-34 10q-22 0 -47 -19.5t-48.5 -42.5l-44 -42.5t-34.5 -19.5q-10 0 -19 9.5t-9 20.5q0 5 15.5 23.5t42 42.5t62 49t75.5 43l22.5 47.5l28.5 62l30.5 67.5l29 62.5l22.5 49t12 26.5l33 69.5t41 82t46 79t46 59.5q1 1 0 2
t-4 1q-2 0 -4 -1l-61 -26.5l-83.5 -36l-95.5 -39.5t-96.5 -36t-85.5 -26.5t-64 -10.5q-27 0 -42 10.5t-15 31.5q0 14 16 31.5t35.5 33.5t35.5 26.5l16 10.5q3 2 8 2t11.5 -5t6.5 -11q0 -5 -4.5 -10t-10.5 -9.5l-10.5 -8t-4.5 -6.5q0 -4 8 -4t41.5 9l82 23l106 32l111.5 35.5
l99.5 33t70.5 25.5q5 2 15 9t18 7t12.5 -11t4.5 -23q0 -9 -2.5 -12t-8.5 -5q-21 -9 -44.5 -33t-45.5 -54.5t-41 -62.5t-32 -56q-10 -18 -24.5 -48l-32 -67l-36 -78.5l-37 -82l-34.5 -77.5l-29 -66q30 8 57 8q42 -5 81.5 -24.5t77 -41t72 -38.5t64.5 -17q25 0 40.5 7t25.5 16
t15.5 16t9.5 7q5 0 8.5 -4.5t6 -10t4 -10.5t1.5 -6z" />
    <glyph glyph-name="zcaron" unicode="&#x17e;" horiz-adv-x="284" 
d="M274 392q0 -11 -29 -21q-27 -10 -40 -23.5t-21.5 -26.5t-16.5 -22t-25 -9t-25 9t-16.5 22t-21.5 26.5t-40 23.5q-29 10 -29 21q0 8 13 13t36 5q12 0 33 -10.5t50 -35.5q29 25 50 35.5t33 10.5q23 0 36 -5t13 -13zM316 60q-2 -5 -17.5 -15l-31.5 -21l-33 -24q6 -21 6 -42
q0 -20 -4.5 -54t-14 -73.5t-24 -80.5t-34.5 -74t-45 -54t-56 -21q-29 0 -45 23.5t-16 50.5q0 38 12.5 76t33 74t47 69.5t55.5 62.5q-13 25 -31 39t-40 14q-13 0 -20.5 -3t-12.5 -7l-9 -7t-11 -3q-8 0 -8 10q0 9 6 15l22.5 22t29 30.5t25 34t10.5 32.5q0 13 -8.5 24t-22.5 11
q-7 0 -19.5 -5t-18.5 -5q-11 0 -11 9q0 14 15 28.5t35.5 26.5t43 19.5t37.5 7.5q20 0 32 -12.5t12 -31.5q0 -12 -5.5 -26t-14 -28t-18.5 -27t-19 -23q-2 -2 -2 -5q0 -4 4.5 -6t9.5 -2q23 -5 39.5 -23t26.5 -41l35.5 25.5t30.5 19.5q8 4 11 4q6 0 9.5 -4.5t3.5 -9.5z
M176 -162q0 27 -4 51t-12 45q-33 -35 -52.5 -73.5t-19.5 -83.5q0 -36 13 -56.5t27 -20.5q13 0 22 16t15 38t8.5 45.5t2.5 38.5z" />
    <glyph glyph-name="minus" unicode="&#x2212;" horiz-adv-x="292" 
d="M272 120q0 -7 -11.5 -10.5t-39.5 -3.5h-25t-43 -1t-54 -2t-58 -4q-3 0 -10 9t-7 26q0 14 15 18t28 4q1 0 6.5 -0.5t21.5 -1.5t44.5 -1.5t74.5 -0.5q18 0 38 -7.5t20 -24.5z" />
    <glyph glyph-name="multiply" unicode="&#xd7;" horiz-adv-x="267" 
d="M257 186q0 -5 -2 -7l-36 -31l-34 -31l44 -45q12 -12 12 -20q0 -10 -13 -23q-1 -3 -6 -3q-3 0 -7.5 2t-12 8.5t-19.5 18l-31 29.5l-29.5 -32.5l-29.5 -34.5q-2 -2 -7 -2q-3 0 -8.5 1.5t-11.5 4.5t-10.5 8t-4.5 12t3 12.5t10 13t20 19.5t32 32l-32 29l-34 30q-2 2 -2 7
q0 3 1.5 8.5t4.5 11.5t8 10.5t12 4.5q9 0 16.5 -4.5t15.5 -13t18 -21t26 -28.5l26 27.5l13.5 14t5.5 6t2 1.5q7 7 16 13.5t18 6.5q7 0 12 -5q8 -8 11 -16.5t3 -13.5z" />
    <glyph glyph-name="space" unicode=" " horiz-adv-x="234" 
 />
    <glyph glyph-name="exclam" unicode="!" horiz-adv-x="243" 
d="M203 558q0 -28 -8 -57.5t-18 -72.5t-18 -106t-8 -158q0 -8 -5.5 -12.5t-12.5 -4.5q-8 0 -14 4.5t-6 12.5q0 95 -8 158t-18 106t-18 72.5t-8 57.5q0 30 22.5 45t49.5 15q9 0 21.5 -2.5t23 -9.5t18 -18.5t7.5 -29.5zM193 24q0 -29 -18.5 -49.5t-45.5 -20.5t-46 20.5
t-19 49.5q0 30 19 50.5t46 20.5t45.5 -20.5t18.5 -50.5z" />
    <glyph glyph-name="quotedbl" unicode="&#x22;" horiz-adv-x="294" 
d="M229 534q0 -25 -3.5 -50t-7.5 -45t-8 -33.5t-6 -16.5q-2 -7 -8.5 -14.5t-14.5 -7.5q-11 0 -19 23q-8 45 -11 84.5t-3 61.5q0 6 1 17t5 21.5t11.5 18.5t20.5 8q15 0 24 -6t13 -16t5 -22t1 -23zM125 534q0 -25 -3.5 -50t-7.5 -45t-8 -33.5t-6 -16.5q-2 -7 -8.5 -14.5
t-14.5 -7.5q-11 0 -19 23q-8 45 -11 84.5t-3 61.5q0 6 1 17t5 21.5t11.5 18.5t20.5 8q15 0 24 -6t13 -16t5 -22t1 -23z" />
    <glyph glyph-name="numbersign" unicode="#" horiz-adv-x="286" 
d="M306 195q0 -11 -11 -22.5t-17 -13.5q-17 -1 -31.5 -1t-28.5 -1q-1 -7 -1.5 -13.5t-2.5 -13.5l50 5q18 0 25 -7t7 -15q0 -11 -7 -20.5t-12 -9.5q-20 -2 -37 -2t-33 -1l-8.5 -41t-12.5 -43q-4 -11 -14 -19.5t-24 -8.5q-5 0 -9.5 3t-4.5 14q0 7 1 11q7 23 12 43t9 39l-25 -2
q-3 -19 -7.5 -39t-12.5 -41q-4 -11 -14 -19.5t-24 -8.5q-4 0 -9 3t-5 14q0 7 1 11q7 21 11 40t8 35q-11 -1 -29 -3q-11 0 -15.5 7.5t-4.5 17.5t3 18.5t7 8.5h24.5t24.5 2q2 7 2.5 13.5t1.5 14.5q-10 -2 -20.5 -2.5t-22.5 -2.5q-11 0 -15.5 8t-4.5 17q0 10 3 18t7 8
q16 0 30 0.5t31 1.5q3 17 6.5 34t8.5 36q0 1 1 4.5t4.5 7t10 6.5t18.5 3q6 0 13 -4t7 -16q0 -3 -1.5 -9.5t-2.5 -9.5q-9 -24 -13 -48q6 1 12 1.5t11 0.5q3 16 6.5 31.5t8.5 32.5q0 1 1 4.5t4.5 7t10 6.5t18.5 3q6 0 13 -4t7 -16q0 -3 -1.5 -9.5t-2.5 -9.5q-4 -11 -7 -21
t-5 -21q14 2 22.5 2.5t13 1t6 0.5h2.5q19 0 26 -5t7 -12zM143 154l-4 -30q6 1 12.5 1.5t13.5 0.5q1 7 1.5 13.5t2.5 15.5z" />
    <glyph glyph-name="dollar" unicode="$" horiz-adv-x="281" 
d="M295 262q0 -12 -6.5 -22.5t-16.5 -18t-20.5 -12t-19.5 -4.5q-6 0 -11.5 4t-5.5 13q0 10 6 20q-4 4 -14 4q-8 0 -18 -3t-19 -9t-15 -15t-7 -21q5 -10 19 -21t29 -19q14 -7 26.5 -15t22 -17.5t15.5 -21.5t6 -28q0 -17 -10.5 -33t-27 -29t-37 -23.5t-41.5 -17.5v-33
q0 -18 -7 -24t-20 -6q-4 0 -6 9v46q-13 -3 -23 -3q-35 0 -58.5 12.5t-23.5 42.5q0 8 5 16.5t12.5 15t15.5 11t15 5.5q5 0 10.5 -5t16.5 -11.5t29 -11.5t49 -5q13 0 18.5 7.5t5.5 14.5q0 15 -18.5 25.5l-41 22.5t-41 27.5t-18.5 40.5q0 14 7.5 28.5t19.5 28t28 25.5t33 22v51
q0 18 7 24t20 6q4 0 6 -9v-55q31 13 53 13q7 0 16 -1t16.5 -5t13 -12.5t5.5 -23.5z" />
    <glyph glyph-name="percent" unicode="%" horiz-adv-x="395" 
d="M415 93q0 -18 -8 -37t-22 -35t-33.5 -26t-42.5 -10q-29 0 -42 17t-13 41q0 18 7 37.5t19 35.5t29 26.5t38 10.5q36 0 52 -17.5t16 -42.5zM338 355q0 -3 -2.5 -10.5t-6.5 -14.5q-2 -5 -9.5 -21.5t-17 -39.5l-20.5 -49l-20.5 -49l-17 -40.5t-9.5 -22.5q-3 -7 -12.5 -31
l-20 -50l-19 -47t-9.5 -24q-5 -8 -15 -15.5t-21 -7.5q-4 0 -13 3t-9 8q0 1 2 7q5 10 13.5 29l18.5 42.5l20.5 48.5l19.5 46.5l15.5 36.5t7.5 18q3 8 15 35.5l25 57.5l24 55.5t14 29.5q2 4 5 7q6 6 13 6q4 0 16.5 -2.5t12.5 -5.5zM199 223q0 -18 -8 -37t-22 -35t-33.5 -26
t-42.5 -10q-29 0 -42 17t-13 41q0 18 7 37.5t19 35.5t29 26.5t38 10.5q36 0 52 -17.5t16 -42.5zM374 70q0 15 -10.5 27.5t-33.5 12.5q-17 0 -24.5 -11.5t-7.5 -25.5q0 -15 9 -28t28 -13q20 0 29.5 12t9.5 26zM158 200q0 15 -10.5 27.5t-33.5 12.5q-17 0 -24.5 -11.5
t-7.5 -25.5q0 -15 9 -28t28 -13q20 0 29.5 12t9.5 26z" />
    <glyph glyph-name="ampersand" unicode="&#x26;" horiz-adv-x="348" 
d="M412 7q0 -15 -10.5 -30.5t-26.5 -27.5t-34.5 -20t-34.5 -8q-21 0 -34.5 9t-22 23.5t-11.5 33t-3 36.5v12t1 11q-17 -16 -39 -31.5t-46 -28t-49 -20t-49 -7.5q-31 0 -55 19t-24 54q0 18 7 35t17.5 32.5t23 29l23.5 24.5q6 6 16.5 17.5t10.5 14.5q0 12 -15 20.5t-32.5 17.5
t-32.5 21.5t-15 33.5q0 27 18.5 52.5t47.5 49t64 43t69 34t62.5 22.5t43.5 8q24 0 37.5 -13t13.5 -30q0 -15 -9 -27.5t-22 -21.5t-28 -14.5t-27 -5.5q-11 0 -14.5 1.5t-3.5 12.5q0 5 1.5 9.5t1.5 7.5t-4.5 4.5t-18.5 1.5q-18 0 -43 -8.5t-47.5 -21.5t-39 -27.5t-17.5 -25.5
q5 -14 20.5 -24.5t33 -21t31 -22.5t13.5 -30q0 -23 -14 -38.5t-30.5 -29t-30.5 -28.5t-14 -37q0 -17 15 -29.5t33 -12.5q41 0 70.5 20.5t49.5 42.5q2 44 11.5 78t23.5 57t29.5 35.5t29.5 12.5q15 0 25.5 -15.5t10.5 -49.5q0 -27 -19.5 -61.5t-57.5 -72.5q1 -17 3 -34.5
t8 -32t18 -24t32 -9.5q9 0 17 4.5t15 9.5q6 7 14 7q13 0 13 -17z" />
    <glyph glyph-name="quotesingle" unicode="'" horiz-adv-x="190" 
d="M125 534q0 -25 -3.5 -50t-7.5 -45t-8 -33.5t-6 -16.5q-2 -7 -8.5 -14.5t-14.5 -7.5q-11 0 -19 23q-8 45 -11 84.5t-3 61.5q0 6 1 17t5 21.5t11.5 18.5t20.5 8q15 0 24 -6t13 -16t5 -22t1 -23z" />
    <glyph glyph-name="parenleft" unicode="(" horiz-adv-x="329" 
d="M546 808q0 -18 -9.5 -32.5t-26.5 -14.5q-9 0 -13 6t-10 13.5t-16.5 13.5t-31.5 6q-48 0 -91.5 -26t-81 -71t-68.5 -104.5t-52.5 -126.5t-33.5 -136.5t-12 -134.5q0 -61 11.5 -115t35.5 -94t61.5 -63t90.5 -23q12 0 24.5 1.5t26.5 3.5q11 0 17 -7.5t6 -18.5
q0 -9 -5.5 -19.5t-18 -19.5t-32.5 -14.5t-49 -5.5q-59 0 -102 26.5t-70.5 73t-41 108.5t-13.5 132q0 75 14.5 155.5t42 157t67 145.5t90 120.5t111 82t129.5 30.5q27 0 39 -15.5t12 -33.5z" />
    <glyph glyph-name="parenright" unicode=")" horiz-adv-x="329" 
d="M365 403q0 -69 -10.5 -138.5t-30.5 -133t-49.5 -119t-68 -96t-86 -64t-102.5 -23.5q-50 0 -68.5 16t-18.5 33q0 14 9 25t22 11q13 -2 25 -3.5t24 -1.5q50 0 92 21t75.5 58t59 87t42.5 107t25.5 118.5t8.5 122.5q0 75 -13 143.5t-39 121.5t-65 84t-92 31q-22 0 -34 -6
t-19.5 -13.5t-13 -13.5t-14.5 -6q-12 0 -18 8.5t-6 21.5q0 11 4 22.5t12.5 21t20.5 16t28 6.5q78 0 134.5 -38t93 -101.5t54.5 -146t18 -171.5z" />
    <glyph glyph-name="asterisk" unicode="*" horiz-adv-x="317" 
d="M280 325q0 -18 -29 -28.5t-74 -18.5q31 -24 50 -43t19 -35q0 -9 -6.5 -12.5t-11.5 -3.5q-11 0 -22.5 11.5t-21.5 26.5t-16.5 29t-8.5 18q-1 -3 -8 -17t-16.5 -29.5t-21 -27.5t-23.5 -12q-5 0 -11 3.5t-6 13.5q0 15 18.5 34t49.5 42q-45 10 -74 19.5t-29 27.5q0 8 6.5 13
t14.5 5q11 0 25 -6.5t27 -14.5t23 -16l14 -11q-2 11 -6.5 30.5t-4.5 39.5q0 18 5.5 29.5t20.5 11.5q10 0 13.5 -11t3.5 -24q0 -15 -3.5 -34t-8.5 -42q2 2 12 10t23.5 17t28.5 16t27 7q8 0 14.5 -6t6.5 -12z" />
    <glyph glyph-name="plus" unicode="+" horiz-adv-x="292" 
d="M272 113q0 -7 -11.5 -10.5t-39.5 -3.5h-42q1 -21 2.5 -44t3.5 -46q0 -3 -9 -10t-26 -7q-14 0 -18 15t-4 28v2.5v7.5t0.5 18t1.5 34l-43.5 -2t-45.5 -3q-3 0 -10 9t-7 26q0 14 15 18t28 4l2 -0.5t8 -1l18.5 -1.5t34.5 -1q-1 24 -1.5 37.5t-0.5 20v8v2.5q0 13 4 28t18 15
q17 0 26 -7t9 -10q-2 -24 -3.5 -48t-2.5 -46h63q14 0 22 -6t8 -26z" />
    <glyph glyph-name="comma" unicode="," horiz-adv-x="223" 
d="M158 48q0 -34 -7.5 -62.5t-18 -49.5t-20.5 -34.5t-15 -19.5q-6 -7 -11 -7q-6 0 -10 9q0 5 4.5 12l10.5 16t10.5 21.5t4.5 28.5q0 18 -9.5 23t-21.5 8t-21.5 10t-9.5 29q0 12 4 23.5t12 21t21 15.5t31 6q4 0 11 -1t14 -6t13 -15t8 -28z" />
    <glyph glyph-name="hyphen" unicode="-" horiz-adv-x="329" 
d="M309 131q0 -8 -10 -17t-24.5 -17t-31.5 -13t-32 -5q-22 0 -36.5 4t-27 9t-24.5 9t-30 4h-12.5t-13.5 -2q-4 0 -8 1.5t-5 6.5q0 8 10 17t24.5 17t31.5 13.5t30 5.5q23 0 38 -4t27.5 -9.5t25 -9.5t30.5 -4h11.5t13.5 2q4 0 8 -1.5t5 -6.5z" />
    <glyph glyph-name="period" unicode="." horiz-adv-x="212" 
d="M165 37q0 -25 -15.5 -42t-38.5 -17t-38.5 17t-15.5 42t15.5 42t38.5 17t38.5 -17t15.5 -42z" />
    <glyph glyph-name="slash" unicode="/" horiz-adv-x="233" 
d="M369 723q0 -3 -3 -10.5l-6 -14.5l-42.5 -95l-57 -135l-62.5 -153l-61 -150l-51.5 -127l-33.5 -82q-5 -8 -15 -15.5t-21 -7.5q-4 0 -13 3t-9 8q0 1 2 7q21 43 47 103l54 128.5l58 142l59.5 144.5l57 135l50.5 114q2 4 5 7q6 6 13 6q4 0 16.5 -2.5t12.5 -5.5z" />
    <glyph glyph-name="zero" unicode="0" horiz-adv-x="304" 
d="M313 166q0 -34 -15 -71t-41.5 -67t-63.5 -49.5t-81 -19.5q-55 0 -80 32.5t-25 78.5q0 35 13 72t36.5 68t56 50.5t72.5 19.5q34 0 58 -9t39.5 -24.5t23 -36.5t7.5 -44zM240 123q0 30 -21.5 55.5t-66.5 25.5q-33 0 -49.5 -23t-16.5 -52q0 -15 4.5 -30t14 -27t24 -19
t33.5 -7q38 0 58 24t20 53z" />
    <glyph glyph-name="one" unicode="1" horiz-adv-x="213" 
d="M178 253q0 -22 -7.5 -58t-7.5 -87q0 -23 2.5 -47t8.5 -52q0 -23 -19.5 -38.5t-41.5 -15.5q-19 0 -33.5 15t-14.5 50q0 6 2 24.5t5 40t5 41.5t2 29q0 28 -9.5 41t-21 19t-21 10.5t-9.5 14.5q0 7 19 15t42 14.5t43 11t22 4.5q20 0 27 -8t7 -24z" />
    <glyph glyph-name="two" unicode="2" horiz-adv-x="269" 
d="M290 66q0 -11 -5.5 -25.5t-15 -27t-22.5 -22.5t-27 -12q-15 0 -26.5 4.5t-23 10.5t-23.5 10.5t-27 4.5q-16 0 -32.5 -5t-31.5 -11l-27.5 -11t-20.5 -5q-5 0 -7.5 3.5t-2.5 8.5t2.5 10t4.5 8l27 27.5t35 40.5t30 44.5t13 40.5q0 15 -10.5 28.5t-27.5 13.5q-8 0 -23 -6
t-22 -6q-13 0 -13 11q0 17 18 34.5t42.5 31.5t51.5 23t45 9q24 0 38.5 -15t14.5 -38q0 -14 -3.5 -32t-15.5 -39t-35.5 -45.5t-63.5 -51.5q13 0 31.5 -3.5t35.5 -7.5t30.5 -7.5t16.5 -3.5q8 0 17 3.5l17.5 7t15.5 7t12 3.5q8 0 8 -11z" />
    <glyph glyph-name="three" unicode="3" horiz-adv-x="314" 
d="M296 78q0 -22 -19.5 -42.5t-50 -36t-66.5 -25t-69 -9.5t-58 11t-33 36q0 20 11 31.5t25 16.5q16 6 36 8q18 0 22.5 -7t4.5 -17q1 -11 4.5 -17.5t17.5 -6.5t28.5 3.5t26.5 9t20 13.5t8 17q0 28 -11.5 39t-26 15.5t-26 7.5t-11.5 15q0 3 4.5 7.5t10.5 12t10.5 18t4.5 24.5
q0 5 -3 9q-6 8 -17 8q-16 0 -25 -7t-17 -16t-18 -16t-28 -7q-11 0 -17 6.5t-6 16.5q0 19 16 37.5t40.5 33t53.5 23.5t55 9q48 0 68.5 -11.5t20.5 -28.5q0 -13 -10 -28t-27 -30t-38 -30t-44 -28q0 -2 10 -2.5t24.5 -1.5t32 -3.5t32 -9t24.5 -18t10 -30.5z" />
    <glyph glyph-name="four" unicode="4" horiz-adv-x="291" 
d="M305 281q0 -7 -5 -19.5t-11 -32t-11 -47.5t-5 -65q0 -25 1.5 -41t3.5 -27.5t3.5 -18.5t1.5 -14q0 -12 -7 -23.5t-17 -19.5t-22 -13t-23 -5q-18 0 -27 13q0 1 -1 14.5t-1.5 33.5l-1 42t-0.5 40v23q0 15 -7 15q-3 0 -11.5 -8l-19.5 -17.5t-24.5 -17.5t-27.5 -8
q-19 0 -32 9.5t-21.5 23t-12 27t-3.5 22.5q0 39 13.5 63t31 38t33.5 19t21 5q12 0 16 -4t4 -12q0 -10 -4 -24t-4 -29q0 -41 13 -55t29 -14q3 39 15 69q11 26 32.5 47t61.5 21q19 0 19 -10z" />
    <glyph glyph-name="five" unicode="5" horiz-adv-x="277" 
d="M265 81q0 -34 -19.5 -58t-48.5 -39t-62.5 -22t-61.5 -7q-27 0 -44.5 5t-17.5 16q0 15 9.5 28t21.5 22.5t23 15t14 5.5q9 0 11.5 -3.5t2.5 -6.5q0 -17 6.5 -24.5t14.5 -7.5q11 0 22 12.5t11 34.5q0 16 -18 34t-40 37t-40 38.5t-18 38.5q0 31 15 48t40.5 25.5t58 10.5
t68.5 2q1 0 8 -1t15 -6t14.5 -15.5t6.5 -30.5q0 -23 -4.5 -31.5t-13.5 -8.5t-22 6.5t-29.5 14t-36 13.5t-42.5 6q-10 0 -14.5 -4t-4.5 -23q0 -8 13 -16.5t32.5 -17l42 -18t42 -20.5t32.5 -24t13 -29z" />
    <glyph glyph-name="six" unicode="6" horiz-adv-x="314" 
d="M309 70q0 -22 -14.5 -41.5t-37.5 -34t-51.5 -23t-57.5 -8.5q-24 0 -46.5 6.5t-39.5 21t-27.5 37t-10.5 55.5q0 32 16.5 68.5t44.5 67t66 51t80 20.5q3 0 12 -1t19 -5t17.5 -12t7.5 -23q0 -2 -2.5 -10.5t-9 -18.5t-19.5 -17.5t-34 -7.5q-4 0 -8 1t-4 6q0 7 2.5 9t2.5 13
q0 7 -3.5 13.5t-15.5 6.5q-21 0 -36.5 -9.5t-26.5 -25.5t-16.5 -36t-6.5 -41q26 17 50 24.5t45 7.5q24 0 43 -8t32.5 -21t21 -30t7.5 -35zM225 83q0 15 -16 28t-43 13q-24 0 -56 -15q3 -43 20 -60.5t37 -17.5q22 0 40 15.5t18 36.5z" />
    <glyph glyph-name="seven" unicode="7" horiz-adv-x="263" 
d="M307 279q0 -3 -13 -18.5t-28 -40t-28 -56t-13 -64.5q0 -25 6.5 -39.5t6.5 -31.5q0 -15 -7 -28t-17.5 -22t-23.5 -14t-25 -5q-16 0 -27.5 9.5t-11.5 31.5q0 14 4 39.5t10.5 55t15.5 59.5t18 52q-15 2 -27 3t-22 1q-21 0 -34.5 -3.5t-22.5 -7.5t-15.5 -7.5t-14.5 -3.5
t-12.5 8t-4.5 19q0 10 3 20.5t10 19.5t17 15t24 6q15 0 44.5 -3t62.5 -3q22 0 43.5 2t39.5 10q10 5 17.5 6t12.5 1q8 0 10 -3t2 -8z" />
    <glyph glyph-name="eight" unicode="8" horiz-adv-x="323" 
d="M309 237q0 -13 -8 -27.5t-20 -28t-25.5 -24.5t-24.5 -17q20 -6 37 -16q14 -8 25.5 -21t11.5 -33q0 -23 -16.5 -44t-42 -36.5t-56 -25t-59.5 -9.5q-16 0 -32 3t-29 10t-21 18t-8 27q0 26 11.5 41t25 24t25 14t11.5 9q0 6 -12 10t-26 10.5t-26 18.5t-12 34q0 27 18 48.5
t45 36.5t59.5 23t62.5 8q36 0 61 -12.5t25 -40.5zM200 198q0 18 -5 35t-21 17q-14 0 -30 -12t-16 -35q0 -14 10 -22t39 -23q11 2 17 9.5t6 30.5zM218 38q0 15 -11 23t-42 22q-13 0 -16.5 -8.5t-3.5 -24.5q0 -20 8 -38.5t24 -18.5q5 0 12 3t13.5 9t11 14.5t4.5 18.5z" />
    <glyph glyph-name="nine" unicode="9" horiz-adv-x="318" 
d="M315 179q0 -45 -22.5 -85t-55.5 -70t-70 -47.5t-66 -17.5q-22 0 -36 11.5t-14 36.5q0 2 2.5 10.5t9 18.5t19.5 17.5t34 7.5q9 0 11.5 -4t2.5 -11l-1 -19q-1 -15 11 -15q9 0 23.5 9t28 24.5t24 35.5t12.5 42q-26 -17 -50 -24t-45 -7q-56 0 -80.5 21t-24.5 50q0 22 12 45
t33.5 42t51.5 31t65 12q33 0 56.5 -9t39 -24.5t22.5 -36.5t7 -44zM228 147q-3 57 -21.5 82t-38.5 25q-22 0 -34.5 -20.5t-12.5 -43.5t12.5 -40.5t38.5 -17.5q12 0 26 3.5t30 11.5z" />
    <glyph glyph-name="colon" unicode=":" horiz-adv-x="212" 
d="M158 215q0 -25 -15.5 -42t-38.5 -17t-38.5 17t-15.5 42t15.5 42t38.5 17t38.5 -17t15.5 -42zM165 37q0 -25 -15.5 -42t-38.5 -17t-38.5 17t-15.5 42t15.5 42t38.5 17t38.5 -17t15.5 -42z" />
    <glyph glyph-name="semicolon" unicode=";" horiz-adv-x="223" 
d="M158 215q0 -25 -15.5 -42t-38.5 -17t-38.5 17t-15.5 42t15.5 42t38.5 17t38.5 -17t15.5 -42zM158 48q0 -34 -7.5 -62.5t-18 -49.5t-20.5 -34.5t-15 -19.5q-6 -7 -11 -7q-6 0 -10 9q0 5 4.5 12l10.5 16t10.5 21.5t4.5 28.5q0 18 -9.5 23t-21.5 8t-21.5 10t-9.5 29
q0 12 4 23.5t12 21t21 15.5t31 6q4 0 11 -1t14 -6t13 -15t8 -28z" />
    <glyph glyph-name="less" unicode="&#x3c;" horiz-adv-x="329" 
d="M310 2q0 -9 -6.5 -20t-18.5 -11q-7 0 -23 19.5t-43.5 43t-68.5 43t-98 19.5h-21q-5 0 -5 4q0 6 5.5 17t12.5 22.5t14.5 20.5t10.5 10q12 4 43 12.5t64.5 19t61.5 23.5t33 26q2 5 6.5 8t9.5 3q10 0 10 -14q0 -15 -7.5 -27t-20 -22.5t-28.5 -19t-33 -14.5q-40 -15 -90 -23
q22 -1 55 -14t63.5 -32.5t52 -44t21.5 -49.5z" />
    <glyph glyph-name="equal" unicode="=" horiz-adv-x="292" 
d="M272 163q0 -7 -11.5 -10.5t-39.5 -3.5h-25t-43 -1t-54 -2t-58 -4q-3 0 -10 9t-7 26q0 14 15 18t28 4q1 0 3.5 -0.5t14.5 -1.5t37.5 -1.5t71.5 -0.5q9 0 22.5 -1.5t25.5 -5t21 -9.5t9 -16zM291 73q0 -7 -11.5 -10.5t-39.5 -3.5h-25t-43 -1t-54 -2t-58 -4q-3 0 -10 9t-7 26
q0 14 15 18t28 4q1 0 3.5 -0.5t14.5 -1.5t37.5 -1.5t71.5 -0.5q9 0 22.5 -1t25.5 -4t21 -9.5t9 -17.5z" />
    <glyph glyph-name="greater" unicode="&#x3e;" horiz-adv-x="304" 
d="M310 121q0 -4 -5 -4h-21q-57 0 -98 -19.5t-68.5 -43t-43.5 -43t-23 -19.5q-12 0 -18.5 11t-6.5 20q0 25 21.5 49.5t52 44t63.5 32.5t55 14q-49 8 -89 23q-17 6 -33 14.5t-29 19t-20.5 22.5t-7.5 27q0 14 10 14q5 0 9.5 -3t6.5 -8q5 -13 33 -26t61.5 -23.5t64.5 -19
t43 -12.5q3 -1 10.5 -10t14.5 -20.5t12.5 -22.5t5.5 -17z" />
    <glyph glyph-name="question" unicode="?" horiz-adv-x="305" 
d="M300 470q0 -34 -13 -61.5t-33 -50.5t-42.5 -42l-42.5 -35.5t-33 -31t-13 -29.5q0 -17 10 -32t25 -23q8 -3 8 -7q0 -5 -7.5 -9t-14.5 -4q-2 0 -13 4.5t-23.5 14.5t-22.5 26t-10 39q0 27 16.5 57.5t36 61t36 59t16.5 51.5q0 15 -9.5 28t-24 22.5t-31.5 15t-32 5.5t-25 -6
t-10 -19q0 -5 7.5 -7.5t27.5 -2.5q6 0 11 -6t5 -23q0 -23 -14 -41.5t-37 -18.5q-26 0 -41.5 20t-15.5 46q0 23 14.5 41.5t38.5 31.5t54 19.5t60 6.5q27 0 53 -6t45.5 -18t31.5 -31t12 -45zM193 24q0 -29 -18.5 -49.5t-45.5 -20.5t-46 20.5t-19 49.5q0 30 19 50.5t46 20.5
t45.5 -20.5t18.5 -50.5z" />
    <glyph glyph-name="at" unicode="@" 
d="M529 177q0 -40 -14 -80.5t-39.5 -73.5t-61 -53.5t-78.5 -20.5q-19 0 -29.5 8.5t-15.5 21t-6 27.5t-1 28q0 4 -5 4q-6 0 -17 -12t-27 -27t-34.5 -27t-39.5 -12q-30 0 -48.5 18t-18.5 46q0 53 26.5 94.5t62 70.5t70.5 44t53 15q40 -1 53 -16t13 -31q0 -17 -14 -32t-28 -15
q-9 0 -16 6.5l-15 14.5t-18.5 14.5t-27.5 6.5q-26 0 -41.5 -20.5t-15.5 -52.5q0 -52 55 -52q24 0 36.5 11t20.5 23.5t14 23.5t17 11q8 0 10 -3.5t2 -8.5q0 -7 -2 -14.5t-2 -13.5q0 -8 4 -18t10.5 -18.5t16 -14.5t21.5 -6q10 0 19.5 10t17 26.5t12 37.5t4.5 43q0 23 -6 45.5
t-20 40t-37 28.5t-58 11q-66 0 -119 -24t-90.5 -60.5t-57.5 -81t-20 -85.5q0 -26 8.5 -48.5t26 -39.5t45 -26.5t65.5 -9.5q7 0 7 -3q0 -6 -12 -11t-18 -5q-40 0 -69.5 11t-48.5 30.5t-28.5 45.5t-9.5 56q0 48 24 100.5t70 96t113 72t153 28.5q42 0 72.5 -12.5t49.5 -33.5
t28 -49t9 -59z" />
    <glyph glyph-name="A" unicode="A" horiz-adv-x="764" 
d="M764 104q0 -28 -19 -55t-47.5 -48.5t-62.5 -34t-65 -12.5q-32 0 -52 13t-31.5 33.5t-15.5 45.5t-4 50q0 36 4.5 68.5t10 59.5t10 46t4.5 26q0 4 -3 4q-5 0 -10 -9q-29 -72 -70 -133.5t-87 -106t-93.5 -70t-89.5 -25.5q-35 0 -66 14.5t-51 49.5q-14 25 -19.5 52.5
t-5.5 53.5q0 63 23.5 133.5t64 139t95 131.5t117 110.5t129.5 76t133 28.5q23 0 39.5 -6t26.5 -15t14.5 -20t4.5 -22q0 -21 -8.5 -36t-19.5 -24.5t-22 -14.5t-16 -5t-9.5 3t-5.5 11q-1 12 -10 24t-22 21.5t-29 15t-31 5.5q-42 0 -84 -21t-79.5 -55.5t-70 -78.5t-56.5 -90.5
t-37.5 -91t-13.5 -80.5q0 -28 6.5 -54.5t20 -46.5t35 -32.5t50.5 -12.5q28 0 54 13.5t50 35t46 49.5t41 57q23 34 42.5 76.5t35 80.5t25.5 66.5t13 34.5q4 10 11 15.5t15 5.5q9 0 14.5 -5.5t5.5 -13.5q0 -7 -3 -16q-18 -66 -23.5 -112.5t-5.5 -93.5q0 -45 8.5 -85t24 -70
t38 -48t50.5 -18q18 0 31.5 7t18.5 11q8 6 14 6q5 0 8.5 -3t3.5 -8z" />
    <glyph glyph-name="B" unicode="B" horiz-adv-x="611" 
d="M601 178q0 -46 -19 -90t-51 -79t-73.5 -56.5t-86.5 -21.5q-38 0 -69 21.5t-53 51t-34 59.5t-12 46q0 2 0.5 5.5t5.5 6.5q3 2 19 11l34.5 19l35.5 18.5t22 9.5q2 1 8 1q3 -1 4.5 -4t3.5 -6q6 -15 19.5 -40.5t31.5 -50t39 -42.5t43 -18q12 0 19 6.5t10 16.5t3.5 21t0.5 20
q0 28 -9 58.5t-24.5 61t-35 58t-40.5 48.5t-41.5 33.5t-37.5 12.5q-16 0 -30.5 -7.5t-26.5 -7.5q-10 2 -14 10.5t-4 15.5q0 14 9.5 27.5t26 25t39.5 18.5t50 7q18 0 34 -3q17 20 27.5 39.5t15.5 36.5q6 24 6 49q0 46 -23.5 87t-76.5 63q-9 4 -18.5 6.5t-19.5 2.5
q-46 0 -87.5 -32t-73 -81.5t-49.5 -108.5t-18 -112q0 -41 5.5 -81.5t16 -73t24.5 -53t30 -20.5q6 0 8 3t3 8q7 27 13.5 64t11.5 77.5t9.5 81t7.5 73.5t5.5 55.5t3.5 26.5q0 3 1 4t6.5 5t13 8.5t15 8t11.5 3.5q3 0 4.5 -7.5t1.5 -15.5q0 -5 -2.5 -18l-7.5 -38l-13 -65.5
l-19.5 -101l-26.5 -144.5t-33 -196q-4 -16 -17 -16q-26 0 -48.5 35.5t-38.5 90t-25 119.5t-9 123q0 93 29 176t79 146t118.5 100t147.5 37q36 0 66 -12.5t51 -35t33 -54t12 -69.5t-12.5 -69.5t-31.5 -57t-41.5 -45t-43.5 -31.5q44 -16 75 -47.5t50.5 -68t28 -74t8.5 -64.5z
" />
    <glyph glyph-name="C" unicode="C" horiz-adv-x="493" 
d="M657 681q0 -26 -10.5 -58.5t-28.5 -66t-42.5 -65.5t-53 -57t-58.5 -40.5t-60 -15.5q-11 0 -17 4t-9 9.5t-3.5 11t-0.5 7.5q0 11 7.5 27.5t19.5 31.5t26 26t27 11q8 0 8.5 -7t1 -16t4 -16t18.5 -7q24 0 42 17.5t31 42t19.5 50t6.5 41.5q0 29 -10.5 49t-27 33t-36.5 18.5
t-40 5.5q-39 0 -80.5 -20t-81 -52.5t-74.5 -74t-61 -84.5t-41.5 -83.5t-15.5 -71.5q0 -68 16.5 -113t42 -72t57 -38t62.5 -11q32 0 58 7t45.5 16.5t31.5 19t16 13.5q11 12 21 12q5 0 8 -3q3 -4 3 -9q0 -11 -8 -19q-22 -29 -54.5 -60.5t-72 -57t-83 -42t-87.5 -16.5
q-79 0 -126 50t-47 141q0 81 27 159t72.5 148.5t103.5 130t120.5 103t124 68t112.5 24.5q52 0 74.5 -29.5t22.5 -71.5z" />
    <glyph glyph-name="D" unicode="D" horiz-adv-x="693" 
d="M683 101q0 -12 -14.5 -33t-38 -41.5t-53 -35.5t-59.5 -15q-16 0 -32.5 5.5t-33.5 14.5q-57 -57 -129.5 -94.5t-155.5 -37.5q-57 0 -86 30t-29 85q0 27 10 60t28.5 65.5t45 61.5t60.5 48q-4 50 -9 102.5l-9 96l-6.5 72t-2.5 30.5q-2 12 -8 14t-6 13q0 7 4 14t9.5 13
t11.5 9.5t10 3.5q8 0 12.5 -5.5t7 -12t3.5 -13.5t1 -10q0 -5 2 -35l5 -74.5t7 -97l8 -102.5q15 5 30 7.5t32 2.5q32 0 59.5 -10.5t53 -27t49.5 -35.5t48 -36q12 22 19 45.5t7 49.5q0 37 -22 86.5t-59 102t-86 103.5t-101.5 91t-106 64.5t-100.5 24.5q-21 0 -47.5 -10
t-57.5 -41q-6 -5 -14 -14.5l-16.5 -20.5t-16 -22.5t-11.5 -20.5q-3 -4 -5.5 -8.5t-9.5 -4.5q-9 0 -15.5 5.5t-6.5 12.5v5q0 1 1 2q9 17 36.5 51.5t66 69t85 60.5t93.5 26q41 0 91.5 -17t102 -48.5t101 -75.5t87.5 -97t61.5 -114t23.5 -126q0 -44 -17 -96t-48 -105
q17 -10 35 -15.5t37 -5.5q8 0 15 4t14 8.5l13 8.5t12 4q14 0 14 -14zM408 24l-42.5 31.5l-42.5 32l-41 29t-39 22.5q3 -33 4.5 -55t1.5 -24q0 -12 -5.5 -17t-12.5 -5q-8 0 -13.5 4.5t-6.5 11.5q-1 5 -3 31t-6 65q0 1 -2 1h-1q-20 0 -36 -12.5t-16 -48.5q0 -24 14 -44.5
t35.5 -35.5t48.5 -23.5t53 -8.5q20 0 49.5 12t60.5 34z" />
    <glyph glyph-name="E" unicode="E" horiz-adv-x="472" 
d="M569 756q0 -20 -17 -38t-39.5 -31.5t-43 -21t-28.5 -7.5q-7 1 -10 1.5t-3 6.5t2.5 10.5t2.5 9.5q0 10 -6 17t-15 11t-18.5 5.5t-15.5 1.5q-33 0 -77.5 -16.5t-85 -40.5t-69.5 -51t-29 -48q0 -19 11.5 -33t29.5 -26.5t39.5 -23.5t40 -23t30.5 -26t12 -32q0 -24 -11 -43
t-27.5 -34.5t-36 -30.5t-36 -31.5t-27.5 -37t-11 -47.5q0 -18 8.5 -33.5t22 -27.5t30.5 -18.5t35 -6.5q43 0 79 14.5t65.5 35t52.5 44t39 41.5q7 7 13 7q5 0 8 -2.5t5 -4.5q5 -7 5 -15q0 -13 -16 -36.5t-43.5 -51t-64.5 -56.5t-78.5 -52.5t-86 -38.5t-87.5 -15
q-24 0 -45 6.5t-37.5 20t-26 33.5t-9.5 46q0 32 12 60t30.5 52.5t40 46l40 39t30.5 32t12 25.5q0 16 -12 26.5t-29.5 20t-38.5 18.5t-38.5 21t-29.5 29t-12 42q0 42 30 83t76.5 78t104 68.5t112.5 54.5t101.5 36t70.5 13q33 0 51 -16.5t18 -39.5z" />
    <glyph glyph-name="F" unicode="F" horiz-adv-x="382" 
d="M629 779q0 -10 -10 -27t-24.5 -33t-32 -27.5t-32.5 -11.5q-11 0 -23 2.5t-29 2.5q-33 0 -80 -13.5t-106 -38t-128 -59.5l-147 -78q-3 -2 -6.5 -3.5t-5.5 -1.5q-5 0 -5 8t3.5 26.5t8.5 38.5t12.5 37t14.5 21q54 33 119.5 67t135.5 61.5t142 45.5t139 18q7 0 16 -1t17.5 -5
t14.5 -10.5t6 -18.5zM518 404q0 -9 -9.5 -25t-23.5 -32t-30.5 -28t-30.5 -12q-10 0 -19.5 7.5t-21.5 7.5q-9 0 -27.5 -3.5t-38.5 -9.5t-39.5 -13t-31.5 -14q-10 -7 -20 -7q-5 0 -10.5 5t-5.5 10q0 4 3 8q5 8 25.5 32.5t52 51t73.5 47.5t90 22q6 0 17 -1.5t21.5 -7t18 -14.5
t7.5 -24zM215 -27q0 -16 -15 -24t-24 -8q-6 0 -10.5 4t-7.5 9.5t-4.5 11t-1.5 7.5q0 5 -0.5 32t-0.5 69q0 33 1 78.5t2.5 95.5t3.5 100t3.5 91.5l2.5 69.5t1 34q0 13 9 22.5t27 10.5q4 0 4.5 -1.5t1.5 -3.5q0 -10 -0.5 -37t-1.5 -62t-1.5 -74t-1.5 -74.5t-1.5 -64
t-0.5 -41.5q0 -20 2.5 -56l5 -73.5t5 -70t2.5 -45.5z" />
    <glyph glyph-name="G" unicode="G" horiz-adv-x="589" 
d="M660 770q0 -35 -22 -79.5t-58 -91t-81.5 -90.5t-92.5 -79t-91 -56t-76 -21q-65 0 -65 64q0 12 7 35t19.5 46t29 40.5t34.5 17.5q8 0 13.5 -3.5t5.5 -11.5q0 -4 -4.5 -11t-10 -14.5t-9.5 -15.5t-4 -15q0 -28 19 -39t43 -11q26 0 54.5 15.5t57 40t54.5 55.5t45.5 61
t31.5 57t12 44q0 26 -17.5 40.5t-47.5 14.5q-38 0 -82 -19t-87.5 -52t-83.5 -77.5t-70.5 -95t-48.5 -105.5t-18 -108q0 -44 14 -80.5t38 -62.5t57 -40.5t71 -14.5q46 0 88.5 22.5t76.5 50.5t56 54l27 32q2 4 6.5 7.5t6.5 3.5q5 0 9 -4.5t4 -9.5q0 -8 -4 -21q-3 -10 -10 -42
t-14.5 -72.5t-13.5 -83.5t-6 -74q0 -47 8.5 -72.5t10.5 -27.5t9.5 -5t7.5 -11q0 -11 -5 -22.5t-12.5 -21.5t-17 -16t-18.5 -6q-17 0 -26 10t-13 25.5t-5 35t-1 37.5q-1 40 6.5 86.5t17 86.5t17.5 67t8 29q0 4 -3 4q-6 0 -22 -14l-40 -34.5t-55 -44.5t-68 -44.5t-78.5 -34.5
t-85.5 -14q-40 0 -69.5 15.5t-49 41t-29 59t-9.5 68.5q0 86 29.5 168t78 156t111 136t128.5 107t130.5 70.5t117.5 25.5q32 0 47 -18t17 -43z" />
    <glyph glyph-name="H" unicode="H" horiz-adv-x="659" 
d="M659 130q-7 -10 -33.5 -35.5t-73.5 -44.5q3 -57 3 -116q0 -13 -3 -16q-4 -5 -14.5 -10.5t-17.5 -5.5q-3 0 -4 1q-1 2 -12.5 18l-26 37l-29 42l-22.5 32q-38 4 -72 17.5t-65 33.5q1 -20 1 -37.5v-31.5q0 -15 -1.5 -44.5t-11 -59t-30 -51t-58.5 -21.5q-21 0 -43.5 12.5
t-43 31t-39 40.5t-32.5 41t-22 32l-8 13q0 3 1.5 9t8.5 12l20 16l29 22l27 20t15 9q5 0 16.5 -18t28 -39t36.5 -39t41 -18q12 0 16 21t4 47q0 22 -1.5 41.5t-2.5 27.5q-32 28 -58 59.5t-44 60.5t-28 53.5t-10 37.5q0 11 5 23t12 21.5t15.5 15.5t14.5 6q9 0 16 -3t15.5 -9.5
l21 -16.5l31.5 -24v5q0 69 -5.5 141.5t-5.5 136.5q0 45 1 83.5t2.5 67l2.5 46t2 20.5q0 3 7 10.5t16 14.5t17.5 12.5t11.5 5.5q9 0 9 -12q0 -3 -1.5 -17.5t-3.5 -38.5t-4 -54.5t-3 -64.5q-1 -20 -1 -41.5v-44.5q0 -73 2 -156t5 -164q35 -36 83 -95q-1 1 6.5 -6t24 -16.5
t42 -20t60.5 -17.5q0 3 -0.5 30t-1.5 68.5t-2 93t-3 105.5q-4 126 -8 283q0 5 4 11q2 3 3 4q1 0 5 3.5t9.5 7t11 6.5t8.5 3q5 0 6.5 -7.5t1.5 -16.5q0 -5 -0.5 -23t-1 -43t-1 -54.5t-0.5 -57.5q0 -70 1.5 -128.5t4 -109t5.5 -94.5l6 -86q8 -1 15 -1h15q15 0 24 6t15.5 13
l12 13t12.5 6q18 0 18 -40zM502 35q-6 -1 -12 -1.5t-13 -1.5l12 -16t11 -8q3 0 3 4z" />
    <glyph glyph-name="I" unicode="I" horiz-adv-x="382" 
d="M293 778q0 -5 -2.5 -8.5t-11.5 -8.5q-4 -2 -21.5 -10l-41.5 -19l-51.5 -24l-53 -25.5t-46 -23.5t-29.5 -19q-19 -15 -28 -15q-8 0 -8 10l17 101q1 4 4 6.5t7 4.5q8 5 39 21.5l68.5 35.5t72.5 33.5t50 14.5q10 0 13 -7q2 -5 5.5 -13l7.5 -17t6.5 -18.5t2.5 -18.5zM204 129
q0 -17 -11 -34.5t-33 -17.5q-9 0 -9 14q0 15 -0.5 42.5t-1.5 61l-2 68.5t-2 65.5t-2 51t-1 25.5q0 8 -1 28.5t-1.5 47.5t-1 57t-1 55.5t-1 44t-0.5 22.5q0 7 1 12.5t6 7.5q7 5 17 9t17 4q3 0 5 -2q2 -4 3 -14t1 -21q0 -7 0.5 -30.5t1.5 -56t2 -69t1.5 -69t1.5 -57t1 -31.5
t1 -25t2 -41t2.5 -48t2.5 -46.5t1.5 -36.5t0.5 -17zM343 18q0 -11 -6 -15t-15 -9q-6 -3 -22.5 -13l-38.5 -23l-46 -27.5l-45 -26.5l-36 -20t-20 -8q-12 0 -22.5 13.5t-19 31t-13.5 34t-5 21.5q0 10 16 19q9 5 35.5 23.5t59 38.5t66 36t56.5 16q5 0 10.5 -2t10.5 -8
q4 -6 10 -18l11.5 -24t9.5 -23t4 -16z" />
    <glyph glyph-name="J" unicode="J" horiz-adv-x="404" 
d="M488 873q0 -7 -3.5 -18.5t-8 -23.5t-9 -21.5t-7.5 -13.5q-11 -16 -44 -27q-4 -1 -19 -6l-37.5 -12.5t-49.5 -17.5l-56 -21q-36 -14 -71 -29.5l-64 -28.5t-48 -22.5t-24 -12.5q-7 -5 -13 -8t-11 -3q-9 0 -9 13q0 12 3.5 30t9 35t11 30t9.5 16q14 9 46.5 24.5l73.5 33.5
l87.5 37t88.5 34t76.5 24.5t51.5 9.5q7 0 12 -4.5t5 -17.5zM355 147q0 -23 -7.5 -57.5t-25.5 -67t-49.5 -55.5t-79.5 -23q-27 0 -60.5 20t-62.5 48t-49 57t-20 47q0 13 10 23q12 14 28.5 28.5t33.5 35.5q12 13 19 13q4 0 12.5 -12.5l21.5 -31.5t29.5 -41t35 -41t38.5 -31.5
t40 -12.5q22 0 29 28t7 64q0 51 -11 117.5t-23.5 134l-23.5 127.5t-11 96q0 21 4.5 46t18.5 43q7 4 14.5 7t12.5 3q7 0 7 -7l-6 -25t-4 -39q0 -23 5.5 -61.5t13.5 -85l17 -97l17 -98t13.5 -87.5t5.5 -65z" />
    <glyph glyph-name="K" unicode="K" horiz-adv-x="524" 
d="M523 79q0 -15 -15.5 -36t-43 -40.5t-66 -33t-83.5 -13.5q-52 0 -89.5 17.5t-64 46.5t-44 65.5t-29.5 75.5t-20 76t-16 66q-1 4 -3 4q-3 0 -3 -8q0 -14 -0.5 -36.5t-0.5 -51.5q0 -47 2 -103t8 -108q0 -2 -3 -6.5t-7.5 -9.5t-11 -9t-13.5 -4q-8 0 -10 6.5t-2 14.5
q0 12 -1 35.5t-2.5 62.5t-3 96t-1.5 135q0 82 0.5 135t2 94t5 78t10.5 87q0 4 2.5 9t4.5 7t12.5 8t21.5 8q3 0 5 -1q4 -2 4 -7q-7 -38 -11 -84.5t-6 -90.5t-2.5 -80t-0.5 -54v-16.5t2 -4.5t5 6.5t8 6.5q15 0 16 -7q12 -16 26.5 -26t28 -15.5t25.5 -7.5t21 -2q40 0 70.5 14.5
t52.5 37.5t36.5 50.5t23.5 54t12.5 48t3.5 31.5q0 23 -5.5 44.5t-15 39t-24 28t-32.5 10.5q-8 0 -11.5 -4.5t-10.5 -4.5t-14 4.5t-7 9.5q0 12 12 27.5t29 30t35.5 24.5t31.5 10q55 0 79.5 -35t24.5 -88q0 -54 -21.5 -117.5t-60 -118.5t-92 -91.5t-117.5 -36.5q-31 0 -50 8.5
t-23 8.5q-5 0 -5 -7q0 -3 1 -7t3 -9q72 -128 154 -194.5t163 -66.5q16 0 27.5 4.5t20 10t13.5 11t9 8.5q8 5 12 5q7 0 12.5 -9t5.5 -16z" />
    <glyph glyph-name="L" unicode="L" horiz-adv-x="641" 
d="M640 49q0 -14 -20 -33t-48.5 -36t-59.5 -29t-54 -12q-34 0 -74 18.5t-80 41.5t-76.5 41.5t-64.5 18.5q-16 0 -33 -10t-32 -24t-27 -28.5t-18 -23.5q-11 -16 -20 -16q-8 0 -16 7t-8 15q0 3 0.5 6t1.5 7q5 20 7 46t2 55q0 35 -1.5 60.5t-3.5 49.5t-4.5 49t-4.5 58.5
t-3.5 78.5t-1.5 108q0 61 23.5 113.5t60 91t80 60.5t83.5 22q24 0 37.5 -14t13.5 -37q0 -11 -6.5 -29t-17 -35t-22.5 -29.5t-23 -12.5q-4 0 -12.5 6.5t-8.5 12.5q0 5 5 8t5 9q0 5 -1 11.5t-5 12t-11 9.5t-19 4q-41 0 -69 -24.5t-45 -61t-24 -78.5t-7 -76q0 -51 2.5 -105
t6 -107t6 -102.5t2.5 -90.5q0 -19 5 -19q2 0 5 3.5t5 5.5q5 6 24.5 26t46.5 42t56.5 39.5t54.5 17.5q36 0 72.5 -20.5t74 -45t75.5 -45t76 -20.5q20 0 30 5.5t16 12.5t10 12.5t12 5.5q6 0 14 -9.5t8 -16.5z" />
    <glyph glyph-name="M" unicode="M" horiz-adv-x="919" 
d="M918 48q0 -12 -15 -28.5t-38 -32t-52 -26t-56 -10.5q-47 0 -79.5 22t-53.5 57.5t-32.5 80t-17 88.5t-6.5 84t-1 67q0 30 0.5 62l1 61t1 54.5t0.5 43.5q-1 7 -7 7q-4 0 -7 -2.5t-5 -4.5l-31.5 -83.5l-41.5 -113.5l-44 -124l-40.5 -114.5l-30 -85.5l-12.5 -37
q-2 -7 -7.5 -15t-13 -15t-15 -11.5t-13.5 -4.5q-7 0 -9 6t-3 13q-1 12 -2 52t-4 92t-7 109t-11 105t-17 79t-24 31q-7 0 -21.5 -32.5t-32 -82.5t-36 -108.5l-34.5 -110.5l-27 -89.5l-13 -44.5q-4 -14 -18.5 -23t-27.5 -9q-7 0 -9 5.5t-2 10.5q4 111 5.5 202t1.5 166
q0 92 -1.5 157.5t-3.5 108.5q-3 50 -6 83q0 3 4 8.5t10 11.5t13 10t13 4q8 0 10 -8t2 -14q0 -2 1 -39.5t1 -92.5q0 -42 -0.5 -92l-1 -99.5l-1 -96.5t-1 -84t-1 -61t-0.5 -28q0 -18 3 -18q1 0 8.5 21.5l19.5 57l27.5 80.5l31 93l31 95l27.5 84.5l20.5 63t9.5 30.5
q7 24 21 39.5t30 15.5q10 0 17.5 -22.5t14 -59.5t11 -84t8.5 -96l7.5 -96t6 -84t5 -59.5t5.5 -22.5t13 24t24.5 62.5l32 88.5l35.5 101.5l35.5 100.5l32 87.5t24 61t12.5 21.5q-1 1 4 5.5t12.5 9.5t15.5 9.5t13 5.5q13 -2 17.5 -10.5t4.5 -16.5q1 -10 0.5 -52t2.5 -94
l5.5 -77.5t12.5 -104t24 -112t39.5 -102t59 -74.5t82.5 -29q10 0 17 3t12 6t8.5 6t6.5 3q8 0 13.5 -6t5.5 -13z" />
    <glyph glyph-name="N" unicode="N" horiz-adv-x="543" 
d="M674 738q0 -5 -4 -10q-25 -28 -51.5 -80t-51.5 -115t-46.5 -129.5t-36.5 -125.5q8 -48 13 -95t5 -94q0 -11 -2.5 -33t-9 -44t-17 -38t-27.5 -16q-14 0 -23 10t-14 26.5t-7 37t-2 41.5q0 41 5.5 68t5.5 38q0 17 -11 59.5t-30.5 96.5t-47 112t-61 106.5t-72 80t-79.5 31.5
q-16 0 -32 -8.5t-30 -29.5q-8 -8 -14 -17.5t-12 -9.5q-2 0 -3 1q-7 5 -13 16q-4 6 -6 13q11 14 32.5 36t50 42t61 34.5t64.5 14.5q37 0 74 -31.5t71.5 -85t63.5 -124.5t49 -151l19 72t24 79t33.5 90t49.5 105q3 6 17.5 18.5t52.5 17.5q4 0 8 -2t4 -7zM189 -4q0 -6 -4 -13
t-10.5 -12.5t-14.5 -9t-15 -3.5q-18 0 -20 23q-1 11 -2.5 51t-1.5 90q0 23 1.5 63.5t4 89t5.5 100t6 96t6 77.5t6 44l3.5 4.5l8 10t9.5 9.5t10 4q7 0 7 -9q-1 -8 -3 -32t-4 -58t-4 -75t-3.5 -81.5t-2.5 -77.5t-1 -65q0 -34 3 -68.5t6.5 -65l6.5 -55t3 -37.5z" />
    <glyph glyph-name="O" unicode="O" 
d="M614 354q0 -7 -9 -21.5t-25 -32.5t-37 -37.5t-47 -37.5q-30 -58 -67 -108.5t-78.5 -88.5t-87 -60t-92.5 -22q-42 0 -73.5 18t-53.5 49t-33 73.5t-11 91.5q0 83 23 164.5t61 155t87.5 136.5t102 108.5t105 71.5t95.5 26q18 0 37.5 -15t19.5 -42q0 -16 -13.5 -37t-33.5 -31
q27 0 47.5 -12t33.5 -32t19.5 -45t6.5 -51q0 -63 -16.5 -134.5t-45.5 -142.5q31 21 47.5 42t20.5 25q3 3 5 3q5 0 8.5 -4.5t3.5 -9.5zM542 507q0 27 -6 53t-19 46.5t-32 33t-46 12.5q-33 0 -63 -20.5t-53 -52.5t-36.5 -72t-13.5 -79q0 -45 15.5 -76t37.5 -51t47 -29t44 -9
q17 0 33 2.5t30 7.5q30 61 46 124t16 110zM456 713q-1 1 -1 5q0 26 -11.5 35t-39.5 9q-33 0 -69 -20t-69.5 -54t-63.5 -79t-53 -94t-36 -99t-13 -95q0 -34 7.5 -74.5t26.5 -74.5t51.5 -57t83.5 -23q47 0 87 27t72 70q-40 -17 -79 -17q-37 0 -66 16.5t-48 41.5t-29 55.5
t-10 57.5q0 49 19.5 109.5t54 115.5t82 95.5t104.5 49.5z" />
    <glyph glyph-name="P" unicode="P" horiz-adv-x="484" 
d="M626 635q0 -60 -13 -110.5t-32.5 -90.5t-43 -70.5t-45 -52t-38 -33.5t-22.5 -15t-13 -3q-8 0 -12.5 6t-4.5 15q0 11 15 18q38 27 61.5 55t36.5 55.5t17 53.5t4 49q0 33 -9.5 77t-34.5 84t-68 67.5t-110 27.5q-63 0 -111 -24.5t-80.5 -65.5t-49 -95t-16.5 -113
q0 -46 12.5 -93t33.5 -91t49.5 -82t60 -66.5t64.5 -45t64 -16.5q8 0 11.5 9.5t4.5 17.5q-2 29 -7.5 66t-11.5 90t-10.5 126.5t-4.5 175.5q0 18 8.5 33t28.5 15q5 0 5.5 -6.5t0.5 -20.5v-25.5t0.5 -37.5t1 -45t1.5 -49q2 -48 5.5 -89t4.5 -55q1 -9 3 -28.5t5 -44.5t6 -53.5
l6 -55.5t4.5 -49.5t1.5 -36.5q0 -9 -3 -22t-10.5 -24t-18.5 -19t-28 -8q-37 0 -76.5 19.5t-77.5 53.5t-72 79t-60 95.5t-41 104.5t-15 105q0 94 26 177t77 145.5t127.5 99t177.5 36.5q60 0 101 -23.5t66.5 -58t36.5 -72t11 -66.5z" />
    <glyph glyph-name="Q" unicode="Q" horiz-adv-x="651" 
d="M624 125q0 -24 -9 -49.5t-23.5 -50t-32.5 -46.5t-36.5 -38.5t-35 -26.5t-27.5 -10q-14 0 -14 13q0 8 7 14q8 6 19 16.5t20.5 25t16 32t6.5 37.5q0 38 -22 64.5t-56 47.5q-27 -43 -59 -80t-67.5 -64t-74.5 -42.5t-80 -15.5q-40 0 -69.5 21.5t-48.5 56.5t-28 79t-9 89
q0 57 17 127.5t48 143t73.5 141.5t93.5 122.5t108 86.5t117 33q38 0 49.5 -14t11.5 -32q-1 -15 -8.5 -29t-16.5 -25.5t-18.5 -18t-15.5 -6.5q-9 0 -12.5 7t-8.5 15t-15.5 15t-33.5 7q-35 0 -69.5 -19.5t-66.5 -53t-59.5 -78t-47.5 -94t-31.5 -101.5t-11.5 -100
q0 -35 7.5 -74.5t24 -72.5t42.5 -55t63 -22q44 0 82.5 21.5t70.5 56.5l-69.5 36.5t-65 42t-48 53.5t-18.5 71q0 72 26 133t66.5 105t88.5 69t91 25q32 0 52.5 -14t33.5 -34.5t18 -45t5 -45.5q0 -61 -18 -138t-52 -155q25 -12 46.5 -26.5t38 -33.5t26 -42.5t9.5 -54.5z
M517 497q0 33 -6.5 61t-20 48.5t-34 32t-49.5 11.5q-30 0 -55 -15t-44 -38.5t-29.5 -52.5t-10.5 -57q0 -42 18 -71t47 -50.5t65.5 -37.5t72.5 -30q22 49 34 100.5t12 98.5z" />
    <glyph glyph-name="R" unicode="R" horiz-adv-x="681" 
d="M683 71q0 -4 -13 -23.5t-38 -41.5t-61.5 -39.5t-83.5 -17.5q-44 0 -78.5 19t-60.5 51t-43.5 74t-28.5 88t-16 93t-5 88q0 4 2.5 9.5t8.5 5.5q5 -1 11.5 -6.5t15.5 -12t22.5 -11.5t32.5 -6q23 -1 40.5 10t29 29.5t17 44t5.5 54.5q0 46 -13.5 98.5t-40.5 97t-68 74
t-96 29.5q-24 0 -52 -20t-52 -55.5t-40 -84.5t-16 -108q0 -38 7.5 -84.5t23.5 -95.5t40.5 -98t57.5 -92h1q3 0 3 8q0 4 0.5 10.5t0.5 14.5q0 20 -0.5 52.5t-0.5 73.5v41.5t1 44.5q1 32 2.5 63t3.5 56.5t3.5 42.5t1.5 22q7 23 19 29t23 6q7 0 7 -8l-4 -33.5t-6 -63.5
q-7 -77 -8.5 -144.5t-1.5 -144.5q0 -19 2.5 -54.5t5.5 -73l5.5 -70t2.5 -44.5q-1 -8 -4.5 -14t-12.5 -5q-33 2 -71 48.5t-71 120.5t-55 167t-22 189q0 30 6 71t20 85.5t35.5 88.5t53 78.5t72.5 56t94 21.5q59 0 105 -28t78.5 -73t49.5 -101.5t17 -113.5q0 -48 -12.5 -93
t-38.5 -81.5t-66.5 -60.5t-96.5 -30q-7 -2 -7 -8q0 -9 10.5 -29t29 -45t43.5 -52t54 -50t60 -38.5t62 -18.5q29 0 56 21q7 6 13 13t11 7q8 -5 13 -10t5 -13z" />
    <glyph glyph-name="S" unicode="S" horiz-adv-x="648" 
d="M691 94q0 -9 -13 -16q-28 -27 -85.5 -54.5t-128.5 -50t-147 -36.5t-142 -14q-37 0 -69.5 5.5t-55.5 17.5t-36.5 31.5t-13.5 47.5q0 9 10 21t23.5 24.5t27 23t21.5 14.5q4 2 7 2q9 0 34 -15.5t61 -34.5t81.5 -34.5t94.5 -15.5q35 0 59.5 12t40 30t22.5 39t7 39
q0 33 -24.5 58.5t-61.5 47.5t-79.5 43t-79.5 45.5t-61.5 54.5t-24.5 70q0 38 22 76.5t58.5 74.5t83 67.5t94.5 54.5t94 36.5t82 13.5q12 0 27.5 -1.5t29.5 -7.5t23.5 -18t9.5 -33q0 -20 -10 -38t-24 -31.5t-29 -21.5t-24 -8q-7 0 -11.5 5t-4.5 10q0 7 5 13t5 17
q0 13 -7.5 21.5t-19 13.5t-24 7t-21.5 2q-34 0 -74.5 -12.5t-76.5 -35t-63 -54t-35 -68.5q5 -39 31.5 -68t63.5 -53.5t78.5 -46.5t77 -47t58.5 -55t23 -71q0 -27 -17.5 -53.5t-38 -48t-38 -36.5t-17.5 -19q0 -1 3 -1q26 0 57.5 12t59 26t45 25.5t15.5 10.5q7 4 10 4
q4 0 8 -6t4 -11z" />
    <glyph glyph-name="T" unicode="T" horiz-adv-x="524" 
d="M670 781q0 -8 -2.5 -22t-8 -28t-13 -24t-17.5 -11q-22 -1 -67 -8.5t-101.5 -20t-120.5 -29t-124 -36t-112 -41.5t-84 -45q-6 -3 -11 -3q-9 0 -9 12t4 30t10 35.5t11.5 30.5t8.5 14q54 29 131 57.5t161 51t168 38t154 19.5q5 -1 13.5 -5t8.5 -15zM484 28q0 -16 -13 -31.5
t-32.5 -27.5t-42.5 -19.5t-43 -7.5q-33 0 -55 16.5t-35 47t-18.5 75t-5.5 100.5q0 71 11 141.5t24.5 128t25.5 95.5t15 44q2 5 11.5 9.5t20.5 5.5q10 0 10 -8q-18 -91 -23 -154t-5 -106q0 -67 9 -122t25.5 -94t39.5 -60t51 -21q5 1 9.5 2t8.5 1q5 0 8.5 -4.5t3.5 -10.5z" />
    <glyph glyph-name="U" unicode="U" horiz-adv-x="744" 
d="M744 52q0 -11 -14 -29.5t-38.5 -36t-58.5 -30.5t-74 -13q-23 0 -46.5 12t-45.5 35t-41 57t-32 79q-48 -69 -108.5 -112t-132.5 -43q-46 0 -75.5 20.5t-47 54t-24 77t-6.5 88.5q0 67 11.5 142t30 145.5t42 131t47.5 99.5q2 4 12 12.5t27 8.5q9 0 9 -10q0 -6 -3 -15
q-9 -18 -21.5 -48t-24.5 -73.5t-20 -101t-8 -131.5q0 -13 1 -38.5t5.5 -55t13.5 -60.5t25 -56t40.5 -41t58.5 -16q40 0 74 19t62 51q-5 29 -9 61.5t-2 67.5q5 95 19.5 176t34.5 140.5t45 93t52 33.5q20 0 29.5 -27.5t9.5 -74.5q0 -36 -5.5 -80t-16.5 -92t-27 -99t-37 -100
q12 -43 29.5 -83.5t41.5 -71t54.5 -49t67.5 -18.5q12 0 20 4t14 8.5l11.5 8.5t11.5 4q8 0 13.5 -8t5.5 -16zM511 562q-1 6 -1.5 20.5t-2 29t-6 25.5t-14.5 11q-11 0 -18.5 -14t-12.5 -38t-7.5 -55.5t-2.5 -66.5q0 -34 4 -74.5t14 -83.5q23 63 35 127.5t12 118.5z" />
    <glyph glyph-name="V" unicode="V" horiz-adv-x="429" 
d="M563 686q0 -13 -5.5 -31.5t-14 -36t-18.5 -30t-19 -12.5q-8 0 -9 8.5t-5 8.5q-16 0 -32 -26.5t-30 -69.5t-25.5 -96.5t-20 -107.5t-13 -102.5t-4.5 -80.5q0 -20 1 -36t2 -27q1 -13 2 -23l-24 -30l-20.5 -24.5t-17.5 -18.5q-13 -12 -22 -12q-8 0 -24 20t-37.5 54
t-46.5 80.5t-50 99.5t-48 110t-41 113t-29 108.5t-11 95.5q0 2 11.5 14.5l26.5 28.5t31 31t25 22q6 4 8 4q11 0 11 -40q0 -72 15 -143t38.5 -135.5t50.5 -120.5t50.5 -97.5t40.5 -65.5t19 -26q1 10 3.5 42t7.5 78.5t13 102.5t19 113.5t26 111t34 95.5t42.5 67t52.5 25
q17 0 27 -11t10 -30z" />
    <glyph glyph-name="W" unicode="W" horiz-adv-x="860" 
d="M893 437q0 -66 -15.5 -128.5t-41.5 -117.5t-60 -100.5t-72 -78t-77 -50.5t-75 -18q-37 0 -60.5 19t-36.5 46.5t-18 59t-5 55.5q0 27 3.5 56.5t8 54t8.5 42t4 20.5q0 6 -1 6q-5 0 -14 -18l-9.5 -19l-19 -36.5l-27 -48.5t-33.5 -54q-23 -33 -48 -63.5t-47 -53.5
q-42 -45 -77.5 -58t-57.5 -13q-15 0 -35.5 7t-39.5 26.5t-32.5 53.5t-13.5 87q0 29 5.5 64t18.5 78q28 92 62 170t65.5 137t55.5 96.5t31 46.5q6 7 12 7t11.5 -5t5.5 -12q0 -8 -10 -21q-21 -31 -46 -80.5t-46 -106t-35 -115t-14 -108.5q0 -47 9.5 -79.5t24.5 -52.5
t33.5 -28.5t37.5 -8.5q26 0 53 20.5t53 52.5t50 71.5t44.5 78t35.5 71.5l23 51q5 10 8.5 18t10.5 8q8 0 13 -5t5 -11q0 -3 -0.5 -6t-1.5 -8q-5 -35 -7 -63t-2 -50q0 -39 5.5 -81t20.5 -76.5t42.5 -57t71.5 -22.5q48 0 82.5 27t57 65t33.5 79t11 69q0 41 -16 93.5t-44.5 100
t-69 80.5t-90.5 35q-11 1 -14.5 5t-3.5 9q0 9 9 22t25 25.5t37 21.5t45 9q32 0 65 -17t59.5 -52t43 -90t16.5 -131z" />
    <glyph glyph-name="X" unicode="X" horiz-adv-x="773" 
d="M773 101q0 -12 -10 -20q-36 -37 -70.5 -59t-64.5 -32.5t-54.5 -13.5t-40.5 -3q-32 0 -66 7.5t-70.5 28t-76.5 56.5t-84 92q-25 -54 -44.5 -109.5t-32.5 -111.5q-3 -14 -8 -17.5t-19 -3.5q-23 0 -23 22q1 42 26.5 111.5t67.5 152.5q-54 77 -97.5 170t-69.5 182
q-10 34 -16.5 65t-10.5 56t-6 42t-2 23q0 8 8 21t21 13q3 0 6 -5.5t3 -12.5q8 -42 28.5 -95t50.5 -110t68 -115.5t83 -112.5q48 83 103.5 163.5t109 143.5t101.5 101.5t82 38.5q20 0 32.5 -13t12.5 -30q0 -15 -11.5 -36.5t-27.5 -42t-33.5 -34.5t-30.5 -14q-5 0 -6 2.5
t-1.5 5t-2 5t-6.5 2.5q-18 0 -50 -25t-71.5 -69t-83 -105t-84.5 -132q38 -42 79.5 -77.5t85 -62t88.5 -41t90 -14.5q23 0 38.5 4t26 9.5t16.5 11.5t11 10q6 5 13 5q8 0 15.5 -9.5t7.5 -17.5z" />
    <glyph glyph-name="Y" unicode="Y" 
d="M671 735q0 -31 -15 -75.5t-42 -94t-64.5 -101t-82.5 -96.5q-11 -66 -16.5 -133.5t-5.5 -127.5v-39t1 -36.5t2 -29t2 -18.5q2 -9 4 -12t4 -3t5 2t7 2q5 -1 10 -5t6 -12q-1 -15 -6 -38.5t-15 -46t-24.5 -38.5t-33.5 -16q-9 0 -15 9.5t-9 25t-4.5 35.5t-1.5 41
q0 101 9 199.5t26 189.5q-55 -46 -115 -74.5t-121 -28.5q-33 0 -64 16t-56 45t-40 69t-15 89q0 44 9.5 86.5t21.5 78t24.5 61.5l18.5 38q2 4 5 8q5 7 14 7q6 0 11 -5t5 -10t-3 -11q-10 -27 -14 -52.5t-4 -48.5q0 -41 13.5 -87t40.5 -84.5t66.5 -64t91.5 -25.5q32 0 63 12.5
t59 35.5q19 87 43 160.5t51.5 127.5t57.5 84t60 30q36 0 36 -39zM598 681q0 11 -8 11q-16 0 -32 -21.5t-30.5 -58t-27 -85.5t-23.5 -105q27 31 49.5 66.5t38 70.5t24.5 67t9 55z" />
    <glyph glyph-name="Z" unicode="Z" horiz-adv-x="765" 
d="M764 27q0 -23 -23 -45t-54.5 -39t-64 -27t-50.5 -10q-30 0 -62.5 10t-64 24.5t-61.5 32l-56 32t-47 24.5t-34 10q-22 0 -47 -19.5t-48.5 -42.5l-44 -42.5t-34.5 -19.5q-10 0 -19 9.5t-9 20.5q0 5 15.5 23.5t42 42.5t62 49t75.5 43l22.5 47.5l28.5 62l30.5 67.5l29 62.5
l22.5 49t12 26.5l33 69.5t41 82t46 79t46 59.5q1 1 0 2t-4 1q-2 0 -4 -1l-61 -26.5l-83.5 -36l-95.5 -39.5t-96.5 -36t-85.5 -26.5t-64 -10.5q-27 0 -42 10.5t-15 31.5q0 14 16 31.5t35.5 33.5t35.5 26.5l16 10.5q3 2 8 2t11.5 -5t6.5 -11q0 -5 -4.5 -10t-10.5 -9.5
l-10.5 -8t-4.5 -6.5q0 -4 8 -4t41.5 9l82 23l106 32l111.5 35.5l99.5 33t70.5 25.5q5 2 15 9t18 7t12.5 -11t4.5 -23q0 -9 -2.5 -12t-8.5 -5q-21 -9 -44.5 -33t-45.5 -54.5t-41 -62.5t-32 -56q-10 -18 -24.5 -48l-32 -67l-36 -78.5l-37 -82l-34.5 -77.5l-29 -66q30 8 57 8
q42 -5 81.5 -24.5t77 -41t72 -38.5t64.5 -17q25 0 40.5 7t25.5 16t15.5 16t9.5 7q5 0 8.5 -4.5t6 -10t4 -10.5t1.5 -6z" />
    <glyph glyph-name="bracketleft" unicode="[" horiz-adv-x="253" 
d="M233 -144q0 -6 -15.5 -10.5t-34.5 -7t-36.5 -3.5t-22.5 -1q-7 0 -13.5 46t-11 121t-7 169.5t-2.5 191.5q0 89 2.5 173.5t8.5 150t15 105t22 39.5q5 0 20 -2t32 -5.5t30 -9t13 -12.5q0 -9 -1 -21t-3 -23.5t-5.5 -19.5t-8.5 -8q-2 0 -9.5 1t-16.5 2.5t-16.5 2.5t-8.5 1
q-9 0 -15.5 -24t-10 -64.5t-5.5 -95t-2 -114.5q0 -58 1.5 -119t4 -118.5t6.5 -108.5t8.5 -89t9.5 -60t11 -22q1 0 7 1t13.5 1.5t14 1.5t8.5 1q5 0 8.5 -7.5t5.5 -18.5t3 -23t1 -21z" />
    <glyph glyph-name="backslash" unicode="\" horiz-adv-x="312" 
d="M280 -56q0 -5 -9 -8t-13 -3q-11 0 -21 7.5t-15 15.5l-33.5 82l-51.5 127l-61 150l-62.5 153l-57 135l-42.5 95l-6 14.5t-3 10.5t12.5 5.5t16.5 2.5q7 0 13 -6q3 -3 5 -7l50.5 -114l57 -135l59.5 -144.5l58 -142l54 -128.5t47 -103q2 -6 2 -7z" />
    <glyph glyph-name="bracketright" unicode="]" horiz-adv-x="253" 
d="M234 362q0 -97 -2.5 -191.5t-7 -169.5t-11 -121t-13.5 -46q-4 0 -22 1t-37 3.5t-34.5 7t-15.5 10.5q0 9 1 21t3 23t5.5 18.5t8.5 7.5q2 0 8.5 -1t14 -1.5t13.5 -1.5t7 -1q6 0 11 22t9.5 60t8.5 89t6.5 108.5t4 118.5t1.5 119q0 60 -2 114.5t-5.5 95t-10 64.5t-15.5 24
q-1 0 -8.5 -1t-16.5 -2.5t-16.5 -2.5t-9.5 -1q-5 0 -8.5 8t-5.5 19.5t-3 23.5t-1 21q0 7 13 12.5t30 9t32.5 5.5t19.5 2q13 0 22 -39.5t15 -105t8.5 -150t2.5 -173.5z" />
    <glyph glyph-name="underscore" unicode="_" horiz-adv-x="370" 
d="M333 -48q0 -14 -25 -14h-20.5h-46t-60 -0.5t-62.5 -1.5t-53.5 -2t-32.5 -3q-2 0 -5.5 9t-3.5 26q0 14 7.5 18t14.5 4l14.5 -0.5t37 -0.5t50 -1t55 -1t52 -0.5t39.5 -0.5q5 0 11.5 -1t12.5 -4t10.5 -9.5t4.5 -17.5z" />
    <glyph glyph-name="grave" unicode="`" horiz-adv-x="305" 
d="M240 300q0 -12 -15 -12q-3 0 -17 0.5t-33 3t-41 7.5t-40.5 14.5t-30.5 24t-12 35.5q0 11 8.5 24t28.5 13q25 0 33 -9t15.5 -22.5t23 -28.5t54.5 -27q26 -8 26 -23z" />
    <glyph glyph-name="a" unicode="a" horiz-adv-x="358" 
d="M389 67q0 -5 -6 -14l-28.5 -34.5t-33.5 -34t-37.5 -25.5t-41.5 -10q-19 0 -29.5 8.5t-15.5 21t-6 27.5t-1 28q0 4 -5 4q-6 0 -17 -12t-27 -27t-34.5 -27t-39.5 -12q-30 0 -48.5 18t-18.5 46q0 53 26.5 94.5t62 70.5t70.5 44t53 15q40 -1 53 -16t13 -31q0 -17 -14 -32
t-28 -15q-9 0 -16 6.5l-15 14.5t-18.5 14.5t-27.5 6.5q-26 0 -41.5 -20.5t-15.5 -52.5q0 -52 55 -52q24 0 36.5 11t20.5 23.5t14 23.5t17 11q8 0 10 -3.5t2 -8.5q0 -7 -2 -14.5t-2 -13.5q0 -8 4 -18t10.5 -18.5t16 -14.5t21.5 -6q17 0 30 9.5l20 14.5q9 9 22 9q12 0 12 -9z
" />
    <glyph glyph-name="b" unicode="b" horiz-adv-x="308" 
d="M385 146q0 -6 -11.5 -18.5t-31.5 -26t-47 -25.5t-58 -16q-7 -17 -18.5 -35t-28.5 -33t-41.5 -25t-58.5 -10q-24 0 -40.5 13t-27 32.5t-16.5 43t-8.5 45.5t-3 39t-0.5 23q1 45 7 94.5t17 98t25.5 92.5t32 77t36.5 53t39 20q9 0 15.5 -6.5t11 -15t6.5 -18t2 -15.5
q0 -51 -12 -107.5t-29 -108t-37.5 -93t-38.5 -63.5q6 -21 14.5 -41t20.5 -35t27.5 -24t34.5 -9q6 0 17 2.5t19 6.5q-11 4 -25 16.5t-14 41.5q0 22 9 44t23.5 40t32.5 29.5t35 11.5q11 0 18.5 -8.5t7.5 -19.5q0 -10 -1.5 -15.5t-3.5 -10.5t-3.5 -10.5t-1.5 -16.5
q0 -15 11.5 -22t26.5 -7q9 0 16.5 3.5t14.5 8t13 8t11 3.5q13 0 13 -11zM138 453q0 23 -4 40.5t-15 17.5q-16 0 -28.5 -26.5t-20.5 -63t-12 -74t-4 -59.5q0 -17 1.5 -42t6.5 -52q17 15 30.5 50t24 75.5t16 78t5.5 55.5z" />
    <glyph glyph-name="c" unicode="c" horiz-adv-x="269" 
d="M283 70q0 -12 -14 -32t-39.5 -38.5t-61 -32t-78.5 -13.5q-52 0 -75 25.5t-23 63.5q0 34 16 71.5t43.5 69.5t64.5 53t79 21q19 0 30.5 -11.5t11.5 -28.5q0 -13 -7 -27t-17.5 -25.5t-24 -19t-25.5 -7.5q-3 0 -5 3t-2 5q0 5 2.5 8l5 6t5 7t2.5 11q0 13 -7.5 24t-16.5 11
q-28 0 -43.5 -25.5t-15.5 -57.5q0 -36 20.5 -61t57.5 -25q28 0 46 5.5t29 11.5t18.5 11.5t14.5 5.5q9 0 9 -9z" />
    <glyph glyph-name="d" unicode="d" horiz-adv-x="427" 
d="M427 50q0 -6 -6 -14q-16 -20 -35 -36q-17 -14 -39 -25t-48 -11q-35 0 -58 19.5t-37 52.5q-26 -32 -59 -51.5t-73 -19.5q-21 0 -34.5 8.5t-22 22t-12 30.5t-3.5 35q0 30 19 60.5t44.5 55t51.5 40t41 15.5q9 0 12 -11q0 -8 -10.5 -15t-15.5 -10q-26 -16 -32.5 -32.5
t-6.5 -29.5q0 -22 7 -35t16 -19.5t17.5 -8t11.5 -1.5q17 0 34 14q-6 29 -8.5 62.5t-2.5 70.5q0 34 3.5 75.5t10 84.5t16.5 83.5t23 72t29 50.5t36 19q13 0 21.5 -10.5t14 -25.5t7.5 -32t2 -31q0 -21 -4 -61.5t-13 -91t-24 -106.5t-37 -107q17 -38 44 -62t69 -24q8 0 20 5
t18 5q13 0 13 -11zM307 434q0 57 -7.5 81.5t-19.5 24.5q-13 0 -23 -19t-16.5 -45t-9.5 -53t-3 -44q0 -47 4 -100t17 -101q14 35 24.5 74.5t18 75.5t11.5 64.5t4 41.5z" />
    <glyph glyph-name="e" unicode="e" horiz-adv-x="241" 
d="M285 106q0 -6 -4 -14q-13 -21 -32 -45t-43 -43.5t-52.5 -32.5t-60.5 -13q-28 0 -47.5 7.5t-31.5 20.5t-17.5 31t-5.5 38q0 37 15.5 78t40.5 76t56.5 58t62.5 23q11 0 21.5 -5t10.5 -21q0 -18 -5 -35t-17 -37.5t-31.5 -45t-49.5 -56.5q12 -18 30.5 -29t42.5 -11
q31 0 49.5 15t35.5 35q14 15 24 15q8 0 8 -9zM134 203q0 26 -16 26q-13 0 -22 -7t-13.5 -17.5t-6.5 -22.5t-2 -21q0 -26 8 -46q9 3 18.5 14.5t17 25.5t12 27.5t4.5 20.5z" />
    <glyph glyph-name="f" unicode="f" horiz-adv-x="219" 
d="M216 52q0 -19 -13.5 -38.5t-33.5 -35.5t-42 -26.5t-40 -10.5l-1 -22q12 -16 23 -37q9 -18 16 -44t7 -61q0 -27 -6 -51.5t-15 -44t-20 -31t-22 -11.5q-6 0 -12.5 3t-7.5 11q-1 10 -1.5 21.5t-0.5 25.5q0 27 1.5 58t3.5 60.5t3.5 54t1.5 38.5v32q-38 6 -59.5 23.5
t-21.5 28.5q0 7 7 15l14.5 17.5l17 20.5l15.5 18t8 10q3 5 11 5q4 0 10 -2q1 58 3 119.5t6 120t10.5 110.5t17 91t25.5 62t36 23q29 0 40.5 -23t11.5 -61q0 -44 -12.5 -101t-30.5 -113t-37.5 -104t-33.5 -74q-1 -20 -1 -37.5v-30.5l-1 -7q9 -5 21 -9t30 -4t27.5 3t15.5 6
t10 6t11 3q8 0 8 -7zM168 458q0 11 -6 25t-15 14q-6 0 -12 -8t-11.5 -28t-10.5 -53.5t-8 -85.5q-1 -20 -3 -43q-2 -20 -2.5 -45t-2.5 -51q11 27 23.5 63t23 74t17.5 74t7 64z" />
    <glyph glyph-name="g" unicode="g" horiz-adv-x="324" 
d="M388 92q0 -8 -11 -18q-87 -79 -132 -135q1 -27 1.5 -56.5t0.5 -60.5q0 -51 -3 -99.5t-12.5 -87t-27 -62t-46.5 -23.5q-34 0 -51.5 31.5t-17.5 85.5q0 32 11 66.5t29 69.5t41 69.5t48 65.5q-1 23 -1 47t-1 51q-3 0 -14 -12.5t-28.5 -27t-39 -27t-45.5 -12.5
q-42 0 -60.5 20t-18.5 50q0 32 17.5 69.5t47.5 70t69 54.5t81 22q3 0 12 -1t19 -5t17.5 -12t7.5 -23q0 -2 -2.5 -10.5t-9 -18.5t-19.5 -17.5t-34 -7.5q-4 0 -8 1t-4 6q0 7 2.5 9t2.5 13q0 7 -3.5 13.5t-15.5 6.5q-16 0 -29.5 -8t-23.5 -20.5t-15 -27t-5 -26.5
q0 -26 13 -37.5t27 -11.5q8 0 18 4t19.5 10.5t17 15.5t10.5 19q5 20 14 23t17 3q9 0 9 -13q0 -10 -1.5 -18t-4 -16.5t-5 -19t-4.5 -24.5q-2 -15 -2.5 -35.5t-0.5 -44.5q38 45 69.5 77t41.5 41q6 6 12.5 8.5t11.5 2.5q9 0 9 -7zM219 -176v36.5t-1 42.5q-17 -26 -26.5 -47.5
t-14.5 -41t-6.5 -37.5t-1.5 -36q0 -16 3 -28q2 -11 8 -20.5t16 -10.5q13 0 18 33.5t5 108.5z" />
    <glyph glyph-name="h" unicode="h" horiz-adv-x="330" 
d="M361 40q0 -6 -7 -19t-21 -26t-35.5 -22.5t-50.5 -9.5q-46 0 -76 28.5t-44 70.5q-3 6 -6 6q-2 0 -9 -5q-3 -3 -13 -15l-22 -26.5l-22.5 -26.5t-12.5 -15q-6 -6 -16 -6q-5 0 -8.5 2.5t-4.5 9.5q0 4 -1.5 23t-3 50t-3 73t-1.5 91q0 19 0.5 59t3.5 88.5t9 99.5t16.5 93t26 69
t37.5 27q36 0 50.5 -25t14.5 -66q0 -44 -13.5 -99.5t-33 -110t-40.5 -101t-36 -73.5q2 -57 4 -96t4 -39q5 0 14 10t20.5 24.5t23.5 31.5t24 32t22 25t17 10q13 0 23.5 -22t26 -48.5t40 -49t64.5 -22.5q8 0 15.5 1t12.5 4t7 3q4 0 4 -8zM108 512q0 25 -6.5 40t-23.5 15
q-12 0 -20 -23.5t-12.5 -62t-6.5 -87t-2 -98.5v-60q11 27 23.5 63t23 74t17.5 74.5t7 64.5z" />
    <glyph glyph-name="i" unicode="i" horiz-adv-x="234" 
d="M118 353q0 -25 -15.5 -42t-38.5 -17t-38.5 17t-15.5 42t15.5 42t38.5 17t38.5 -17t15.5 -42zM265 83q0 -11 -17.5 -32t-43 -41.5t-55.5 -35.5t-55 -15q-45 0 -69 33t-24 78q0 28 5 54.5t12.5 47.5t16.5 33.5t17 12.5q5 -1 6.5 -6.5t1.5 -13.5q0 -17 4 -40.5t15 -44.5
t30 -35.5t49 -14.5q20 0 39.5 8.5t35.5 21.5q4 3 8.5 5.5t9.5 2.5q10 0 12 -5t2 -13z" />
    <glyph glyph-name="j" unicode="j" horiz-adv-x="228" 
d="M138 353q0 -25 -15.5 -42t-38.5 -17t-38.5 17t-15.5 42t15.5 42t38.5 17t38.5 -17t15.5 -42zM224 -14q0 -9 -7 -22.5t-17.5 -26t-21 -21.5t-18.5 -9t-13 13q-14 22 -23.5 35.5t-23.5 18.5q1 -34 2.5 -66.5t2.5 -66l2 -70t1 -79.5q0 -30 -7.5 -48t-18.5 -28t-25 -13.5
t-27 -3.5q-18 0 -37 10.5t-35 31t-26.5 50.5t-10.5 69q0 46 11.5 87.5t31 76t46 61t57.5 42.5q-2 32 -2 63v63v11q0 6 -3 6t-8 -6q-10 -12 -21 -12q-10 0 -10 8q0 6 7 13q11 13 17.5 28.5l12 28.5t10.5 22t12 9q12 0 17.5 -10t5.5 -20q0 -8 -4.5 -19.5t-4.5 -29.5v-75.5
t1 -66.5q17 6 34.5 9.5t35.5 3.5q23 0 40 -19t17 -48zM75 -242q0 53 -2 107.5l-4 111.5q-17 -2 -33.5 -10t-30 -22t-22 -33t-8.5 -41q0 -21 5.5 -49.5t15.5 -54t25.5 -43t34.5 -17.5q7 0 10.5 6t5.5 14t2.5 16.5t0.5 14.5z" />
    <glyph glyph-name="k" unicode="k" horiz-adv-x="271" 
d="M209 276q0 -7 -4.5 -20t-11.5 -25.5t-15.5 -21.5t-16.5 -9q-6 0 -8 3t-4 6.5t-6.5 6.5t-14.5 3q-31 0 -49 -26.5t-27.5 -63t-12.5 -73.5t-3 -58q0 -18 -7 -24t-20 -6q-5 0 -5 9q2 37 3 78t1 85v142q0 71 2.5 136t11 115t25 80t45.5 30t41.5 -24t12.5 -62q0 -43 -12 -97.5
t-29 -108.5t-35.5 -99.5t-31.5 -70.5v-6q0 -12 4 -12q2 0 3 1.5t2 2.5q9 26 22 54t29 50.5t35.5 37t40.5 14.5q22 0 28.5 -15t6.5 -32zM316 103q0 -11 -14 -35t-37.5 -48t-53 -42.5t-60.5 -18.5q-14 0 -29.5 7t-29 20.5t-22 33.5t-8.5 47q0 21 4 41t9.5 35.5t11.5 24.5t9 9
q4 -2 4.5 -7t0.5 -13q0 -5 7 -19t20.5 -29t32.5 -26.5t44 -11.5q21 0 37.5 7.5t27.5 15.5q13 10 23 22q5 6 10 6t9 -5.5t4 -13.5zM103 496q0 22 -6.5 39t-15.5 17q-6 0 -13.5 -9t-14.5 -30.5t-11.5 -56.5t-4.5 -88v-139q10 25 21.5 59t21.5 70.5t16.5 72.5t6.5 65z" />
    <glyph glyph-name="l" unicode="l" horiz-adv-x="256" 
d="M297 82q0 -10 -17.5 -29t-43.5 -37.5t-55.5 -32t-52.5 -13.5q-33 0 -56 13t-38 34t-23.5 47.5t-12.5 54t-5 53.5t-1 45q0 45 5 92.5t14 93.5t21.5 87t27.5 72t32.5 49.5t36.5 19.5q6 0 12 -2t11.5 -8t9 -18t3.5 -34q0 -130 -24.5 -221.5t-72.5 -156.5q8 -25 20 -47.5
t27.5 -39.5t36.5 -26.5t47 -9.5q17 0 34 7l32 13q4 2 7.5 3t8.5 1q6 0 11 -2.5t5 -7.5zM128 501q0 26 -7.5 39.5t-18.5 13.5q-16 0 -27 -22t-17.5 -52t-9.5 -60.5t-3 -47.5q0 -32 3 -70.5t11 -76.5q9 14 21 37t22.5 57.5t18 79.5t7.5 102z" />
    <glyph glyph-name="m" unicode="m" horiz-adv-x="658" 
d="M695 61q0 -4 -5 -9l-25.5 -23t-36 -30t-40 -26t-37.5 -11q-27 0 -51 18.5t-43.5 40.5t-34.5 40.5t-25 18.5q-11 0 -27 -18.5t-34 -41.5t-35.5 -41.5t-31.5 -18.5q-23 0 -30.5 17.5t-8.5 39t-1 39t-8 17.5q-9 0 -20 -16l-23.5 -34.5t-26 -34.5t-27.5 -16q-8 0 -20 20
l-26.5 44t-30 43.5t-30.5 19.5q-5 0 -5 5q0 8 11.5 24.5t26.5 33t30.5 29.5t24.5 13q11 0 23.5 -16t25 -35.5l24 -36t20.5 -16.5t20 13l23.5 28t26.5 28t27 13q21 0 29 -15.5t10.5 -33.5t3.5 -33.5t8 -15.5q9 0 22.5 15.5l29 34t31.5 34t29 15.5q14 0 31.5 -19.5l38.5 -43.5
t45.5 -43.5t52.5 -19.5q16 0 28 6t24 6q17 0 17 -8z" />
    <glyph glyph-name="n" unicode="n" horiz-adv-x="444" 
d="M470 28q0 -18 -10 -34t-26 -28t-35 -19t-36 -7q-30 0 -50.5 13t-33 33.5t-20 45t-12.5 46.5q-1 9 -6 9q-8 0 -23 -20l-33.5 -43.5t-39.5 -43.5t-41 -20q-27 3 -38 23.5t-17 43t-13 41t-26 18.5q0 7 9 21.5t21.5 29.5t27 26.5t25.5 11.5q21 0 27.5 -15t11 -33t12 -33
t28.5 -15q20 0 32.5 16.5t24 37t24 37t31.5 16.5q12 0 18 -12l18.5 -38t27.5 -44t36 -36t44 -15q14 0 18 3t12 3q7 0 9.5 -7t2.5 -12z" />
    <glyph glyph-name="o" unicode="o" horiz-adv-x="280" 
d="M312 167q0 -6 -6 -16t-15 -19.5t-19 -16.5t-18 -7q-9 -25 -26.5 -52.5t-40 -50t-49 -37t-53.5 -14.5q-33 0 -58.5 22t-25.5 72q0 21 10 47t26.5 49t37.5 39t42 16v4q0 23 15 36t37 13q42 0 62 -23.5t31 -56.5q3 -9 8 -9q8 0 15.5 5.5t18.5 5.5q8 0 8 -7zM223 105
q-51 0 -76 25.5t-29 59.5q-7 -5 -11.5 -19t-4.5 -31q0 -13 5 -26.5t13 -24.5t19 -18t23 -7q18 0 30 4.5t18.5 11.5t9.5 14t3 11z" />
    <glyph glyph-name="p" unicode="p" horiz-adv-x="316" 
d="M364 120q0 -13 -26 -40t-66 -56t-88.5 -54.5t-93.5 -35.5q-1 -19 -1.5 -40.5t-0.5 -38.5q0 -22 1 -35t2.5 -22.5t2.5 -17t1 -18.5q0 -12 -5 -16t-11 -7.5t-12 -3.5q-13 0 -14 20q-1 11 -1 34.5v50.5v42.5t1 46.5q-15 0 -26.5 8t-18.5 19t-10.5 23.5t-3.5 20.5q0 9 4.5 22
t13.5 25t21.5 21t28.5 9q0 6 1 22.5t2.5 36t2.5 38.5t1 29q0 6 -3 6t-8 -6q-5 -7 -11 -9.5t-11 -2.5q-9 0 -9 8q0 6 7 13q11 13 19 31.5t14.5 35t13 28t13.5 11.5q12 0 17.5 -10t5.5 -20q0 -7 -3 -20.5t-6 -30.5t-6 -37t-3 -40q0 -5 1.5 -8.5t3.5 -3.5q3 0 13 13.5t24 29.5
t31 29.5t34 13.5q32 0 53 -20t21 -65q0 -40 -10 -64.5t-23 -43.5q20 14 38.5 29l33.5 28q18 15 33 29q12 0 12 -7zM206 52q0 19 -6 34t-15.5 26t-21 17t-21.5 6q-9 0 -15.5 -9t-11.5 -24t-8.5 -33.5t-5.5 -36.5q11 -13 25 -22t36 -9q16 0 36 10q8 24 8 41z" />
    <glyph glyph-name="q" unicode="q" horiz-adv-x="364" 
d="M388 71q0 -16 -15.5 -32.5t-36 -30.5t-41 -24.5t-29.5 -13.5l4.5 -12t10 -29.5t10 -38t4.5 -36.5q0 -25 -1.5 -51.5t-7 -49t-16.5 -37t-30 -14.5q-18 0 -29.5 13.5t-17.5 36t-8.5 51t-2.5 59.5q0 48 3 92.5t3 72.5q0 29 -6 29q-9 0 -16.5 -12.5t-19.5 -28t-31.5 -28
t-52.5 -12.5q-30 0 -44 17t-14 43q0 31 17 69.5t46 72.5t67.5 57t81.5 23q13 0 13 -9q0 -17 -20 -32t-43.5 -28t-43.5 -25.5t-20 -24.5q0 -8 2.5 -18t8 -19t14.5 -15t21 -6q20 0 37 15t19 29q2 9 6 29t11.5 40t19 35t29.5 15q7 -1 9.5 -6t2.5 -12q0 -11 -7 -26t-15.5 -30.5
t-17 -29t-11.5 -21.5q-7 -16 -7 -32q0 -9 3 -9q2 0 7 4l16.5 14.5t20.5 8.5q8 0 14 -5t12 -11.5t13.5 -11.5t18.5 -5q8 0 18 3.5t24 13.5q10 -3 13.5 -7.5t3.5 -9.5z" />
    <glyph glyph-name="r" unicode="r" horiz-adv-x="216" 
d="M275 181q0 -6 -11 -20.5t-27 -29t-32.5 -26t-28.5 -11.5q-11 0 -18 5.5t-12 11.5t-9 11.5t-10 5.5q-13 0 -18 -6.5t-5 -17.5q0 -12 5 -28.5t11.5 -32.5t11.5 -30t5 -21q0 -22 -22 -32.5t-46 -10.5q-20 0 -36 7.5t-16 22.5l28 121q0 14 -7.5 22.5t-26.5 8.5q-4 0 -11.5 -1
t-15.5 -1t-13 2t-5 7t9.5 20t24 31.5t32 29t33.5 12.5q12 0 21 -6.5t11 -17.5q1 -5 1.5 -13t1.5 -15q1 -8 2 -17l2 -2q2 -2 5 -2t11 10t20 22.5t27 22.5t32 10q22 0 31 -11t20 -21q1 1 4 2t10 1q11 0 11 -13z" />
    <glyph glyph-name="s" unicode="s" horiz-adv-x="317" 
d="M362 104q0 -5 -1 -8q-14 -33 -40.5 -59t-59 -44t-67 -27.5t-64.5 -9.5q-42 0 -69.5 20t-27.5 64q0 6 8.5 16.5t20 20.5t22 18t13.5 10q8 6 12 6q5 0 10 -7q3 -5 9.5 -14.5t15.5 -19.5t20.5 -17t25.5 -7q8 0 11 5t3 12q0 24 -10 43t-23.5 32.5t-27.5 20.5t-22 7
q-5 0 -10 -6l-8.5 -8.5l-11 -11.5t-10.5 -10.5t-7 -6.5t-5 -5.5t-8 -3.5q-3 0 -7 2q-8 4 -8 11l34 41l37 43t33.5 33.5t22.5 13.5q13 0 30.5 -10t33 -26.5t26 -37t10.5 -40.5q0 -30 -5.5 -50.5t-5.5 -24.5q0 -5 2 -5q12 0 24.5 7.5t23.5 16.5l24 23q7 7 14 7q12 0 12 -14z
" />
    <glyph glyph-name="t" unicode="t" horiz-adv-x="238" 
d="M440 485q0 -11 -14 -18l-20.5 -9.5l-23 -10.5t-20.5 -8t-13 -3t-5.5 1.5t-4.5 3t-7.5 3t-14.5 1.5q-1 0 -19 -4.5t-47 -12.5t-68 -20.5l-84 -27.5q-5 -35 -14.5 -65t-20.5 -47q1 -31 4 -66.5t15 -65t35.5 -49.5t64.5 -20q19 0 35.5 8.5t30.5 21.5q6 6 10 6q8 0 8 -13
q0 -22 -16 -44.5t-40.5 -41t-53 -30t-53.5 -11.5q-31 0 -51 16t-31 40t-15 53t-4 55q0 8 0.5 29.5t2 52t3.5 67t6 73.5l-70 -29t-70 -32l-15 -7.5t-13 -3.5q-8 0 -13 11t-5 19t4 13q3 5 7.5 8t9.5 5q5 3 11 4q6 3 20.5 9l35.5 14.5l47.5 19l56.5 22.5q4 31 9.5 58.5t13 48.5
t17 33t20.5 12q14 0 20 -24t6 -59v-18t-1 -18l120.5 43.5t97.5 30.5q14 4 33 7t36 3q7 0 15.5 -1.5t15.5 -5t11.5 -10t4.5 -17.5z" />
    <glyph glyph-name="u" unicode="u" horiz-adv-x="447" 
d="M488 113q0 -7 -5 -16q-7 -14 -26 -36t-44 -42.5t-53.5 -35.5t-54.5 -15q-39 0 -57.5 27.5t-20.5 69.5q0 9 -4 9q-3 0 -14 -15t-29 -33.5t-42.5 -33.5t-55.5 -15q-33 0 -53 21.5t-20 50.5q0 19 5.5 46t14.5 51.5t20 42t22 17.5t17.5 -10t6.5 -19q0 -5 2.5 -18.5t10 -28
t22 -25.5t38.5 -11q19 0 33 10t23.5 24t16 28.5t9.5 23.5q3 8 8 20t16 12q8 -1 11.5 -6t5 -10.5t1.5 -10.5v-8q0 -14 6.5 -30t19 -30t31 -23.5t42.5 -9.5q23 0 39.5 6t30.5 20q11 12 20 12q7 0 7 -9z" />
    <glyph glyph-name="v" unicode="v" horiz-adv-x="274" 
d="M316 190q0 -11 -8 -22.5t-21 -22.5t-29 -20t-33 -14l-3 -3q-4 -4 -5 -7q-4 -15 -9.5 -38t-16 -44.5t-28.5 -37t-47 -15.5q-30 0 -46.5 17t-24.5 39.5t-10 45t-2 33.5q0 5 -1 10t-8 6q-6 0 -11 3q-5 2 -8.5 5.5t-3.5 9.5q0 8 5 15q3 4 7.5 11t8.5 14t7 13t4 9q3 5 10 12
t19 7q13 0 20.5 -9.5t12 -23.5t9 -30.5t11 -30.5t17.5 -23.5t29 -9.5q13 0 20.5 4.5t7.5 20.5q-6 4 -16 12.5t-19.5 19t-17 22.5t-7.5 22q0 12 7.5 28t17.5 30.5t20.5 24.5t15.5 10t8 -4t5.5 -9t3.5 -10t1 -7q0 -9 6 -19t17 -18.5t26.5 -14.5t35.5 -6q2 3 4 5q4 4 9 4
q6 -2 8 -5.5t2 -8.5z" />
    <glyph glyph-name="w" unicode="w" horiz-adv-x="450" 
d="M510 190q0 -21 -12.5 -39t-30.5 -30.5t-37 -19.5t-33 -7q-7 0 -10 1l-20.5 -33.5t-34 -48t-43.5 -43.5t-50 -19q-19 0 -30 7.5t-16.5 19t-7 26t-1.5 28.5q-2 5 -6 5t-6 -3q-20 -27 -48.5 -47t-62.5 -20q-36 0 -48 26.5t-12 62.5q0 26 6.5 57t17 59t24.5 46.5t28 18.5
q7 0 9.5 -5t2.5 -13q0 -9 -2 -18.5t-2 -20.5q0 -28 8 -45.5t18.5 -27.5t21 -13.5t14.5 -3.5q30 0 45.5 12.5t24.5 27.5t16 28t20 13q6 -1 6 -9q0 -5 -1.5 -12t-1.5 -16q0 -8 2.5 -17.5t9 -18t17 -14t26.5 -5.5q22 0 36 11.5t14 22.5q0 3 -5 7.5t-10.5 13t-10.5 20t-5 27.5
q0 20 6 39t15.5 34t21 24.5t21.5 9.5q14 0 20 -14.5t12 -31.5t16.5 -31.5t33.5 -14.5q3 0 11 4.5t14 4.5q9 0 9 -15z" />
    <glyph glyph-name="x" unicode="x" horiz-adv-x="305" 
d="M327 57q0 -3 -9 -16.5t-25.5 -27.5t-38.5 -25.5t-48 -11.5q-30 0 -60.5 19t-56.5 48l-28 -32.5t-27 -34.5q-3 -3 -7.5 -8t-11.5 -5t-11 5.5t-4 10.5t3 10q3 6 20 27t47 52q-20 29 -32 61.5t-12 63.5q0 9 9 21.5t21 24.5t25 20.5t21 8.5q9 -2 12 -8t8 -17q2 -6 14.5 -31.5
t32.5 -54.5l33.5 25.5l36.5 26.5q9 6 17 6q13 0 13 -11q0 -8 -12 -17q-5 -3 -24 -17t-47 -37q22 -29 49.5 -50.5t57.5 -21.5q11 0 18 4q4 2 6 2q10 0 10 -10z" />
    <glyph glyph-name="y" unicode="y" horiz-adv-x="336" 
d="M391 112q0 -7 -9 -15q-17 -14 -34.5 -32l-36.5 -38q-9 -9 -17 -18t-16 -17l2 -79t1 -74q0 -55 -3 -101t-12 -79.5t-24.5 -52.5t-41.5 -19q-20 0 -36.5 11.5t-28 29.5t-17.5 40t-6 43q0 49 11.5 89t31 74t45 63.5t52.5 56.5q-1 27 -1.5 47t-0.5 28q0 3 -0.5 7t-4.5 4
q-6 0 -13 -10l-38 -39.5t-33 -29.5t-32 -18.5t-36 -6.5q-41 0 -67 28t-26 85q0 27 6 52.5t15 45t19.5 31.5t18.5 12q12 0 12 -11q0 -5 -2 -17.5t-2 -22.5q0 -21 7.5 -40t21 -33t31 -22t38.5 -8q22 1 37.5 9t26.5 18q12 11 21 26q1 28 6 46.5t12 29.5t14 15.5t11 4.5h3
q8 -3 9.5 -12.5t1.5 -19.5q0 -5 -4.5 -14l-10.5 -20q-7 -12 -16 -26v-57.5t1 -56.5l45 44t41 46q13 10 21 10q7 0 7 -7zM253 -102v31.5t-1 30.5q-31 -42 -47 -80t-16 -73q0 -15 2 -33.5t6.5 -35t12 -27.5t19.5 -11q7 0 11.5 17.5t7.5 45.5t4 63.5t1 71.5z" />
    <glyph glyph-name="z" unicode="z" horiz-adv-x="284" 
d="M316 60q-2 -5 -17.5 -15l-31.5 -21l-33 -24q6 -21 6 -42q0 -20 -4.5 -54t-14 -73.5t-24 -80.5t-34.5 -74t-45 -54t-56 -21q-29 0 -45 23.5t-16 50.5q0 38 12.5 76t33 74t47 69.5t55.5 62.5q-13 25 -31 39t-40 14q-13 0 -20.5 -3t-12.5 -7l-9 -7t-11 -3q-8 0 -8 10
q0 9 6 15l22.5 22t29 30.5t25 34t10.5 32.5q0 13 -8.5 24t-22.5 11q-7 0 -19.5 -5t-18.5 -5q-11 0 -11 9q0 14 15 28.5t35.5 26.5t43 19.5t37.5 7.5q20 0 32 -12.5t12 -31.5q0 -12 -5.5 -26t-14 -28t-18.5 -27t-19 -23q-2 -2 -2 -5q0 -4 4.5 -6t9.5 -2q23 -5 39.5 -23
t26.5 -41l35.5 25.5t30.5 19.5q8 4 11 4q6 0 9.5 -4.5t3.5 -9.5zM176 -162q0 27 -4 51t-12 45q-33 -35 -52.5 -73.5t-19.5 -83.5q0 -36 13 -56.5t27 -20.5q13 0 22 16t15 38t8.5 45.5t2.5 38.5z" />
    <glyph glyph-name="braceleft" unicode="{" horiz-adv-x="308" 
d="M392 -102q0 -22 -16 -44.5t-40.5 -41t-53 -30t-53.5 -11.5q-28 0 -46.5 12t-29 33t-14.5 49t-4 60q0 28 2 59t5 61.5t5 59.5t2 55q0 47 -11 76.5t-44 29.5q-30 0 -45.5 18t-15.5 40t15.5 40t45.5 18q33 0 44 29.5t11 76.5q0 26 -2 55t-5 59t-5 61t-2 59q0 32 4 60.5
t14.5 49.5t29 33t46.5 12q31 0 53.5 -6.5t37 -17t21.5 -23t7 -23.5q0 -14 -10 -24t-30 -10q-39 0 -62 -19t-35 -59.5t-16 -104t-4 -153.5q0 -45 -6.5 -75.5t-32.5 -37.5q25 -7 32.5 -37.5t7.5 -75.5q0 -28 -2.5 -64t-2.5 -74q0 -37 4.5 -72.5t17.5 -63.5t36.5 -45t62.5 -17
q19 0 35.5 8.5t30.5 21.5q6 6 10 6q8 0 8 -13z" />
    <glyph glyph-name="bar" unicode="|" horiz-adv-x="168" 
d="M110 -119q0 -21 -20 -21q-27 0 -34.5 5.5t-7.5 26.5q0 28 1 86t2 130.5t3 151t3 148t2 121.5t1 71q0 38 -5.5 68.5t-10.5 53.5q2 14 14.5 27.5t22.5 13.5q5 0 9 -5.5t6.5 -28t4 -66.5t1.5 -121v-86t-0.5 -109t-0.5 -117.5t-0.5 -111t-0.5 -90v-54.5q0 -31 5 -54.5
t5 -38.5z" />
    <glyph glyph-name="braceright" unicode="}" horiz-adv-x="262" 
d="M349 324q0 -22 -15 -40t-46 -18q-33 0 -44 -29.5t-11 -76.5q0 -26 2 -55t5 -59.5t5 -61.5t2 -59q0 -32 -4 -60t-14.5 -49t-28.5 -33t-47 -12q-25 0 -53.5 11.5t-53 30t-40.5 41t-16 44.5q0 13 8 13q4 0 10 -6q14 -13 30.5 -21.5t35.5 -8.5q39 0 62.5 17t36.5 45
t17.5 63.5t4.5 72.5q0 38 -2.5 74t-2.5 64q0 45 7.5 75.5t32.5 37.5q-26 7 -32.5 37.5t-6.5 75.5q0 90 -4 153.5t-16 104t-35 59.5t-62 19q-20 0 -30 10t-10 24q0 11 7 23.5t21.5 23t37 17t53.5 6.5q29 0 47 -12t28.5 -33t14.5 -49.5t4 -60.5q0 -28 -2 -59t-5 -61t-5 -59
t-2 -55q0 -47 11 -76.5t44 -29.5q31 0 46 -18t15 -40z" />
    <glyph glyph-name="Adieresis" unicode="&#xc4;" horiz-adv-x="764" 
d="M545 829q0 -25 -15.5 -42t-38.5 -17t-38.5 17t-15.5 42t15.5 42t38.5 17t38.5 -17t15.5 -42zM405 829q0 -25 -15.5 -42t-38.5 -17t-38.5 17t-15.5 42t15.5 42t38.5 17t38.5 -17t15.5 -42zM764 104q0 -28 -19 -55t-47.5 -48.5t-62.5 -34t-65 -12.5q-32 0 -52 13
t-31.5 33.5t-15.5 45.5t-4 50q0 36 4.5 68.5t10 59.5t10 46t4.5 26q0 4 -3 4q-5 0 -10 -9q-29 -72 -70 -133.5t-87 -106t-93.5 -70t-89.5 -25.5q-35 0 -66 14.5t-51 49.5q-14 25 -19.5 52.5t-5.5 53.5q0 63 23.5 133.5t64 139t95 131.5t117 110.5t129.5 76t133 28.5
q23 0 39.5 -6t26.5 -15t14.5 -20t4.5 -22q0 -21 -8.5 -36t-19.5 -24.5t-22 -14.5t-16 -5t-9.5 3t-5.5 11q-1 12 -10 24t-22 21.5t-29 15t-31 5.5q-42 0 -84 -21t-79.5 -55.5t-70 -78.5t-56.5 -90.5t-37.5 -91t-13.5 -80.5q0 -28 6.5 -54.5t20 -46.5t35 -32.5t50.5 -12.5
q28 0 54 13.5t50 35t46 49.5t41 57q23 34 42.5 76.5t35 80.5t25.5 66.5t13 34.5q4 10 11 15.5t15 5.5q9 0 14.5 -5.5t5.5 -13.5q0 -7 -3 -16q-18 -66 -23.5 -112.5t-5.5 -93.5q0 -45 8.5 -85t24 -70t38 -48t50.5 -18q18 0 31.5 7t18.5 11q8 6 14 6q5 0 8.5 -3t3.5 -8z" />
    <glyph glyph-name="Aring" unicode="&#xc5;" horiz-adv-x="764" 
d="M498 841q0 -32 -19.5 -53.5t-48.5 -21.5t-48.5 21.5t-19.5 53.5t19.5 53.5t48.5 21.5t48.5 -21.5t19.5 -53.5zM764 104q0 -28 -19 -55t-47.5 -48.5t-62.5 -34t-65 -12.5q-32 0 -52 13t-31.5 33.5t-15.5 45.5t-4 50q0 36 4.5 68.5t10 59.5t10 46t4.5 26q0 4 -3 4
q-5 0 -10 -9q-29 -72 -70 -133.5t-87 -106t-93.5 -70t-89.5 -25.5q-35 0 -66 14.5t-51 49.5q-14 25 -19.5 52.5t-5.5 53.5q0 63 23.5 133.5t64 139t95 131.5t117 110.5t129.5 76t133 28.5q23 0 39.5 -6t26.5 -15t14.5 -20t4.5 -22q0 -21 -8.5 -36t-19.5 -24.5t-22 -14.5
t-16 -5t-9.5 3t-5.5 11q-1 12 -10 24t-22 21.5t-29 15t-31 5.5q-42 0 -84 -21t-79.5 -55.5t-70 -78.5t-56.5 -90.5t-37.5 -91t-13.5 -80.5q0 -28 6.5 -54.5t20 -46.5t35 -32.5t50.5 -12.5q28 0 54 13.5t50 35t46 49.5t41 57q23 34 42.5 76.5t35 80.5t25.5 66.5t13 34.5
q4 10 11 15.5t15 5.5q9 0 14.5 -5.5t5.5 -13.5q0 -7 -3 -16q-18 -66 -23.5 -112.5t-5.5 -93.5q0 -45 8.5 -85t24 -70t38 -48t50.5 -18q18 0 31.5 7t18.5 11q8 6 14 6q5 0 8.5 -3t3.5 -8zM463 844q0 12 -9 21t-21 9t-24 -11.5t-12 -24.5q0 -12 9 -21t21 -9q13 0 24.5 11.5
t11.5 24.5z" />
    <glyph glyph-name="Ccedilla" unicode="&#xc7;" horiz-adv-x="493" 
d="M657 681q0 -26 -10.5 -58.5t-28.5 -66t-42.5 -65.5t-53 -57t-58.5 -40.5t-60 -15.5q-11 0 -17 4t-9 9.5t-3.5 11t-0.5 7.5q0 11 7.5 27.5t19.5 31.5t26 26t27 11q8 0 8.5 -7t1 -16t4 -16t18.5 -7q24 0 42 17.5t31 42t19.5 50t6.5 41.5q0 29 -10.5 49t-27 33t-36.5 18.5
t-40 5.5q-39 0 -80.5 -20t-81 -52.5t-74.5 -74t-61 -84.5t-41.5 -83.5t-15.5 -71.5q0 -68 16.5 -113t42 -72t57 -38t62.5 -11q32 0 58 7t45.5 16.5t31.5 19t16 13.5q11 12 21 12q5 0 8 -3q3 -4 3 -9q0 -11 -8 -19q-15 -21 -36 -42.5t-46 -41.5t-53 -38t-58 -30q-1 -2 -1 -7
q0 -10 4.5 -14t10.5 -6.5t10.5 -6t4.5 -12.5t-4.5 -18.5t-16 -17.5t-32 -13t-53.5 -5q-14 0 -14 11q0 3 8.5 5t19 5t19 7.5t8.5 12.5t-3 13.5t-6.5 9.5t-6.5 8t-3 10q-25 -6 -49 -6q-79 0 -126 50t-47 141q0 81 27 159t72.5 148.5t103.5 130t120.5 103t124 68t112.5 24.5
q52 0 74.5 -29.5t22.5 -71.5z" />
    <glyph glyph-name="Eacute" unicode="&#xc9;" horiz-adv-x="472" 
d="M388 887q0 -21 -13.5 -36t-33.5 -25.5t-44 -16.5t-45 -9.5t-36 -4.5t-18 -1q-15 0 -15 12q0 14 26 23q47 16 65.5 33t26.5 30.5t16 22.5t34 9q20 0 28.5 -13t8.5 -24zM569 756q0 -20 -17 -38t-39.5 -31.5t-43 -21t-28.5 -7.5q-7 1 -10 1.5t-3 6.5t2.5 10.5t2.5 9.5
q0 10 -6 17t-15 11t-18.5 5.5t-15.5 1.5q-33 0 -77.5 -16.5t-85 -40.5t-69.5 -51t-29 -48q0 -19 11.5 -33t29.5 -26.5t39.5 -23.5t40 -23t30.5 -26t12 -32q0 -24 -11 -43t-27.5 -34.5t-36 -30.5t-36 -31.5t-27.5 -37t-11 -47.5q0 -18 8.5 -33.5t22 -27.5t30.5 -18.5t35 -6.5
q43 0 79 14.5t65.5 35t52.5 44t39 41.5q7 7 13 7q5 0 8 -2.5t5 -4.5q5 -7 5 -15q0 -13 -16 -36.5t-43.5 -51t-64.5 -56.5t-78.5 -52.5t-86 -38.5t-87.5 -15q-24 0 -45 6.5t-37.5 20t-26 33.5t-9.5 46q0 32 12 60t30.5 52.5t40 46l40 39t30.5 32t12 25.5q0 16 -12 26.5
t-29.5 20t-38.5 18.5t-38.5 21t-29.5 29t-12 42q0 42 30 83t76.5 78t104 68.5t112.5 54.5t101.5 36t70.5 13q33 0 51 -16.5t18 -39.5z" />
    <glyph glyph-name="Ntilde" unicode="&#xd1;" horiz-adv-x="543" 
d="M514 825q0 -8 -9 -17t-22 -17t-28.5 -13t-28.5 -5q-20 0 -33 4t-24 9t-22 9t-27 4h-11t-13 -2q-3 0 -6.5 1.5t-4.5 6.5q0 8 9 17t22 17t28 13.5t28 5.5q20 0 33.5 -4t25 -9.5t22.5 -9.5t27 -4h10.5t12.5 2q3 0 6.5 -1.5t4.5 -6.5zM674 738q0 -5 -4 -10q-25 -28 -51.5 -80
t-51.5 -115t-46.5 -129.5t-36.5 -125.5q8 -48 13 -95t5 -94q0 -11 -2.5 -33t-9 -44t-17 -38t-27.5 -16q-14 0 -23 10t-14 26.5t-7 37t-2 41.5q0 41 5.5 68t5.5 38q0 17 -11 59.5t-30.5 96.5t-47 112t-61 106.5t-72 80t-79.5 31.5q-16 0 -32 -8.5t-30 -29.5q-8 -8 -14 -17.5
t-12 -9.5q-2 0 -3 1q-7 5 -13 16q-4 6 -6 13q11 14 32.5 36t50 42t61 34.5t64.5 14.5q37 0 74 -31.5t71.5 -85t63.5 -124.5t49 -151l19 72t24 79t33.5 90t49.5 105q3 6 17.5 18.5t52.5 17.5q4 0 8 -2t4 -7zM189 -4q0 -6 -4 -13t-10.5 -12.5t-14.5 -9t-15 -3.5q-18 0 -20 23
q-1 11 -2.5 51t-1.5 90q0 23 1.5 63.5t4 89t5.5 100t6 96t6 77.5t6 44l3.5 4.5l8 10t9.5 9.5t10 4q7 0 7 -9q-1 -8 -3 -32t-4 -58t-4 -75t-3.5 -81.5t-2.5 -77.5t-1 -65q0 -34 3 -68.5t6.5 -65l6.5 -55t3 -37.5z" />
    <glyph glyph-name="Odieresis" unicode="&#xd6;" 
d="M482 919q0 -25 -15.5 -42t-38.5 -17t-38.5 17t-15.5 42t15.5 42t38.5 17t38.5 -17t15.5 -42zM342 919q0 -25 -15.5 -42t-38.5 -17t-38.5 17t-15.5 42t15.5 42t38.5 17t38.5 -17t15.5 -42zM614 354q0 -7 -9 -21.5t-25 -32.5t-37 -37.5t-47 -37.5q-30 -58 -67 -108.5
t-78.5 -88.5t-87 -60t-92.5 -22q-42 0 -73.5 18t-53.5 49t-33 73.5t-11 91.5q0 83 23 164.5t61 155t87.5 136.5t102 108.5t105 71.5t95.5 26q18 0 37.5 -15t19.5 -42q0 -16 -13.5 -37t-33.5 -31q27 0 47.5 -12t33.5 -32t19.5 -45t6.5 -51q0 -63 -16.5 -134.5t-45.5 -142.5
q31 21 47.5 42t20.5 25q3 3 5 3q5 0 8.5 -4.5t3.5 -9.5zM542 507q0 27 -6 53t-19 46.5t-32 33t-46 12.5q-33 0 -63 -20.5t-53 -52.5t-36.5 -72t-13.5 -79q0 -45 15.5 -76t37.5 -51t47 -29t44 -9q17 0 33 2.5t30 7.5q30 61 46 124t16 110zM456 713q-1 1 -1 5q0 26 -11.5 35
t-39.5 9q-33 0 -69 -20t-69.5 -54t-63.5 -79t-53 -94t-36 -99t-13 -95q0 -34 7.5 -74.5t26.5 -74.5t51.5 -57t83.5 -23q47 0 87 27t72 70q-40 -17 -79 -17q-37 0 -66 16.5t-48 41.5t-29 55.5t-10 57.5q0 49 19.5 109.5t54 115.5t82 95.5t104.5 49.5z" />
    <glyph glyph-name="Udieresis" unicode="&#xdc;" horiz-adv-x="744" 
d="M490 843q0 -25 -15.5 -42t-38.5 -17t-38.5 17t-15.5 42t15.5 42t38.5 17t38.5 -17t15.5 -42zM350 843q0 -25 -15.5 -42t-38.5 -17t-38.5 17t-15.5 42t15.5 42t38.5 17t38.5 -17t15.5 -42zM744 52q0 -11 -14 -29.5t-38.5 -36t-58.5 -30.5t-74 -13q-23 0 -46.5 12t-45.5 35
t-41 57t-32 79q-48 -69 -108.5 -112t-132.5 -43q-46 0 -75.5 20.5t-47 54t-24 77t-6.5 88.5q0 67 11.5 142t30 145.5t42 131t47.5 99.5q2 4 12 12.5t27 8.5q9 0 9 -10q0 -6 -3 -15q-9 -18 -21.5 -48t-24.5 -73.5t-20 -101t-8 -131.5q0 -13 1 -38.5t5.5 -55t13.5 -60.5
t25 -56t40.5 -41t58.5 -16q40 0 74 19t62 51q-5 29 -9 61.5t-2 67.5q5 95 19.5 176t34.5 140.5t45 93t52 33.5q20 0 29.5 -27.5t9.5 -74.5q0 -36 -5.5 -80t-16.5 -92t-27 -99t-37 -100q12 -43 29.5 -83.5t41.5 -71t54.5 -49t67.5 -18.5q12 0 20 4t14 8.5l11.5 8.5t11.5 4
q8 0 13.5 -8t5.5 -16zM511 562q-1 6 -1.5 20.5t-2 29t-6 25.5t-14.5 11q-11 0 -18.5 -14t-12.5 -38t-7.5 -55.5t-2.5 -66.5q0 -34 4 -74.5t14 -83.5q23 63 35 127.5t12 118.5z" />
    <glyph glyph-name="aacute" unicode="&#xe1;" horiz-adv-x="358" 
d="M301 373q0 -21 -13.5 -36t-33.5 -25.5t-44 -16.5t-45 -9.5t-36 -4.5t-18 -1q-15 0 -15 12q0 14 26 23q47 16 65.5 33t26.5 30.5t16 22.5t34 9q20 0 28.5 -13t8.5 -24zM389 67q0 -5 -6 -14l-28.5 -34.5t-33.5 -34t-37.5 -25.5t-41.5 -10q-19 0 -29.5 8.5t-15.5 21t-6 27.5
t-1 28q0 4 -5 4q-6 0 -17 -12t-27 -27t-34.5 -27t-39.5 -12q-30 0 -48.5 18t-18.5 46q0 53 26.5 94.5t62 70.5t70.5 44t53 15q40 -1 53 -16t13 -31q0 -17 -14 -32t-28 -15q-9 0 -16 6.5l-15 14.5t-18.5 14.5t-27.5 6.5q-26 0 -41.5 -20.5t-15.5 -52.5q0 -52 55 -52
q24 0 36.5 11t20.5 23.5t14 23.5t17 11q8 0 10 -3.5t2 -8.5q0 -7 -2 -14.5t-2 -13.5q0 -8 4 -18t10.5 -18.5t16 -14.5t21.5 -6q17 0 30 9.5l20 14.5q9 9 22 9q12 0 12 -9z" />
    <glyph glyph-name="agrave" unicode="&#xe0;" horiz-adv-x="358" 
d="M265 300q0 -12 -15 -12q-3 0 -17 0.5t-33 3t-41 7.5t-40.5 14.5t-30.5 24t-12 35.5q0 11 8.5 24t28.5 13q25 0 33 -9t15.5 -22.5t23 -28.5t54.5 -27q26 -8 26 -23zM389 67q0 -5 -6 -14l-28.5 -34.5t-33.5 -34t-37.5 -25.5t-41.5 -10q-19 0 -29.5 8.5t-15.5 21t-6 27.5
t-1 28q0 4 -5 4q-6 0 -17 -12t-27 -27t-34.5 -27t-39.5 -12q-30 0 -48.5 18t-18.5 46q0 53 26.5 94.5t62 70.5t70.5 44t53 15q40 -1 53 -16t13 -31q0 -17 -14 -32t-28 -15q-9 0 -16 6.5l-15 14.5t-18.5 14.5t-27.5 6.5q-26 0 -41.5 -20.5t-15.5 -52.5q0 -52 55 -52
q24 0 36.5 11t20.5 23.5t14 23.5t17 11q8 0 10 -3.5t2 -8.5q0 -7 -2 -14.5t-2 -13.5q0 -8 4 -18t10.5 -18.5t16 -14.5t21.5 -6q17 0 30 9.5l20 14.5q9 9 22 9q12 0 12 -9z" />
    <glyph glyph-name="acircumflex" unicode="&#xe2;" horiz-adv-x="358" 
d="M311 308q0 -8 -13 -13t-36 -5q-5 0 -29.5 5.5t-53.5 30.5q-29 -25 -53.5 -30.5t-29.5 -5.5q-23 0 -36 5t-13 13q0 11 29 21q27 10 40 24t21.5 26.5t16.5 21.5t25 9t25 -9t16.5 -21.5t21.5 -26.5t40 -24q29 -10 29 -21zM389 67q0 -5 -6 -14l-28.5 -34.5t-33.5 -34
t-37.5 -25.5t-41.5 -10q-19 0 -29.5 8.5t-15.5 21t-6 27.5t-1 28q0 4 -5 4q-6 0 -17 -12t-27 -27t-34.5 -27t-39.5 -12q-30 0 -48.5 18t-18.5 46q0 53 26.5 94.5t62 70.5t70.5 44t53 15q40 -1 53 -16t13 -31q0 -17 -14 -32t-28 -15q-9 0 -16 6.5l-15 14.5t-18.5 14.5
t-27.5 6.5q-26 0 -41.5 -20.5t-15.5 -52.5q0 -52 55 -52q24 0 36.5 11t20.5 23.5t14 23.5t17 11q8 0 10 -3.5t2 -8.5q0 -7 -2 -14.5t-2 -13.5q0 -8 4 -18t10.5 -18.5t16 -14.5t21.5 -6q17 0 30 9.5l20 14.5q9 9 22 9q12 0 12 -9z" />
    <glyph glyph-name="adieresis" unicode="&#xe4;" horiz-adv-x="358" 
d="M303 353q0 -25 -15.5 -42t-38.5 -17t-38.5 17t-15.5 42t15.5 42t38.5 17t38.5 -17t15.5 -42zM163 353q0 -25 -15.5 -42t-38.5 -17t-38.5 17t-15.5 42t15.5 42t38.5 17t38.5 -17t15.5 -42zM389 67q0 -5 -6 -14l-28.5 -34.5t-33.5 -34t-37.5 -25.5t-41.5 -10
q-19 0 -29.5 8.5t-15.5 21t-6 27.5t-1 28q0 4 -5 4q-6 0 -17 -12t-27 -27t-34.5 -27t-39.5 -12q-30 0 -48.5 18t-18.5 46q0 53 26.5 94.5t62 70.5t70.5 44t53 15q40 -1 53 -16t13 -31q0 -17 -14 -32t-28 -15q-9 0 -16 6.5l-15 14.5t-18.5 14.5t-27.5 6.5q-26 0 -41.5 -20.5
t-15.5 -52.5q0 -52 55 -52q24 0 36.5 11t20.5 23.5t14 23.5t17 11q8 0 10 -3.5t2 -8.5q0 -7 -2 -14.5t-2 -13.5q0 -8 4 -18t10.5 -18.5t16 -14.5t21.5 -6q17 0 30 9.5l20 14.5q9 9 22 9q12 0 12 -9z" />
    <glyph glyph-name="atilde" unicode="&#xe3;" horiz-adv-x="358" 
d="M293 349q0 -8 -9 -17t-22 -17t-28.5 -13t-28.5 -5q-20 0 -33 4t-24 9t-22 9t-27 4h-11t-13 -2q-3 0 -6.5 1.5t-4.5 6.5q0 8 9 17t22 17t28 13.5t28 5.5q20 0 33.5 -4t25 -9.5t22.5 -9.5t27 -4h10.5t12.5 2q3 0 6.5 -1.5t4.5 -6.5zM389 67q0 -5 -6 -14l-28.5 -34.5
t-33.5 -34t-37.5 -25.5t-41.5 -10q-19 0 -29.5 8.5t-15.5 21t-6 27.5t-1 28q0 4 -5 4q-6 0 -17 -12t-27 -27t-34.5 -27t-39.5 -12q-30 0 -48.5 18t-18.5 46q0 53 26.5 94.5t62 70.5t70.5 44t53 15q40 -1 53 -16t13 -31q0 -17 -14 -32t-28 -15q-9 0 -16 6.5l-15 14.5
t-18.5 14.5t-27.5 6.5q-26 0 -41.5 -20.5t-15.5 -52.5q0 -52 55 -52q24 0 36.5 11t20.5 23.5t14 23.5t17 11q8 0 10 -3.5t2 -8.5q0 -7 -2 -14.5t-2 -13.5q0 -8 4 -18t10.5 -18.5t16 -14.5t21.5 -6q17 0 30 9.5l20 14.5q9 9 22 9q12 0 12 -9z" />
    <glyph glyph-name="aring" unicode="&#xe5;" horiz-adv-x="358" 
d="M247 357q0 -32 -19.5 -53.5t-48.5 -21.5t-48.5 21.5t-19.5 53.5t19.5 53.5t48.5 21.5t48.5 -21.5t19.5 -53.5zM389 67q0 -5 -6 -14l-28.5 -34.5t-33.5 -34t-37.5 -25.5t-41.5 -10q-19 0 -29.5 8.5t-15.5 21t-6 27.5t-1 28q0 4 -5 4q-6 0 -17 -12t-27 -27t-34.5 -27
t-39.5 -12q-30 0 -48.5 18t-18.5 46q0 53 26.5 94.5t62 70.5t70.5 44t53 15q40 -1 53 -16t13 -31q0 -17 -14 -32t-28 -15q-9 0 -16 6.5l-15 14.5t-18.5 14.5t-27.5 6.5q-26 0 -41.5 -20.5t-15.5 -52.5q0 -52 55 -52q24 0 36.5 11t20.5 23.5t14 23.5t17 11q8 0 10 -3.5
t2 -8.5q0 -7 -2 -14.5t-2 -13.5q0 -8 4 -18t10.5 -18.5t16 -14.5t21.5 -6q17 0 30 9.5l20 14.5q9 9 22 9q12 0 12 -9zM212 360q0 12 -9 21t-21 9t-24 -11.5t-12 -24.5q0 -12 9 -21t21 -9q13 0 24.5 11.5t11.5 24.5z" />
    <glyph glyph-name="ccedilla" unicode="&#xe7;" horiz-adv-x="269" 
d="M283 70q0 -9 -8.5 -23t-23.5 -29t-37 -28.5t-49 -22.5q2 -6 7 -8.5l10 -5t8.5 -6t3.5 -11.5q0 -9 -4.5 -18.5t-16 -17.5t-32 -13t-53.5 -5q-14 0 -14 11q0 3 8.5 5t19 5t19 7.5t8.5 12.5q0 14 -7 20t-11 12q-5 -1 -8.5 -1h-7.5q-30 0 -49.5 7.5t-31.5 19.5t-17 28t-5 34
q0 34 16 71.5t43.5 69.5t64.5 53t79 21q19 0 30.5 -11.5t11.5 -28.5q0 -13 -7 -27t-17.5 -25.5t-24 -19t-25.5 -7.5q-3 0 -5 3t-2 5q0 5 2.5 8l5 6t5 7t2.5 11q0 13 -7.5 24t-16.5 11q-28 0 -43.5 -25.5t-15.5 -57.5q0 -36 20.5 -61t57.5 -25q28 0 46 5.5t29 11.5t18.5 11.5
t14.5 5.5q9 0 9 -9z" />
    <glyph glyph-name="eacute" unicode="&#xe9;" horiz-adv-x="241" 
d="M223 398q0 -21 -13.5 -36t-33.5 -25.5t-44 -16.5t-45 -9.5t-36 -4.5t-18 -1q-15 0 -15 12q0 14 26 23q47 16 65.5 33t26.5 30.5t16 22.5t34 9q20 0 28.5 -13t8.5 -24zM285 106q0 -6 -4 -14q-13 -21 -32 -45t-43 -43.5t-52.5 -32.5t-60.5 -13q-28 0 -47.5 7.5t-31.5 20.5
t-17.5 31t-5.5 38q0 37 15.5 78t40.5 76t56.5 58t62.5 23q11 0 21.5 -5t10.5 -21q0 -18 -5 -35t-17 -37.5t-31.5 -45t-49.5 -56.5q12 -18 30.5 -29t42.5 -11q31 0 49.5 15t35.5 35q14 15 24 15q8 0 8 -9zM134 203q0 26 -16 26q-13 0 -22 -7t-13.5 -17.5t-6.5 -22.5t-2 -21
q0 -26 8 -46q9 3 18.5 14.5t17 25.5t12 27.5t4.5 20.5z" />
    <glyph glyph-name="egrave" unicode="&#xe8;" horiz-adv-x="241" 
d="M207 338q0 -12 -15 -12q-3 0 -17 0.5t-33 3t-41 7.5t-40.5 14.5t-30.5 24t-12 35.5q0 11 8.5 24t28.5 13q25 0 33 -9t15.5 -22.5t23 -28.5t54.5 -27q26 -8 26 -23zM285 106q0 -6 -4 -14q-13 -21 -32 -45t-43 -43.5t-52.5 -32.5t-60.5 -13q-28 0 -47.5 7.5t-31.5 20.5
t-17.5 31t-5.5 38q0 37 15.5 78t40.5 76t56.5 58t62.5 23q11 0 21.5 -5t10.5 -21q0 -18 -5 -35t-17 -37.5t-31.5 -45t-49.5 -56.5q12 -18 30.5 -29t42.5 -11q31 0 49.5 15t35.5 35q14 15 24 15q8 0 8 -9zM134 203q0 26 -16 26q-13 0 -22 -7t-13.5 -17.5t-6.5 -22.5t-2 -21
q0 -26 8 -46q9 3 18.5 14.5t17 25.5t12 27.5t4.5 20.5z" />
    <glyph glyph-name="ecircumflex" unicode="&#xea;" horiz-adv-x="241" 
d="M263 330q0 -8 -13 -13t-36 -5q-5 0 -29.5 5.5t-53.5 30.5q-29 -25 -53.5 -30.5t-29.5 -5.5q-23 0 -36 5t-13 13q0 11 29 21q27 10 40 24t21.5 26.5t16.5 21.5t25 9t25 -9t16.5 -21.5t21.5 -26.5t40 -24q29 -10 29 -21zM285 106q0 -6 -4 -14q-13 -21 -32 -45t-43 -43.5
t-52.5 -32.5t-60.5 -13q-28 0 -47.5 7.5t-31.5 20.5t-17.5 31t-5.5 38q0 37 15.5 78t40.5 76t56.5 58t62.5 23q11 0 21.5 -5t10.5 -21q0 -18 -5 -35t-17 -37.5t-31.5 -45t-49.5 -56.5q12 -18 30.5 -29t42.5 -11q31 0 49.5 15t35.5 35q14 15 24 15q8 0 8 -9zM134 203
q0 26 -16 26q-13 0 -22 -7t-13.5 -17.5t-6.5 -22.5t-2 -21q0 -26 8 -46q9 3 18.5 14.5t17 25.5t12 27.5t4.5 20.5z" />
    <glyph glyph-name="edieresis" unicode="&#xeb;" horiz-adv-x="241" 
d="M245 373q0 -25 -15.5 -42t-38.5 -17t-38.5 17t-15.5 42t15.5 42t38.5 17t38.5 -17t15.5 -42zM105 373q0 -25 -15.5 -42t-38.5 -17t-38.5 17t-15.5 42t15.5 42t38.5 17t38.5 -17t15.5 -42zM285 106q0 -6 -4 -14q-13 -21 -32 -45t-43 -43.5t-52.5 -32.5t-60.5 -13
q-28 0 -47.5 7.5t-31.5 20.5t-17.5 31t-5.5 38q0 37 15.5 78t40.5 76t56.5 58t62.5 23q11 0 21.5 -5t10.5 -21q0 -18 -5 -35t-17 -37.5t-31.5 -45t-49.5 -56.5q12 -18 30.5 -29t42.5 -11q31 0 49.5 15t35.5 35q14 15 24 15q8 0 8 -9zM134 203q0 26 -16 26q-13 0 -22 -7
t-13.5 -17.5t-6.5 -22.5t-2 -21q0 -26 8 -46q9 3 18.5 14.5t17 25.5t12 27.5t4.5 20.5z" />
    <glyph glyph-name="iacute" unicode="&#xed;" horiz-adv-x="234" 
d="M180 370q0 -21 -13.5 -36t-33.5 -25.5t-44 -16.5t-45 -9.5t-36 -4.5t-18 -1q-15 0 -15 12q0 14 26 23q47 16 65.5 33t26.5 30.5t16 22.5t34 9q20 0 28.5 -13t8.5 -24zM265 83q0 -11 -17.5 -32t-43 -41.5t-55.5 -35.5t-55 -15q-45 0 -69 33t-24 78q0 28 5 54.5t12.5 47.5
t16.5 33.5t17 12.5q5 -1 6.5 -6.5t1.5 -13.5q0 -17 4 -40.5t15 -44.5t30 -35.5t49 -14.5q20 0 39.5 8.5t35.5 21.5q4 3 8.5 5.5t9.5 2.5q10 0 12 -5t2 -13z" />
    <glyph glyph-name="igrave" unicode="&#xec;" horiz-adv-x="234" 
d="M142 290q0 -12 -15 -12q-3 0 -17 0.5t-33 3t-41 7.5t-40.5 14.5t-30.5 24t-12 35.5q0 11 8.5 24t28.5 13q25 0 33 -9t15.5 -22.5t23 -28.5t54.5 -27q26 -8 26 -23zM265 83q0 -11 -17.5 -32t-43 -41.5t-55.5 -35.5t-55 -15q-45 0 -69 33t-24 78q0 28 5 54.5t12.5 47.5
t16.5 33.5t17 12.5q5 -1 6.5 -6.5t1.5 -13.5q0 -17 4 -40.5t15 -44.5t30 -35.5t49 -14.5q20 0 39.5 8.5t35.5 21.5q4 3 8.5 5.5t9.5 2.5q10 0 12 -5t2 -13z" />
    <glyph glyph-name="icircumflex" unicode="&#xee;" horiz-adv-x="234" 
d="M183 290q0 -8 -13 -13t-36 -5q-5 0 -29.5 5.5t-53.5 30.5q-29 -25 -53.5 -30.5t-29.5 -5.5q-23 0 -36 5t-13 13q0 11 29 21q27 10 40 24t21.5 26.5t16.5 21.5t25 9t25 -9t16.5 -21.5t21.5 -26.5t40 -24q29 -10 29 -21zM265 83q0 -11 -17.5 -32t-43 -41.5t-55.5 -35.5
t-55 -15q-45 0 -69 33t-24 78q0 28 5 54.5t12.5 47.5t16.5 33.5t17 12.5q5 -1 6.5 -6.5t1.5 -13.5q0 -17 4 -40.5t15 -44.5t30 -35.5t49 -14.5q20 0 39.5 8.5t35.5 21.5q4 3 8.5 5.5t9.5 2.5q10 0 12 -5t2 -13z" />
    <glyph glyph-name="idieresis" unicode="&#xef;" horiz-adv-x="234" 
d="M176 353q0 -25 -15.5 -42t-38.5 -17t-38.5 17t-15.5 42t15.5 42t38.5 17t38.5 -17t15.5 -42zM36 353q0 -25 -15.5 -42t-38.5 -17t-38.5 17t-15.5 42t15.5 42t38.5 17t38.5 -17t15.5 -42zM265 83q0 -11 -17.5 -32t-43 -41.5t-55.5 -35.5t-55 -15q-45 0 -69 33t-24 78
q0 28 5 54.5t12.5 47.5t16.5 33.5t17 12.5q5 -1 6.5 -6.5t1.5 -13.5q0 -17 4 -40.5t15 -44.5t30 -35.5t49 -14.5q20 0 39.5 8.5t35.5 21.5q4 3 8.5 5.5t9.5 2.5q10 0 12 -5t2 -13z" />
    <glyph glyph-name="ntilde" unicode="&#xf1;" horiz-adv-x="444" 
d="M310 305q0 -8 -9 -17t-22 -17t-28.5 -13t-28.5 -5q-20 0 -33 4t-24 9t-22 9t-27 4h-11t-13 -2q-3 0 -6.5 1.5t-4.5 6.5q0 8 9 17t22 17t28 13.5t28 5.5q20 0 33.5 -4t25 -9.5t22.5 -9.5t27 -4h10.5t12.5 2q3 0 6.5 -1.5t4.5 -6.5zM470 28q0 -18 -10 -34t-26 -28t-35 -19
t-36 -7q-30 0 -50.5 13t-33 33.5t-20 45t-12.5 46.5q-1 9 -6 9q-8 0 -23 -20l-33.5 -43.5t-39.5 -43.5t-41 -20q-27 3 -38 23.5t-17 43t-13 41t-26 18.5q0 7 9 21.5t21.5 29.5t27 26.5t25.5 11.5q21 0 27.5 -15t11 -33t12 -33t28.5 -15q20 0 32.5 16.5t24 37t24 37
t31.5 16.5q12 0 18 -12l18.5 -38t27.5 -44t36 -36t44 -15q14 0 18 3t12 3q7 0 9.5 -7t2.5 -12z" />
    <glyph glyph-name="oacute" unicode="&#xf3;" horiz-adv-x="280" 
d="M254 373q0 -21 -13.5 -36t-33.5 -25.5t-44 -16.5t-45 -9.5t-36 -4.5t-18 -1q-15 0 -15 12q0 14 26 23q47 16 65.5 33t26.5 30.5t16 22.5t34 9q20 0 28.5 -13t8.5 -24zM312 167q0 -6 -6 -16t-15 -19.5t-19 -16.5t-18 -7q-9 -25 -26.5 -52.5t-40 -50t-49 -37t-53.5 -14.5
q-33 0 -58.5 22t-25.5 72q0 21 10 47t26.5 49t37.5 39t42 16v4q0 23 15 36t37 13q42 0 62 -23.5t31 -56.5q3 -9 8 -9q8 0 15.5 5.5t18.5 5.5q8 0 8 -7zM223 105q-51 0 -76 25.5t-29 59.5q-7 -5 -11.5 -19t-4.5 -31q0 -13 5 -26.5t13 -24.5t19 -18t23 -7q18 0 30 4.5
t18.5 11.5t9.5 14t3 11z" />
    <glyph glyph-name="ograve" unicode="&#xf2;" horiz-adv-x="280" 
d="M235 300q0 -12 -15 -12q-3 0 -17 0.5t-33 3t-41 7.5t-40.5 14.5t-30.5 24t-12 35.5q0 11 8.5 24t28.5 13q25 0 33 -9t15.5 -22.5t23 -28.5t54.5 -27q26 -8 26 -23zM312 167q0 -6 -6 -16t-15 -19.5t-19 -16.5t-18 -7q-9 -25 -26.5 -52.5t-40 -50t-49 -37t-53.5 -14.5
q-33 0 -58.5 22t-25.5 72q0 21 10 47t26.5 49t37.5 39t42 16v4q0 23 15 36t37 13q42 0 62 -23.5t31 -56.5q3 -9 8 -9q8 0 15.5 5.5t18.5 5.5q8 0 8 -7zM223 105q-51 0 -76 25.5t-29 59.5q-7 -5 -11.5 -19t-4.5 -31q0 -13 5 -26.5t13 -24.5t19 -18t23 -7q18 0 30 4.5
t18.5 11.5t9.5 14t3 11z" />
    <glyph glyph-name="ocircumflex" unicode="&#xf4;" horiz-adv-x="280" 
d="M290 308q0 -8 -13 -13t-36 -5q-5 0 -29.5 5.5t-53.5 30.5q-29 -25 -53.5 -30.5t-29.5 -5.5q-23 0 -36 5t-13 13q0 11 29 21q27 10 40 24t21.5 26.5t16.5 21.5t25 9t25 -9t16.5 -21.5t21.5 -26.5t40 -24q29 -10 29 -21zM312 167q0 -6 -6 -16t-15 -19.5t-19 -16.5t-18 -7
q-9 -25 -26.5 -52.5t-40 -50t-49 -37t-53.5 -14.5q-33 0 -58.5 22t-25.5 72q0 21 10 47t26.5 49t37.5 39t42 16v4q0 23 15 36t37 13q42 0 62 -23.5t31 -56.5q3 -9 8 -9q8 0 15.5 5.5t18.5 5.5q8 0 8 -7zM223 105q-51 0 -76 25.5t-29 59.5q-7 -5 -11.5 -19t-4.5 -31
q0 -13 5 -26.5t13 -24.5t19 -18t23 -7q18 0 30 4.5t18.5 11.5t9.5 14t3 11z" />
    <glyph glyph-name="odieresis" unicode="&#xf6;" horiz-adv-x="280" 
d="M274 353q0 -25 -15.5 -42t-38.5 -17t-38.5 17t-15.5 42t15.5 42t38.5 17t38.5 -17t15.5 -42zM134 353q0 -25 -15.5 -42t-38.5 -17t-38.5 17t-15.5 42t15.5 42t38.5 17t38.5 -17t15.5 -42zM312 167q0 -6 -6 -16t-15 -19.5t-19 -16.5t-18 -7q-9 -25 -26.5 -52.5t-40 -50
t-49 -37t-53.5 -14.5q-33 0 -58.5 22t-25.5 72q0 21 10 47t26.5 49t37.5 39t42 16v4q0 23 15 36t37 13q42 0 62 -23.5t31 -56.5q3 -9 8 -9q8 0 15.5 5.5t18.5 5.5q8 0 8 -7zM223 105q-51 0 -76 25.5t-29 59.5q-7 -5 -11.5 -19t-4.5 -31q0 -13 5 -26.5t13 -24.5t19 -18t23 -7
q18 0 30 4.5t18.5 11.5t9.5 14t3 11z" />
    <glyph glyph-name="otilde" unicode="&#xf5;" horiz-adv-x="280" 
d="M265 349q0 -8 -9 -17t-22 -17t-28.5 -13t-28.5 -5q-20 0 -33 4t-24 9t-22 9t-27 4h-11t-13 -2q-3 0 -6.5 1.5t-4.5 6.5q0 8 9 17t22 17t28 13.5t28 5.5q20 0 33.5 -4t25 -9.5t22.5 -9.5t27 -4h10.5t12.5 2q3 0 6.5 -1.5t4.5 -6.5zM312 167q0 -6 -6 -16t-15 -19.5
t-19 -16.5t-18 -7q-9 -25 -26.5 -52.5t-40 -50t-49 -37t-53.5 -14.5q-33 0 -58.5 22t-25.5 72q0 21 10 47t26.5 49t37.5 39t42 16v4q0 23 15 36t37 13q42 0 62 -23.5t31 -56.5q3 -9 8 -9q8 0 15.5 5.5t18.5 5.5q8 0 8 -7zM223 105q-51 0 -76 25.5t-29 59.5q-7 -5 -11.5 -19
t-4.5 -31q0 -13 5 -26.5t13 -24.5t19 -18t23 -7q18 0 30 4.5t18.5 11.5t9.5 14t3 11z" />
    <glyph glyph-name="uacute" unicode="&#xfa;" horiz-adv-x="447" 
d="M311 353q0 -21 -13.5 -36t-33.5 -25.5t-44 -16.5t-45 -9.5t-36 -4.5t-18 -1q-15 0 -15 12q0 14 26 23q47 16 65.5 33t26.5 30.5t16 22.5t34 9q20 0 28.5 -13t8.5 -24zM488 113q0 -7 -5 -16q-7 -14 -26 -36t-44 -42.5t-53.5 -35.5t-54.5 -15q-39 0 -57.5 27.5t-20.5 69.5
q0 9 -4 9q-3 0 -14 -15t-29 -33.5t-42.5 -33.5t-55.5 -15q-33 0 -53 21.5t-20 50.5q0 19 5.5 46t14.5 51.5t20 42t22 17.5t17.5 -10t6.5 -19q0 -5 2.5 -18.5t10 -28t22 -25.5t38.5 -11q19 0 33 10t23.5 24t16 28.5t9.5 23.5q3 8 8 20t16 12q8 -1 11.5 -6t5 -10.5t1.5 -10.5
v-8q0 -14 6.5 -30t19 -30t31 -23.5t42.5 -9.5q23 0 39.5 6t30.5 20q11 12 20 12q7 0 7 -9z" />
    <glyph glyph-name="ugrave" unicode="&#xf9;" horiz-adv-x="447" 
d="M249 290q0 -12 -15 -12q-3 0 -17 0.5t-33 3t-41 7.5t-40.5 14.5t-30.5 24t-12 35.5q0 11 8.5 24t28.5 13q25 0 33 -9t15.5 -22.5t23 -28.5t54.5 -27q26 -8 26 -23zM488 113q0 -7 -5 -16q-7 -14 -26 -36t-44 -42.5t-53.5 -35.5t-54.5 -15q-39 0 -57.5 27.5t-20.5 69.5
q0 9 -4 9q-3 0 -14 -15t-29 -33.5t-42.5 -33.5t-55.5 -15q-33 0 -53 21.5t-20 50.5q0 19 5.5 46t14.5 51.5t20 42t22 17.5t17.5 -10t6.5 -19q0 -5 2.5 -18.5t10 -28t22 -25.5t38.5 -11q19 0 33 10t23.5 24t16 28.5t9.5 23.5q3 8 8 20t16 12q8 -1 11.5 -6t5 -10.5t1.5 -10.5
v-8q0 -14 6.5 -30t19 -30t31 -23.5t42.5 -9.5q23 0 39.5 6t30.5 20q11 12 20 12q7 0 7 -9z" />
    <glyph glyph-name="ucircumflex" unicode="&#xfb;" horiz-adv-x="447" 
d="M302 289q0 -8 -13 -13t-36 -5q-5 0 -29.5 5.5t-53.5 30.5q-29 -25 -53.5 -30.5t-29.5 -5.5q-23 0 -36 5t-13 13q0 11 29 21q27 10 40 24t21.5 26.5t16.5 21.5t25 9t25 -9t16.5 -21.5t21.5 -26.5t40 -24q29 -10 29 -21zM488 113q0 -7 -5 -16q-7 -14 -26 -36t-44 -42.5
t-53.5 -35.5t-54.5 -15q-39 0 -57.5 27.5t-20.5 69.5q0 9 -4 9q-3 0 -14 -15t-29 -33.5t-42.5 -33.5t-55.5 -15q-33 0 -53 21.5t-20 50.5q0 19 5.5 46t14.5 51.5t20 42t22 17.5t17.5 -10t6.5 -19q0 -5 2.5 -18.5t10 -28t22 -25.5t38.5 -11q19 0 33 10t23.5 24t16 28.5
t9.5 23.5q3 8 8 20t16 12q8 -1 11.5 -6t5 -10.5t1.5 -10.5v-8q0 -14 6.5 -30t19 -30t31 -23.5t42.5 -9.5q23 0 39.5 6t30.5 20q11 12 20 12q7 0 7 -9z" />
    <glyph glyph-name="udieresis" unicode="&#xfc;" horiz-adv-x="447" 
d="M298 333q0 -25 -15.5 -42t-38.5 -17t-38.5 17t-15.5 42t15.5 42t38.5 17t38.5 -17t15.5 -42zM158 333q0 -25 -15.5 -42t-38.5 -17t-38.5 17t-15.5 42t15.5 42t38.5 17t38.5 -17t15.5 -42zM488 113q0 -7 -5 -16q-7 -14 -26 -36t-44 -42.5t-53.5 -35.5t-54.5 -15
q-39 0 -57.5 27.5t-20.5 69.5q0 9 -4 9q-3 0 -14 -15t-29 -33.5t-42.5 -33.5t-55.5 -15q-33 0 -53 21.5t-20 50.5q0 19 5.5 46t14.5 51.5t20 42t22 17.5t17.5 -10t6.5 -19q0 -5 2.5 -18.5t10 -28t22 -25.5t38.5 -11q19 0 33 10t23.5 24t16 28.5t9.5 23.5q3 8 8 20t16 12
q8 -1 11.5 -6t5 -10.5t1.5 -10.5v-8q0 -14 6.5 -30t19 -30t31 -23.5t42.5 -9.5q23 0 39.5 6t30.5 20q11 12 20 12q7 0 7 -9z" />
    <glyph glyph-name="dagger" unicode="&#x2020;" horiz-adv-x="373" 
d="M352 28q0 -16 -13 -31.5t-32.5 -27.5t-42.5 -19.5t-43 -7.5q-31 0 -52 18t-34 50t-18.5 75t-5.5 92q0 76 10 160t24 160q-38 -11 -70.5 -24t-52.5 -27q-2 -1 -5 -1q-5 0 -5 6t2 15t5 17.5t6 15t4 7.5q12 8 41 20t68 23l8 2t9 3l15 71.5t13 57l9.5 39t4.5 15.5
q2 5 11.5 9.5t20.5 5.5q10 0 10 -8q-9 -32 -18 -77.5t-17 -99.5q35 8 71 15t62 7q2 0 6.5 -2t4.5 -8q0 -4 -1.5 -11t-4 -13.5t-6.5 -12t-9 -5.5q-16 -2 -51.5 -8t-78.5 -17q-5 -45 -8 -91t-3 -91q0 -58 6 -111t21 -93t39 -63t60 -23q13 0 18.5 1.5t9.5 1.5q5 0 8.5 -4.5
t3.5 -10.5z" />
    <glyph glyph-name="degree" unicode="&#xb0;" horiz-adv-x="198" 
d="M194 242q0 -17 -7.5 -35t-20.5 -33t-31 -24.5t-40 -9.5q-28 0 -40 15.5t-12 38.5q0 17 6.5 35t18 33t28 25t36.5 10q33 0 47.5 -16t14.5 -39zM158 220q0 15 -10.5 27.5t-32.5 12.5q-17 0 -25 -11.5t-8 -25.5q0 -15 9 -28t27 -13q20 0 30 12t10 26z" />
    <glyph glyph-name="cent" unicode="&#xa2;" horiz-adv-x="280" 
d="M303 91q0 -11 -11.5 -28.5t-32.5 -34.5t-50.5 -31t-65.5 -19v-36q0 -18 -7 -24t-20 -6q-4 0 -6 9v54q-52 0 -75 26t-23 64q0 23 8 48.5t22 50.5t34 47t44 38v52q0 18 7 24t20 6q4 0 6 -9v-56q31 13 62 13q19 0 30.5 -11.5t11.5 -28.5q0 -13 -7 -27t-17.5 -25.5t-24 -19
t-25.5 -7.5q-3 0 -5 3t-2 5q0 5 2.5 8l5 6t5 7t2.5 11q0 13 -7.5 24t-16.5 11q-28 0 -43.5 -25.5t-15.5 -57.5q0 -36 20.5 -61t57.5 -25q28 0 46 5.5t29 11.5t18.5 11.5t14.5 5.5q9 0 9 -9z" />
    <glyph glyph-name="sterling" unicode="&#xa3;" horiz-adv-x="308" 
d="M313 8q0 -6 -8 -14t-19.5 -14.5t-24.5 -11.5t-22 -5q-14 0 -30.5 7.5t-32.5 17t-31 17t-27 7.5q-6 0 -13 -4t-13.5 -10t-11.5 -12t-7 -9q-5 -7 -8 -7t-6.5 2.5t-3.5 6.5q0 1 2 5q3 18 3 42q0 20 -1 33.5t-3 27.5l-13.5 -7.5t-12.5 -8.5q-1 -1 -5 -1t-4 6q0 4 1.5 10.5
t4 13t5 11.5t3.5 6q5 3 9 6t9 5q-1 12 -1 27.5v35.5q0 18 3.5 38t13 36.5t27.5 27.5t47 11q7 0 16 -1t16.5 -5t13 -12.5t5.5 -23.5q0 -12 -6.5 -22.5t-16.5 -18t-20.5 -12t-19.5 -4.5q-6 0 -11.5 4t-5.5 13q0 10 6 20q-4 4 -14 4q-8 0 -11.5 -11t-3.5 -29q0 -13 1 -28t3 -31
q42 13 98 13q2 0 5.5 -1t3.5 -6q0 -6 -4 -19.5t-12 -14.5q-15 -1 -38 -4t-48 -11q2 -16 3 -22t1 -17q0 -8 2 -8q13 7 24 10.5t25 3.5q15 0 30 -9t30.5 -20.5t31 -20.5t30.5 -9q8 0 12.5 1t6.5 2l4 2t5 1q2 0 5 -3.5t3 -6.5z" />
    <glyph glyph-name="section" unicode="&#xa7;" horiz-adv-x="304" 
d="M335 325q0 -12 -6.5 -22.5t-16.5 -18t-20.5 -12t-19.5 -4.5q-6 0 -11.5 4t-5.5 13q0 10 6 20q-4 4 -14 4q-8 0 -18 -3t-19 -9t-15 -15t-7 -21q5 -10 19 -21t29 -19q14 -7 26.5 -15t22 -17.5t15.5 -21.5t6 -28q0 -21 -16 -40.5t-40 -34.5q16 -19 16 -43q0 -23 -18 -43.5
t-44 -36t-56 -25t-54 -9.5q-35 0 -58.5 12.5t-23.5 42.5q0 8 5 16.5t12.5 15t15.5 11t15 5.5q5 0 10.5 -5t16.5 -11.5t29 -11.5t49 -5q13 0 18.5 7.5t5.5 14.5q0 15 -18.5 25.5l-41 22.5t-41 27.5t-18.5 40.5q0 20 15.5 42t38.5 40q-6 8 -10 16.5t-4 19.5q0 22 18.5 45.5
t45 43t56.5 32.5t54 13q7 0 16 -1t16.5 -5t13 -12.5t5.5 -23.5zM229 117q0 8 -6.5 15t-16.5 13t-22.5 12t-24.5 13q-5 -5 -8 -12t-3 -15q5 -10 19 -20.5t29 -19.5q4 -2 7.5 -4t6.5 -4q10 2 14.5 9t4.5 13z" />
    <glyph glyph-name="bullet" unicode="&#x2022;" horiz-adv-x="212" 
d="M176 127q0 -30 -19 -50.5t-46 -20.5t-46 20.5t-19 50.5t19 50.5t46 20.5t46 -20.5t19 -50.5z" />
    <glyph glyph-name="paragraph" unicode="&#xb6;" horiz-adv-x="383" 
d="M217 74q-44 0 -79 17t-59 44t-37 61t-13 69q0 26 6 57t16.5 57.5t25.5 44t32 17.5q14 0 32.5 -17t35.5 -59t28.5 -113t11.5 -178zM324 -339q0 -9 -6 -18t-16 -16t-23 -11.5t-26 -4.5q-25 0 -33.5 32.5t-10.5 79.5q-1 15 2.5 50t7.5 83.5t7.5 106.5t3.5 118q0 51 -3 101.5
t-11 96t-21.5 84t-34.5 65.5q41 0 67.5 -14.5t42 -40t21.5 -61t6 -77.5t-4 -89t-9.5 -96.5t-9.5 -99.5t-4 -98q0 -18 0.5 -47.5t5 -58.5t13.5 -51t26 -23q9 -2 9 -11z" />
    <glyph glyph-name="germandbls" unicode="&#xdf;" horiz-adv-x="267" 
d="M265 144q0 -22 -10 -55.5t-33.5 -65.5t-63.5 -55.5t-100 -26.5l-11 -284q-1 -18 -12 -18q-6 0 -11.5 4.5t-5.5 9.5q0 24 1.5 61l3 75t2.5 71.5t1 50.5v32q-38 6 -59.5 23.5t-21.5 28.5q0 7 7 15l14.5 17.5l17 20.5l15.5 18t8 10q3 5 11 5q4 0 10 -2q1 58 3 119.5t6 120
t10.5 110.5t17 91t25.5 62t36 23q29 0 40.5 -23t11.5 -61q0 -88 -20 -166.5t-44 -137.5q17 18 30.5 29.5t20.5 11.5q13 0 30.5 -10t33 -26.5t26 -37t10.5 -40.5zM137 458q0 11 -6 25t-15 14q-6 0 -12 -8t-12 -28t-10.5 -53.5t-7.5 -85.5q-1 -23 -3 -49q-2 -22 -2.5 -49.5
t-2.5 -56.5q11 17 23.5 40t23 57.5t17.5 82t7 111.5zM196 63q0 24 -10 43t-23.5 32.5t-27.5 20.5t-22 7q-5 0 -10 -6l-8.5 -8.5l-11 -11.5t-10.5 -10.5t-7 -6.5l-2 -2q-1 -18 -1 -33.5v-26.5l-1 -8q9 -5 21 -8.5t30 -3.5q30 0 46.5 2t24.5 5.5t10 7.5t2 7z" />
    <glyph glyph-name="registered" unicode="&#xae;" horiz-adv-x="557" 
d="M549 284q0 -32 -14 -67.5t-39 -69.5t-59.5 -65t-75.5 -54t-87 -37t-94 -14t-81.5 9.5t-54.5 26t-31 39.5t-10 49q0 48 29.5 103t78.5 101.5t111.5 77t129.5 30.5q53 0 90.5 -10t61 -27.5t34.5 -41t11 -50.5zM440 252q0 49 -32.5 83.5t-106.5 34.5q-31 0 -66.5 -18.5
t-65 -48.5t-49 -67.5t-19.5 -74.5q0 -21 6 -44.5t20.5 -43.5t40 -33.5t64.5 -13.5q20 0 38.5 5t36.5 13q-13 9 -22 23.5t-14 32.5t-7.5 36.5t-2.5 34.5q0 6 4 6q3 -1 8 -6t17 -7q16 0 24 13.5t8 32.5q0 15 -4.5 32t-13.5 32t-22.5 24.5t-31.5 9.5q-26 -8 -38.5 -35.5
t-12.5 -60.5q0 -31 10.5 -61.5t30.5 -51.5q2 0 2 3q0 68 1.5 101t6.5 44q3 3 8 3q4 0 4 -2q-1 -2 -2 -10.5t-2 -20.5q-2 -26 -2.5 -48t-0.5 -47q0 -6 1 -18t1.5 -24t1.5 -22.5t1 -15.5q0 -6 -6 -6q-19 2 -35 16t-27 35.5t-17 49.5t-6 56t6 54.5t19 47t33 33t47 12.5
q24 0 42 -9t30.5 -23t19 -32.5t6.5 -36.5q0 -33 -20.5 -59.5t-65.5 -29.5q-2 -2 -2 -4q0 -4 5.5 -13.5t15 -20.5t22 -21t25.5 -16q40 35 64 83t24 94z" />
    <glyph glyph-name="copyright" unicode="&#xa9;" horiz-adv-x="557" 
d="M549 284q0 -32 -14 -67.5t-39 -69.5t-59.5 -65t-75.5 -54t-87 -37t-94 -14t-81.5 9.5t-54.5 26t-31 39.5t-10 49q0 48 29.5 103t78.5 101.5t111.5 77t129.5 30.5q53 0 90.5 -10t61 -27.5t34.5 -41t11 -50.5zM440 252q0 49 -32.5 83.5t-106.5 34.5q-31 0 -66.5 -18.5
t-65 -48.5t-49 -67.5t-19.5 -74.5q0 -21 6 -44.5t20.5 -43.5t40 -33.5t64.5 -13.5q43 0 80.5 21.5t66 54.5t45 73t16.5 77zM386 172q0 -10 -11.5 -25.5t-31.5 -30.5t-48.5 -26t-62.5 -11q-42 0 -60 21t-18 51q0 27 13 57.5t35 56t51.5 42t62.5 16.5q15 0 24.5 -9t9.5 -23
q0 -10 -5.5 -21.5t-14.5 -21t-19.5 -15.5t-20.5 -6q-5 0 -5 7q0 8 6 11t6 14t-6 19.5t-13 8.5q-23 0 -35.5 -20t-12.5 -46q0 -29 17 -49t46 -20q23 0 37 4t23 9.5t14.5 9.5t11.5 4q7 0 7 -7z" />
    <glyph glyph-name="trademark" unicode="&#x2122;" horiz-adv-x="404" 
d="M379 270q0 -6 -13 -15.5t-27 -9.5q-33 0 -43.5 21.5t-10.5 49.5q0 24 3.5 47.5t3.5 37.5q0 2 -2 2t-10 -22.5t-16.5 -49.5l-15 -48.5t-5.5 -19.5q-1 -4 -8 -9t-10 -5t-3.5 19t-2 42.5t-4.5 42.5t-9 19q-3 0 -8.5 -12.5t-10.5 -30t-9.5 -37t-6.5 -33.5q0 -3 -7.5 -8
t-10.5 -5t-3 4q3 34 4 60t1 46q0 35 -2 51.5t-4 22.5v1q-12 -1 -32 -5.5t-41 -10.5t-40 -13t-30 -15q-4 -2 -3 -2q-2 0 -2 5q0 6 3 16t5 11q5 4 21 11t38 14t47.5 12t47.5 5q1 -1 3 -2t2 -3q0 -5 -1 -7q5 -4 8 -18.5t3 -34.5q0 -26 -5.5 -56.5t-8.5 -48.5l14.5 45t15 44.5
t14.5 33.5t14 13q5 0 8.5 -8.5t5.5 -21.5t2.5 -29t0.5 -30v-21t-1 -15q0 -3 6.5 18.5t16 48.5t20 50t17.5 23q12 0 12 -8q0 -4 -1 -11t-1 -18q0 -14 2 -36.5t7.5 -44t16.5 -37t29 -15.5q5 0 7 2t4 2q5 0 5 -4zM122 265q0 -8 -11.5 -15t-21.5 -7q-18 0 -25 16t-7 39
q0 15 2 30.5t5.5 30.5t7.5 27.5t7 19.5q2 2 8 4q3 0 3 -2q-5 -23 -6 -39t-1 -27q0 -34 8.5 -54t25.5 -20q5 0 5 -3z" />
    <glyph glyph-name="acute" unicode="&#xb4;" horiz-adv-x="305" 
d="M255 373q0 -21 -13.5 -36t-33.5 -25.5t-44 -16.5t-45 -9.5t-36 -4.5t-18 -1q-15 0 -15 12q0 14 26 23q47 16 65.5 33t26.5 30.5t16 22.5t34 9q20 0 28.5 -13t8.5 -24z" />
    <glyph glyph-name="dieresis" unicode="&#xa8;" horiz-adv-x="500" 
d="M378 353q0 -25 -15.5 -42t-38.5 -17t-38.5 17t-15.5 42t15.5 42t38.5 17t38.5 -17t15.5 -42zM238 353q0 -25 -15.5 -42t-38.5 -17t-38.5 17t-15.5 42t15.5 42t38.5 17t38.5 -17t15.5 -42z" />
    <glyph glyph-name="AE" unicode="&#xc6;" horiz-adv-x="939" 
d="M1036 756q0 -20 -17 -38t-39.5 -31.5t-43 -21t-28.5 -7.5q-7 1 -10 1.5t-3 6.5t2.5 10.5t2.5 9.5q0 10 -6 17t-15 11t-18.5 5.5t-15.5 1.5q-33 0 -77.5 -16.5t-85 -40.5t-69.5 -51t-29 -48q0 -19 11.5 -33t29.5 -26.5t39.5 -23.5t40 -23t30.5 -26t12 -32q0 -24 -11 -43
t-27.5 -34.5t-36 -30.5t-36 -31.5t-27.5 -37t-11 -47.5q0 -18 8.5 -33.5t22 -27.5t30.5 -18.5t35 -6.5q43 0 79 14.5t65.5 35t52.5 44t39 41.5q7 7 13 7q5 0 8 -2.5t5 -4.5q5 -7 5 -15q0 -13 -16 -36.5t-43.5 -51t-64.5 -56.5t-78.5 -52.5t-86 -38.5t-87.5 -15
q-24 0 -45 6.5t-37.5 20t-26 33.5t-9.5 46q0 36 4.5 73t10 69.5t10 56t4.5 30.5q0 4 -3 4q-5 0 -10 -9q-29 -72 -70 -133.5t-87 -106t-93.5 -70t-89.5 -25.5q-35 0 -66 14.5t-51 49.5q-14 25 -19.5 52.5t-5.5 53.5q0 63 23.5 133.5t64 139t95 131.5t117 110.5t129.5 76
t133 28.5q43 0 63 -18t22 -39q45 28 92.5 50.5t91 39t79.5 25.5t56 9q33 0 51 -16.5t18 -39.5zM632 322q0 20 -18.5 32.5t-44.5 23.5q-2 -17 -2 -33v-33t1 -32.5t3 -30.5l42 41t19 32zM564 628q-4 11 -14 20.5t-22 17t-26 12t-27 4.5q-42 0 -84 -21t-79.5 -55.5t-70 -78.5
t-56.5 -90.5t-37.5 -91t-13.5 -80.5q0 -28 6.5 -54.5t20 -46.5t35 -32.5t50.5 -12.5q28 0 54 13.5t50 35t46 49.5t41 57q20 30 37.5 66.5t32.5 71.5q-16 12 -25.5 28t-9.5 39q0 39 25 76.5t67 72.5z" />
    <glyph glyph-name="Oslash" unicode="&#xd8;" 
d="M614 354q0 -7 -9 -21.5t-25 -32.5t-37 -37.5t-47 -37.5q-29 -55 -64 -104.5t-75 -87t-83 -60.5t-88 -26q-11 -26 -18 -44.5t-12 -29.5q-4 -9 -14.5 -16t-21.5 -7q-4 0 -13 3t-9 8q0 1 2 7q8 16 16.5 36.5l19.5 45.5q-33 7 -58.5 27t-43 50t-26 68.5t-8.5 82.5
q0 83 23 164.5t61 155t87.5 136.5t102 108.5t105 71.5t95.5 26q9 0 22 -5q15 35 27 60q2 4 5 7q6 6 13 6q4 0 16.5 -2.5t12.5 -5.5t-2.5 -10.5t-6.5 -14.5q-6 -12 -14 -31.5t-19 -43.5q3 -7 3 -17q0 -14 -10 -31.5t-26 -29.5q-1 -2 -3 -8q25 -2 43.5 -14.5t31 -32
t18.5 -43.5t6 -49q0 -63 -16.5 -134.5t-45.5 -142.5q31 21 47.5 42t20.5 25q3 3 5 3q5 0 8.5 -4.5t3.5 -9.5zM542 507q0 23 -4.5 45.5t-14 42t-24 33.5t-34.5 20l-67.5 -167.5l-71.5 -180.5q23 -20 47 -28.5t44 -8.5q17 0 33 2.5t30 7.5q30 61 46 124t16 110zM418 650
q-30 -6 -56 -28t-46 -53t-31.5 -68t-11.5 -73q0 -27 5.5 -49t15.5 -40l63.5 160zM453 734q-3 16 -14.5 22t-34.5 6q-33 0 -69 -20t-69.5 -54t-63.5 -79t-53 -94t-36 -99t-13 -95q0 -28 4.5 -59.5t16 -61.5t31 -55t49.5 -39l45 111q-25 26 -37.5 60t-12.5 66q0 47 18.5 105.5
t51 112.5t78 95t99.5 54q3 6 5.5 12t4.5 12zM428 189q-40 -17 -79 -17q-38 0 -67 17l-19.5 -49t-17.5 -47q5 -1 11 -1h13q47 0 87 27t72 70z" />
    <glyph glyph-name="yen" unicode="&#xa5;" horiz-adv-x="270" 
d="M266 295q0 -6 -2.5 -13.5t-7 -14.5t-9 -12t-9.5 -5q-8 0 -10 4q-10 -3 -17 -17t-12.5 -34t-9 -44t-5.5 -49q11 1 22.5 1.5t24.5 0.5q2 0 5.5 -1t3.5 -6q0 -6 -4 -20t-12 -14q-9 0 -19.5 -1.5l-23.5 -3.5q-2 -26 -2 -45.5v-29.5q0 -4 -5 -10t-12 -11.5t-15 -9.5t-13 -4
q-6 0 -9 8t-4.5 21t-1.5 29.5v34.5q-28 -9 -51 -26q-1 -1 -5 -1t-4 6q0 4 1.5 10.5t4 13t5 11.5t3.5 6q15 11 30 18q-11 17 -23 40.5t-22.5 49t-18 50.5t-7.5 46q6 19 14 33q7 12 16 22t20 10q13 0 13 -22q0 -25 5.5 -49t13 -44.5t16 -37.5t15.5 -28q1 44 11 77t23.5 55
t29.5 32.5t29 10.5q12 0 20 -9t8 -28z" />
    <glyph glyph-name="ordfeminine" unicode="&#xaa;" horiz-adv-x="305" 
d="M326 157q0 -5 -9.5 -19.5t-25 -30t-35.5 -27.5t-40 -12q-15 0 -22.5 6.5t-11.5 16t-4.5 21t-0.5 20.5q0 3 -4 3t-12.5 -9t-20.5 -20t-26 -20t-30 -9q-23 0 -36.5 13.5t-13.5 34.5q0 40 20 71t46.5 52.5t53 33t39.5 11.5q30 -1 40 -12.5t10 -22.5q0 -13 -10.5 -24.5
t-21.5 -11.5q-7 0 -12 5l-11 11t-14 11t-21 5q-19 0 -30.5 -15.5t-11.5 -39.5q0 -39 41 -39q18 0 27.5 8t15.5 18l10.5 18t12.5 8q6 0 7.5 -2.5t1.5 -6.5q0 -5 -1.5 -10.5t-1.5 -10.5q0 -12 11 -27.5t28 -15.5q13 0 23 7t15 11q7 7 16 7t9 -7z" />
    <glyph glyph-name="ordmasculine" unicode="&#xba;" horiz-adv-x="261" 
d="M245 223q0 -23 -10 -48t-28 -45.5t-43 -33.5t-55 -13q-38 0 -55 22t-17 53q0 24 9 49t25 45.5t38.5 34t49.5 13.5q46 0 66 -22.5t20 -54.5zM195 194q0 20 -14.5 37.5t-44.5 17.5q-23 0 -34 -15.5t-11 -35.5q0 -21 12.5 -38.5t38.5 -17.5t39.5 16t13.5 36z" />
    <glyph glyph-name="ae" unicode="&#xe6;" horiz-adv-x="437" 
d="M481 100q0 -6 -4 -14q-13 -21 -32 -45t-43 -43.5t-52.5 -32.5t-60.5 -13q-28 0 -47.5 7.5t-31.5 20.5t-17.5 31t-5.5 38q0 10 -0.5 11.5t-1.5 1.5q-6 0 -17 -12t-27 -27t-34.5 -27t-39.5 -12q-30 0 -48.5 18t-18.5 46q0 53 26.5 94.5t62 70.5t70.5 44t53 15q30 0 44 -10
t19 -22q20 20 42 32t45 12q11 0 21.5 -5t10.5 -21q0 -18 -5 -35t-17 -37.5t-31.5 -45t-49.5 -56.5q12 -18 30.5 -29t42.5 -11q31 0 49.5 15t35.5 35q14 15 24 15q8 0 8 -9zM330 197q0 26 -16 26q-13 0 -22 -7t-13.5 -17.5t-6.5 -22.5t-2 -21q0 -26 8 -46q9 3 18.5 14.5
t17 25.5t12 27.5t4.5 20.5zM228 179q-7 3 -13 10t-13.5 13.5t-17.5 12t-25 5.5q-26 0 -41.5 -20.5t-15.5 -52.5q0 -52 55 -52q23 0 39 13q10 35 32 71z" />
    <glyph glyph-name="oslash" unicode="&#xf8;" horiz-adv-x="280" 
d="M312 167q0 -6 -6 -16t-15 -19.5t-19 -16.5t-18 -7q-9 -23 -24 -47.5t-34.5 -45.5t-42.5 -37t-47 -21l-13.5 -31t-5.5 -15q-5 -8 -15 -15.5t-21 -7.5q-4 0 -13 3t-9 8q0 1 2 7q4 8 9.5 22t13.5 31q-23 8 -38 29.5t-15 59.5q0 21 10 47t26.5 49t37.5 39t42 16v4q0 23 15 36
t37 13q7 0 10 -1l16 36t9 18q2 4 5 7q6 6 13 6q4 0 16.5 -2.5t12.5 -5.5t-2.5 -10.5t-6.5 -14.5q-2 -5 -7.5 -17.5l-13.5 -31.5q15 -11 24.5 -27.5t16.5 -36.5q3 -9 8 -9q8 0 15.5 5.5t18.5 5.5q8 0 8 -7zM223 105q-51 0 -76 25.5t-29 59.5q-7 -7 -11.5 -20t-4.5 -30
q0 -13 5 -26.5t13 -24.5t19 -18t23 -7q18 0 30 4.5t18.5 11.5t9.5 14t3 11z" />
    <glyph glyph-name="questiondown" unicode="&#xbf;" horiz-adv-x="305" 
d="M228 195q0 -30 -19 -50.5t-46 -20.5t-45.5 20.5t-18.5 50.5q0 29 18.5 49.5t45.5 20.5t46 -20.5t19 -49.5zM301 -252q0 -23 -14.5 -41.5t-38.5 -31.5t-54 -19.5t-60 -6.5q-27 0 -53 6t-45.5 18t-31.5 31t-12 45q0 34 13 61.5t33 50.5t42.5 42l42.5 35.5t33 31t13 29.5
q0 17 -10 32t-25 23q-8 3 -8 7q0 5 7.5 9t14.5 4q2 0 13 -4.5t23.5 -14.5t22.5 -26t10 -39q0 -27 -16.5 -57.5t-36 -61t-36 -59t-16.5 -51.5q0 -15 9.5 -28t24 -22.5t31.5 -15t32 -5.5t25 6t10 19q0 5 -7.5 7.5t-27.5 2.5q-6 0 -11 6t-5 23q0 23 14 41.5t37 18.5
q26 0 41.5 -20t15.5 -46z" />
    <glyph glyph-name="exclamdown" unicode="&#xa1;" horiz-adv-x="243" 
d="M193 199q0 -30 -18.5 -50.5t-45.5 -20.5t-46 20.5t-19 50.5q0 29 19 49.5t46 20.5t45.5 -20.5t18.5 -49.5zM203 -335q0 -18 -7.5 -29.5t-18 -18.5t-23 -9.5t-21.5 -2.5q-27 0 -49.5 15t-22.5 45q0 28 8 57.5t18 72.5t18 106t8 158q0 8 6 12.5t14 4.5q7 0 12.5 -4.5
t5.5 -12.5q0 -95 8 -158t18 -106t18 -72.5t8 -57.5z" />
    <glyph glyph-name="guillemotleft" unicode="&#xab;" horiz-adv-x="421" 
d="M376 4q0 -20 -11.5 -33t-22.5 -13q-16 0 -36 29q-14 27 -31 40t-32 21.5t-25.5 16.5t-10.5 25t10.5 25t25.5 16.5t32 21.5t31 40q20 29 36 29q13 0 22.5 -13.5t9.5 -33.5q0 -22 -16 -46t-56 -39q43 -22 58.5 -44.5t15.5 -41.5zM237 7q0 -23 -7.5 -36t-21.5 -13
q-16 0 -36 29q-14 27 -36 40t-42.5 21.5t-35.5 16.5t-15 25t15 25t35.5 16.5t42.5 21.5t36 40q20 29 36 29q14 0 21.5 -13t7.5 -36q0 -13 -21.5 -36.5t-77.5 -46.5q28 -7 47 -19t30.5 -24t16.5 -23t5 -17z" />
    <glyph glyph-name="guillemotright" unicode="&#xbb;" horiz-adv-x="421" 
d="M377 90q0 -17 -15 -25t-35.5 -16.5t-42.5 -21.5t-36 -40q-20 -29 -36 -29q-14 0 -21.5 13t-7.5 36q0 6 5 17t16.5 23t30.5 24t47 19q-56 23 -77.5 46.5t-21.5 36.5q0 23 7.5 36t21.5 13q16 0 36 -29q14 -27 36 -40t42.5 -21.5t35.5 -16.5t15 -25zM213 90q0 -17 -10.5 -25
t-25.5 -16.5t-32 -21.5t-31 -40q-20 -29 -36 -29q-11 0 -22.5 13t-11.5 33q0 19 15.5 41.5t58.5 44.5q-40 15 -56 39t-16 46q0 20 9.5 33.5t22.5 13.5q16 0 36 -29q14 -27 31 -40t32 -21.5t25.5 -16.5t10.5 -25z" />
    <glyph glyph-name="ellipsis" unicode="&#x2026;" horiz-adv-x="492" 
d="M445 37q0 -25 -15.5 -42t-38.5 -17t-38.5 17t-15.5 42t15.5 42t38.5 17t38.5 -17t15.5 -42zM305 37q0 -25 -15.5 -42t-38.5 -17t-38.5 17t-15.5 42t15.5 42t38.5 17t38.5 -17t15.5 -42zM165 37q0 -25 -15.5 -42t-38.5 -17t-38.5 17t-15.5 42t15.5 42t38.5 17t38.5 -17
t15.5 -42z" />
    <glyph glyph-name="Agrave" unicode="&#xc0;" horiz-adv-x="764" 
d="M551 785q0 -12 -15 -12q-3 0 -17 0.5t-33 3t-41 7.5t-40.5 14.5t-30.5 24t-12 35.5q0 11 8.5 24t28.5 13q25 0 33 -9t15.5 -22.5t23 -28.5t54.5 -27q26 -8 26 -23zM764 104q0 -28 -19 -55t-47.5 -48.5t-62.5 -34t-65 -12.5q-32 0 -52 13t-31.5 33.5t-15.5 45.5t-4 50
q0 36 4.5 68.5t10 59.5t10 46t4.5 26q0 4 -3 4q-5 0 -10 -9q-29 -72 -70 -133.5t-87 -106t-93.5 -70t-89.5 -25.5q-35 0 -66 14.5t-51 49.5q-14 25 -19.5 52.5t-5.5 53.5q0 63 23.5 133.5t64 139t95 131.5t117 110.5t129.5 76t133 28.5q23 0 39.5 -6t26.5 -15t14.5 -20
t4.5 -22q0 -21 -8.5 -36t-19.5 -24.5t-22 -14.5t-16 -5t-9.5 3t-5.5 11q-1 12 -10 24t-22 21.5t-29 15t-31 5.5q-42 0 -84 -21t-79.5 -55.5t-70 -78.5t-56.5 -90.5t-37.5 -91t-13.5 -80.5q0 -28 6.5 -54.5t20 -46.5t35 -32.5t50.5 -12.5q28 0 54 13.5t50 35t46 49.5t41 57
q23 34 42.5 76.5t35 80.5t25.5 66.5t13 34.5q4 10 11 15.5t15 5.5q9 0 14.5 -5.5t5.5 -13.5q0 -7 -3 -16q-18 -66 -23.5 -112.5t-5.5 -93.5q0 -45 8.5 -85t24 -70t38 -48t50.5 -18q18 0 31.5 7t18.5 11q8 6 14 6q5 0 8.5 -3t3.5 -8z" />
    <glyph glyph-name="Atilde" unicode="&#xc3;" horiz-adv-x="764" 
d="M555 819q0 -8 -9 -17t-22 -17t-28.5 -13t-28.5 -5q-20 0 -33 4t-24 9t-22 9t-27 4h-11t-13 -2q-3 0 -6.5 1.5t-4.5 6.5q0 8 9 17t22 17t28 13.5t28 5.5q20 0 33.5 -4t25 -9.5t22.5 -9.5t27 -4h10.5t12.5 2q3 0 6.5 -1.5t4.5 -6.5zM764 104q0 -28 -19 -55t-47.5 -48.5
t-62.5 -34t-65 -12.5q-32 0 -52 13t-31.5 33.5t-15.5 45.5t-4 50q0 36 4.5 68.5t10 59.5t10 46t4.5 26q0 4 -3 4q-5 0 -10 -9q-29 -72 -70 -133.5t-87 -106t-93.5 -70t-89.5 -25.5q-35 0 -66 14.5t-51 49.5q-14 25 -19.5 52.5t-5.5 53.5q0 63 23.5 133.5t64 139t95 131.5
t117 110.5t129.5 76t133 28.5q23 0 39.5 -6t26.5 -15t14.5 -20t4.5 -22q0 -21 -8.5 -36t-19.5 -24.5t-22 -14.5t-16 -5t-9.5 3t-5.5 11q-1 12 -10 24t-22 21.5t-29 15t-31 5.5q-42 0 -84 -21t-79.5 -55.5t-70 -78.5t-56.5 -90.5t-37.5 -91t-13.5 -80.5q0 -28 6.5 -54.5
t20 -46.5t35 -32.5t50.5 -12.5q28 0 54 13.5t50 35t46 49.5t41 57q23 34 42.5 76.5t35 80.5t25.5 66.5t13 34.5q4 10 11 15.5t15 5.5q9 0 14.5 -5.5t5.5 -13.5q0 -7 -3 -16q-18 -66 -23.5 -112.5t-5.5 -93.5q0 -45 8.5 -85t24 -70t38 -48t50.5 -18q18 0 31.5 7t18.5 11
q8 6 14 6q5 0 8.5 -3t3.5 -8z" />
    <glyph glyph-name="Otilde" unicode="&#xd5;" 
d="M495 910q0 -8 -9 -17t-22 -17t-28.5 -13t-28.5 -5q-20 0 -33 4t-24 9t-22 9t-27 4h-11t-13 -2q-3 0 -6.5 1.5t-4.5 6.5q0 8 9 17t22 17t28 13.5t28 5.5q20 0 33.5 -4t25 -9.5t22.5 -9.5t27 -4h10.5t12.5 2q3 0 6.5 -1.5t4.5 -6.5zM614 354q0 -7 -9 -21.5t-25 -32.5
t-37 -37.5t-47 -37.5q-30 -58 -67 -108.5t-78.5 -88.5t-87 -60t-92.5 -22q-42 0 -73.5 18t-53.5 49t-33 73.5t-11 91.5q0 83 23 164.5t61 155t87.5 136.5t102 108.5t105 71.5t95.5 26q18 0 37.5 -15t19.5 -42q0 -16 -13.5 -37t-33.5 -31q27 0 47.5 -12t33.5 -32t19.5 -45
t6.5 -51q0 -63 -16.5 -134.5t-45.5 -142.5q31 21 47.5 42t20.5 25q3 3 5 3q5 0 8.5 -4.5t3.5 -9.5zM542 507q0 27 -6 53t-19 46.5t-32 33t-46 12.5q-33 0 -63 -20.5t-53 -52.5t-36.5 -72t-13.5 -79q0 -45 15.5 -76t37.5 -51t47 -29t44 -9q17 0 33 2.5t30 7.5q30 61 46 124
t16 110zM456 713q-1 1 -1 5q0 26 -11.5 35t-39.5 9q-33 0 -69 -20t-69.5 -54t-63.5 -79t-53 -94t-36 -99t-13 -95q0 -34 7.5 -74.5t26.5 -74.5t51.5 -57t83.5 -23q47 0 87 27t72 70q-40 -17 -79 -17q-37 0 -66 16.5t-48 41.5t-29 55.5t-10 57.5q0 49 19.5 109.5t54 115.5
t82 95.5t104.5 49.5z" />
    <glyph glyph-name="OE" unicode="&#x152;" horiz-adv-x="857" 
d="M954 756q0 -20 -17 -38t-39.5 -31.5t-43 -21t-28.5 -7.5q-7 1 -10 1.5t-3 6.5t2.5 10.5t2.5 9.5q0 10 -6 17t-15 11t-18.5 5.5t-15.5 1.5q-33 0 -77.5 -16.5t-85 -40.5t-69.5 -51t-29 -48q0 -19 11.5 -33t29.5 -26.5t39.5 -23.5t40 -23t30.5 -26t12 -32q0 -24 -11 -43
t-27.5 -34.5t-36 -30.5t-36 -31.5t-27.5 -37t-11 -47.5q0 -18 8.5 -33.5t22 -27.5t30.5 -18.5t35 -6.5q43 0 79 14.5t65.5 35t52.5 44t39 41.5q7 7 13 7q5 0 8 -2.5t5 -4.5q5 -7 5 -15q0 -13 -16 -36.5t-43.5 -51t-64.5 -56.5t-78.5 -52.5t-86 -38.5t-87.5 -15
q-47 0 -81.5 25.5t-36.5 75.5q-48 -53 -102.5 -84.5t-111.5 -31.5q-42 0 -73.5 18t-53.5 49t-33 73.5t-11 91.5q0 83 23 164.5t61 155t87.5 136.5t102 108.5t105 71.5t95.5 26q18 0 37.5 -15t19.5 -42q0 -16 -13.5 -37t-33.5 -31q23 0 41 -9t31 -24q45 29 94.5 53t94.5 41
t82 26.5t58 9.5q33 0 51 -16.5t18 -39.5zM550 322q0 16 -12 26.5t-29.5 20t-38.5 18.5t-38.5 21t-29.5 29t-12 42q0 41 27.5 80.5t72.5 75.5q-22 17 -51 17q-33 0 -63 -20.5t-53 -52.5t-36.5 -72t-13.5 -79q0 -45 15.5 -76t37.5 -51t47 -29t44 -9q43 0 75.5 15t55.5 34
q2 6 2 10zM456 713q-1 1 -1 5q0 26 -11.5 35t-39.5 9q-33 0 -69 -20t-69.5 -54t-63.5 -79t-53 -94t-36 -99t-13 -95q0 -34 7.5 -74.5t26.5 -74.5t51.5 -57t83.5 -23q47 0 86.5 27t71.5 69q-20 -8 -39 -12t-39 -4q-37 0 -66 16.5t-48 41.5t-29 55.5t-10 57.5q0 49 19.5 109.5
t54 115.5t82 95.5t104.5 49.5z" />
    <glyph glyph-name="oe" unicode="&#x153;" horiz-adv-x="467" 
d="M511 106q0 -6 -4 -14q-13 -21 -32 -45t-43 -43.5t-52.5 -32.5t-60.5 -13q-51 0 -74.5 24t-27.5 59q-26 -35 -60 -61t-72 -26q-33 0 -58.5 22t-25.5 72q0 21 10 47t26.5 49t37 39t41.5 16h1q0 26 15 39.5t37 13.5q37 0 57 -19t31 -48q26 44 62 74.5t73 30.5q11 0 21.5 -5
t10.5 -21q0 -18 -5 -35t-17 -37.5t-31.5 -45t-49.5 -56.5q12 -18 30.5 -29t42.5 -11q31 0 49.5 15t35.5 35q14 15 24 15q8 0 8 -9zM360 203q0 26 -16 26q-13 0 -22 -7t-13.5 -17.5t-6.5 -22.5t-2 -21q0 -26 8 -46q9 3 18.5 14.5t17 25.5t12 27.5t4.5 20.5zM223 105
q-51 0 -76 25.5t-29 59.5l-2 -2q-5 -5 -9.5 -18t-4.5 -30q0 -13 5 -26.5t13 -24.5t19 -18t23 -7q18 0 30 4.5t18.5 11.5t9.5 14t3 11z" />
    <glyph glyph-name="endash" unicode="&#x2013;" horiz-adv-x="370" 
d="M333 120q0 -14 -25 -14h-20.5h-46t-60 -0.5t-62.5 -1.5t-53.5 -2t-32.5 -3q-2 0 -5.5 9t-3.5 26q0 14 7.5 18t14.5 4l14.5 -0.5t37 -0.5t50 -1t55 -1t52 -0.5t39.5 -0.5q5 0 11.5 -1t12.5 -4t10.5 -9.5t4.5 -17.5z" />
    <glyph glyph-name="emdash" unicode="&#x2014;" horiz-adv-x="678" 
d="M641 120q0 -7 -11.5 -10.5t-39.5 -3.5h-41.5h-92t-119 -0.5t-124 -1.5t-106.5 -2t-66 -3q-3 0 -10 9t-7 26q0 14 15 18t28 4q1 0 29 -0.5t73 -0.5t100.5 -1t110.5 -1t103.5 -0.5t79.5 -0.5q9 0 22.5 -1t25.5 -4t21 -9.5t9 -17.5z" />
    <glyph glyph-name="quotedblleft" unicode="&#x201c;" horiz-adv-x="326" 
d="M296 433q0 -12 -4 -23.5t-12 -21t-21 -15.5t-31 -6q-4 0 -11 1t-14 6t-13 15t-8 28q0 35 7.5 63t18 49t20.5 34.5t15 19.5q6 7 11 7q10 0 10 -9q0 -5 -4.5 -12l-10.5 -16t-10.5 -21.5t-4.5 -28.5q0 -18 9.5 -23t21.5 -8t21.5 -10t9.5 -29zM158 433q0 -12 -4 -23.5
t-12 -21t-21 -15.5t-31 -6q-4 0 -11 1t-14 6t-13 15t-8 28q0 35 7.5 63t18 49t20.5 34.5t15 19.5q6 7 11 7q10 0 10 -9q0 -5 -4.5 -12l-10.5 -16t-10.5 -21.5t-4.5 -28.5q0 -18 9.5 -23t21.5 -8t21.5 -10t9.5 -29z" />
    <glyph glyph-name="quotedblright" unicode="&#x201d;" horiz-adv-x="361" 
d="M296 547q0 -34 -7.5 -62.5t-18 -49.5t-20.5 -34.5t-15 -19.5q-6 -7 -11 -7q-10 0 -10 9q0 5 4.5 12l10.5 16t10.5 21.5t4.5 28.5q0 18 -9.5 23t-21.5 8t-21.5 10t-9.5 29q0 12 4 23.5t12 21t21 15.5t31 6q4 0 11 -1t14 -6t13 -15t8 -28zM158 547q0 -34 -7.5 -62.5
t-18 -49.5t-20.5 -34.5t-15 -19.5q-6 -7 -11 -7q-10 0 -10 9q0 5 4.5 12l10.5 16t10.5 21.5t4.5 28.5q0 18 -9.5 23t-21.5 8t-21.5 10t-9.5 29q0 12 4 23.5t12 21t21 15.5t31 6q4 0 11 -1t14 -6t13 -15t8 -28z" />
    <glyph glyph-name="quoteleft" unicode="&#x2018;" horiz-adv-x="188" 
d="M158 433q0 -12 -4 -23.5t-12 -21t-21 -15.5t-31 -6q-4 0 -11 1t-14 6t-13 15t-8 28q0 35 7.5 63t18 49t20.5 34.5t15 19.5q6 7 11 7q10 0 10 -9q0 -5 -4.5 -12l-10.5 -16t-10.5 -21.5t-4.5 -28.5q0 -18 9.5 -23t21.5 -8t21.5 -10t9.5 -29z" />
    <glyph glyph-name="quoteright" unicode="&#x2019;" horiz-adv-x="223" 
d="M158 545q0 -34 -7.5 -62.5t-18 -49.5t-20.5 -34.5t-15 -19.5q-6 -7 -11 -7q-10 0 -10 9q0 5 4.5 12l10.5 16t10.5 21.5t4.5 28.5q0 18 -9.5 23t-21.5 8t-21.5 10t-9.5 29q0 12 4 23.5t12 21t21 15.5t31 6q4 0 11 -1t14 -6t13 -15t8 -28z" />
    <glyph glyph-name="divide" unicode="&#xf7;" horiz-adv-x="292" 
d="M189 224q0 -20 -12.5 -33.5t-30.5 -13.5t-30.5 13.5t-12.5 33.5t12.5 33.5t30.5 13.5t30.5 -13.5t12.5 -33.5zM272 120q0 -7 -11.5 -10.5t-39.5 -3.5h-25t-43 -1t-54 -2t-58 -4q-3 0 -10 9t-7 26q0 14 15 18t28 4q1 0 6.5 -0.5t21.5 -1.5t44.5 -1.5t74.5 -0.5
q18 0 38 -7.5t20 -24.5zM189 33q0 -20 -12.5 -33.5t-30.5 -13.5t-30.5 13.5t-12.5 33.5t12.5 33.5t30.5 13.5t30.5 -13.5t12.5 -33.5z" />
    <glyph glyph-name="ydieresis" unicode="&#xff;" horiz-adv-x="336" 
d="M292 353q0 -25 -15.5 -42t-38.5 -17t-38.5 17t-15.5 42t15.5 42t38.5 17t38.5 -17t15.5 -42zM152 353q0 -25 -15.5 -42t-38.5 -17t-38.5 17t-15.5 42t15.5 42t38.5 17t38.5 -17t15.5 -42zM391 112q0 -7 -9 -15q-17 -14 -34.5 -32l-36.5 -38q-9 -9 -17 -18t-16 -17l2 -79
t1 -74q0 -55 -3 -101t-12 -79.5t-24.5 -52.5t-41.5 -19q-20 0 -36.5 11.5t-28 29.5t-17.5 40t-6 43q0 49 11.5 89t31 74t45 63.5t52.5 56.5q-1 27 -1.5 47t-0.5 28q0 3 -0.5 7t-4.5 4q-6 0 -13 -10l-38 -39.5t-33 -29.5t-32 -18.5t-36 -6.5q-41 0 -67 28t-26 85q0 27 6 52.5
t15 45t19.5 31.5t18.5 12q12 0 12 -11q0 -5 -2 -17.5t-2 -22.5q0 -21 7.5 -40t21 -33t31 -22t38.5 -8q22 1 37.5 9t26.5 18q12 11 21 26q1 28 6 46.5t12 29.5t14 15.5t11 4.5h3q8 -3 9.5 -12.5t1.5 -19.5q0 -5 -4.5 -14l-10.5 -20q-7 -12 -16 -26v-57.5t1 -56.5l45 44t41 46
q13 10 21 10q7 0 7 -7zM253 -102v31.5t-1 30.5q-31 -42 -47 -80t-16 -73q0 -15 2 -33.5t6.5 -35t12 -27.5t19.5 -11q7 0 11.5 17.5t7.5 45.5t4 63.5t1 71.5z" />
    <glyph glyph-name="Ydieresis" unicode="&#x178;" 
d="M473 832q0 -25 -15.5 -42t-38.5 -17t-38.5 17t-15.5 42t15.5 42t38.5 17t38.5 -17t15.5 -42zM333 832q0 -25 -15.5 -42t-38.5 -17t-38.5 17t-15.5 42t15.5 42t38.5 17t38.5 -17t15.5 -42zM671 735q0 -31 -15 -75.5t-42 -94t-64.5 -101t-82.5 -96.5q-11 -66 -16.5 -133.5
t-5.5 -127.5v-39t1 -36.5t2 -29t2 -18.5q2 -9 4 -12t4 -3t5 2t7 2q5 -1 10 -5t6 -12q-1 -15 -6 -38.5t-15 -46t-24.5 -38.5t-33.5 -16q-9 0 -15 9.5t-9 25t-4.5 35.5t-1.5 41q0 101 9 199.5t26 189.5q-55 -46 -115 -74.5t-121 -28.5q-33 0 -64 16t-56 45t-40 69t-15 89
q0 44 9.5 86.5t21.5 78t24.5 61.5l18.5 38q2 4 5 8q5 7 14 7q6 0 11 -5t5 -10t-3 -11q-10 -27 -14 -52.5t-4 -48.5q0 -41 13.5 -87t40.5 -84.5t66.5 -64t91.5 -25.5q32 0 63 12.5t59 35.5q19 87 43 160.5t51.5 127.5t57.5 84t60 30q36 0 36 -39zM598 681q0 11 -8 11
q-16 0 -32 -21.5t-30.5 -58t-27 -85.5t-23.5 -105q27 31 49.5 66.5t38 70.5t24.5 67t9 55z" />
    <glyph glyph-name="fraction" unicode="&#x2044;" horiz-adv-x="188" 
d="M231 355q0 -3 -2.5 -10.5t-6.5 -14.5q-2 -5 -9.5 -21.5t-17 -39.5l-20.5 -49l-20.5 -49l-17 -40.5t-9.5 -22.5q-3 -7 -12.5 -31l-20 -50l-19 -47t-9.5 -24q-5 -8 -15 -15.5t-21 -7.5q-4 0 -13 3t-9 8q0 1 2 7q5 10 13.5 29l18.5 42.5l20.5 48.5l19.5 46.5l15.5 36.5
t7.5 18q3 8 15 35.5l25 57.5l24 55.5t14 29.5q2 4 5 7q6 6 13 6q4 0 16.5 -2.5t12.5 -5.5z" />
    <glyph glyph-name="guilsinglleft" unicode="&#x2039;" horiz-adv-x="281" 
d="M237 7q0 -23 -7.5 -36t-21.5 -13q-16 0 -36 29q-14 27 -36 40t-42.5 21.5t-35.5 16.5t-15 25t15 25t35.5 16.5t42.5 21.5t36 40q20 29 36 29q14 0 21.5 -13t7.5 -36q0 -13 -21.5 -36.5t-77.5 -46.5q28 -7 47 -19t30.5 -24t16.5 -23t5 -17z" />
    <glyph glyph-name="guilsinglright" unicode="&#x203a;" horiz-adv-x="281" 
d="M237 90q0 -17 -15 -25t-35.5 -16.5t-42.5 -21.5t-36 -40q-20 -29 -36 -29q-14 0 -21.5 13t-7.5 36q0 6 5 17t16.5 23t30.5 24t47 19q-56 23 -77.5 46.5t-21.5 36.5q0 23 7.5 36t21.5 13q16 0 36 -29q14 -27 36 -40t42.5 -21.5t35.5 -16.5t15 -25z" />
    <glyph glyph-name="fi" unicode="&#xfb01;" horiz-adv-x="453" 
d="M337 353q0 -25 -15.5 -42t-38.5 -17t-38.5 17t-15.5 42t15.5 42t38.5 17t38.5 -17t15.5 -42zM484 83q0 -11 -17.5 -32t-43 -41.5t-55.5 -35.5t-55 -15q-45 0 -69 33t-24 78q0 28 5 54.5t12.5 47.5t16.5 33.5t17 12.5q5 -1 6.5 -6.5t1.5 -13.5q0 -17 4 -40.5t15 -44.5
t30 -35.5t49 -14.5q20 0 39.5 8.5t35.5 21.5q4 3 8.5 5.5t9.5 2.5q10 0 12 -5t2 -13zM216 52q0 -19 -13.5 -38.5t-33.5 -35.5t-42 -26.5t-40 -10.5l-1 -22q12 -16 23 -37q9 -18 16 -44t7 -61q0 -27 -6 -51.5t-15 -44t-20 -31t-22 -11.5q-6 0 -12.5 3t-7.5 11
q-1 10 -1.5 21.5t-0.5 25.5q0 27 1.5 58t3.5 60.5t3.5 54t1.5 38.5v32q-38 6 -59.5 23.5t-21.5 28.5q0 7 7 15l14.5 17.5l17 20.5l15.5 18t8 10q3 5 11 5q4 0 10 -2q1 58 3 119.5t6 120t10.5 110.5t17 91t25.5 62t36 23q29 0 40.5 -23t11.5 -61q0 -44 -12.5 -101t-30.5 -113
t-37.5 -104t-33.5 -74q-1 -20 -1 -37.5v-30.5l-1 -7q9 -5 21 -9t30 -4t27.5 3t15.5 6t10 6t11 3q8 0 8 -7zM168 458q0 11 -6 25t-15 14q-6 0 -12 -8t-11.5 -28t-10.5 -53.5t-8 -85.5q-1 -20 -3 -43q-2 -20 -2.5 -45t-2.5 -51q11 27 23.5 63t23 74t17.5 74t7 64z" />
    <glyph glyph-name="fl" unicode="&#xfb02;" horiz-adv-x="475" 
d="M516 82q0 -10 -17.5 -29t-43.5 -37.5t-55.5 -32t-52.5 -13.5q-42 0 -68 20t-40 49q-31 -44 -68.5 -70.5t-83.5 -27.5l-1 -22q12 -16 23 -37q9 -18 16 -44t7 -61q0 -27 -6 -51.5t-15 -44t-20 -31t-22 -11.5q-6 0 -13 3t-7 11q0 24 1.5 61l3 75t2.5 71.5t1 50.5v32
q-38 6 -59.5 23.5t-21.5 28.5q0 7 7 15l14.5 17.5l17 20.5l15.5 18t8 10q3 5 11 5q4 0 10 -2q1 58 3 119.5t6 120t10.5 110.5t17 91t25.5 62t36 23q29 0 40.5 -23t11.5 -61q0 -44 -12.5 -101t-30.5 -113t-37.5 -104t-33.5 -74v-75q8 -5 19.5 -9t29.5 -4q40 0 79 45
q-9 35 -10.5 70t-1.5 61q0 45 5 92.5t14 93.5t21.5 87t27.5 72t32.5 49.5t36.5 19.5q6 0 12 -2t11.5 -8t9 -18t3.5 -34q0 -23 -4.5 -68t-14.5 -102t-26 -119.5t-39 -121.5q17 -39 45 -64.5t73 -25.5q17 0 34 7l32 13q4 2 7.5 3t8.5 1q6 0 11 -2.5t5 -7.5zM347 501
q0 26 -7.5 39.5t-18.5 13.5q-16 0 -27 -22t-17.5 -52t-9.5 -60.5t-3 -47.5q0 -38 4.5 -85.5t17.5 -91.5q28 67 44.5 148t16.5 158zM168 458q0 11 -6 25t-15 14q-6 0 -12 -8t-11.5 -28t-10.5 -53.5t-8 -85.5q-1 -20 -3 -43q-2 -20 -2.5 -45t-2.5 -51q11 27 23.5 63t23 74
t17.5 74t7 64z" />
    <glyph glyph-name="periodcentered" unicode="&#xb7;" horiz-adv-x="212" 
d="M165 127q0 -25 -15.5 -42t-38.5 -17t-38.5 17t-15.5 42t15.5 42t38.5 17t38.5 -17t15.5 -42z" />
    <glyph glyph-name="quotesinglbase" unicode="&#x201a;" horiz-adv-x="223" 
d="M158 48q0 -34 -7.5 -62.5t-18 -49.5t-20.5 -34.5t-15 -19.5q-6 -7 -11 -7q-10 0 -10 9q0 5 4.5 12l10.5 16t10.5 21.5t4.5 28.5q0 18 -9.5 23t-21.5 8t-21.5 10t-9.5 29q0 12 4 23.5t12 21t21 15.5t31 6q4 0 11 -1t14 -6t13 -15t8 -28z" />
    <glyph glyph-name="quotedblbase" unicode="&#x201e;" horiz-adv-x="361" 
d="M296 47q0 -34 -7.5 -62.5t-18 -49.5t-20.5 -34.5t-15 -19.5q-6 -7 -11 -7q-10 0 -10 9q0 5 4.5 12l10.5 16t10.5 21.5t4.5 28.5q0 18 -9.5 23t-21.5 8t-21.5 10t-9.5 29q0 12 4 23.5t12 21t21 15.5t31 6q4 0 11 -1t14 -6t13 -15t8 -28zM158 47q0 -34 -7.5 -62.5
t-18 -49.5t-20.5 -34.5t-15 -19.5q-6 -7 -11 -7q-10 0 -10 9q0 5 4.5 12l10.5 16t10.5 21.5t4.5 28.5q0 18 -9.5 23t-21.5 8t-21.5 10t-9.5 29q0 12 4 23.5t12 21t21 15.5t31 6q4 0 11 -1t14 -6t13 -15t8 -28z" />
    <glyph glyph-name="perthousand" unicode="&#x2030;" horiz-adv-x="561" 
d="M581 93q0 -18 -8 -37t-22 -35t-33.5 -26t-42.5 -10q-29 0 -42 17t-13 41q0 18 7 37.5t19 35.5t29 26.5t38 10.5q36 0 52 -17.5t16 -42.5zM415 93q0 -18 -8 -37t-22 -35t-33.5 -26t-42.5 -10q-29 0 -42 17t-13 41q0 18 7 37.5t19 35.5t29 26.5t38 10.5q36 0 52 -17.5
t16 -42.5zM338 355q0 -3 -2.5 -10.5t-6.5 -14.5q-2 -5 -9.5 -21.5t-17 -39.5l-20.5 -49l-20.5 -49l-17 -40.5t-9.5 -22.5q-3 -7 -12.5 -31l-20 -50l-19 -47t-9.5 -24q-5 -8 -15 -15.5t-21 -7.5q-4 0 -13 3t-9 8q0 1 2 7q5 10 13.5 29l18.5 42.5l20.5 48.5l19.5 46.5
l15.5 36.5t7.5 18q3 8 15 35.5l25 57.5l24 55.5t14 29.5q2 4 5 7q6 6 13 6q4 0 16.5 -2.5t12.5 -5.5zM199 223q0 -18 -8 -37t-22 -35t-33.5 -26t-42.5 -10q-29 0 -42 17t-13 41q0 18 7 37.5t19 35.5t29 26.5t38 10.5q36 0 52 -17.5t16 -42.5zM540 70q0 15 -10.5 27.5
t-33.5 12.5q-17 0 -24.5 -11.5t-7.5 -25.5q0 -15 9 -28t28 -13q20 0 29.5 12t9.5 26zM374 70q0 15 -10.5 27.5t-33.5 12.5q-17 0 -24.5 -11.5t-7.5 -25.5q0 -15 9 -28t28 -13q20 0 29.5 12t9.5 26zM158 200q0 15 -10.5 27.5t-33.5 12.5q-17 0 -24.5 -11.5t-7.5 -25.5
q0 -15 9 -28t28 -13q20 0 29.5 12t9.5 26z" />
    <glyph glyph-name="Acircumflex" unicode="&#xc2;" horiz-adv-x="764" 
d="M607 794q0 -8 -13 -13t-36 -5q-5 0 -29.5 5.5t-53.5 30.5q-29 -25 -53.5 -30.5t-29.5 -5.5q-23 0 -36 5t-13 13q0 11 29 21q27 10 40 24t21.5 26.5t16.5 21.5t25 9t25 -9t16.5 -21.5t21.5 -26.5t40 -24q29 -10 29 -21zM764 104q0 -28 -19 -55t-47.5 -48.5t-62.5 -34
t-65 -12.5q-32 0 -52 13t-31.5 33.5t-15.5 45.5t-4 50q0 36 4.5 68.5t10 59.5t10 46t4.5 26q0 4 -3 4q-5 0 -10 -9q-29 -72 -70 -133.5t-87 -106t-93.5 -70t-89.5 -25.5q-35 0 -66 14.5t-51 49.5q-14 25 -19.5 52.5t-5.5 53.5q0 63 23.5 133.5t64 139t95 131.5t117 110.5
t129.5 76t133 28.5q23 0 39.5 -6t26.5 -15t14.5 -20t4.5 -22q0 -21 -8.5 -36t-19.5 -24.5t-22 -14.5t-16 -5t-9.5 3t-5.5 11q-1 12 -10 24t-22 21.5t-29 15t-31 5.5q-42 0 -84 -21t-79.5 -55.5t-70 -78.5t-56.5 -90.5t-37.5 -91t-13.5 -80.5q0 -28 6.5 -54.5t20 -46.5
t35 -32.5t50.5 -12.5q28 0 54 13.5t50 35t46 49.5t41 57q23 34 42.5 76.5t35 80.5t25.5 66.5t13 34.5q4 10 11 15.5t15 5.5q9 0 14.5 -5.5t5.5 -13.5q0 -7 -3 -16q-18 -66 -23.5 -112.5t-5.5 -93.5q0 -45 8.5 -85t24 -70t38 -48t50.5 -18q18 0 31.5 7t18.5 11q8 6 14 6
q5 0 8.5 -3t3.5 -8z" />
    <glyph glyph-name="Ecircumflex" unicode="&#xca;" horiz-adv-x="472" 
d="M432 835q0 -8 -13 -13t-36 -5q-5 0 -29.5 5.5t-53.5 30.5q-29 -25 -53.5 -30.5t-29.5 -5.5q-23 0 -36 5t-13 13q0 11 29 21q27 10 40 24t21.5 26.5t16.5 21.5t25 9t25 -9t16.5 -21.5t21.5 -26.5t40 -24q29 -10 29 -21zM569 756q0 -20 -17 -38t-39.5 -31.5t-43 -21
t-28.5 -7.5q-7 1 -10 1.5t-3 6.5t2.5 10.5t2.5 9.5q0 10 -6 17t-15 11t-18.5 5.5t-15.5 1.5q-33 0 -77.5 -16.5t-85 -40.5t-69.5 -51t-29 -48q0 -19 11.5 -33t29.5 -26.5t39.5 -23.5t40 -23t30.5 -26t12 -32q0 -24 -11 -43t-27.5 -34.5t-36 -30.5t-36 -31.5t-27.5 -37
t-11 -47.5q0 -18 8.5 -33.5t22 -27.5t30.5 -18.5t35 -6.5q43 0 79 14.5t65.5 35t52.5 44t39 41.5q7 7 13 7q5 0 8 -2.5t5 -4.5q5 -7 5 -15q0 -13 -16 -36.5t-43.5 -51t-64.5 -56.5t-78.5 -52.5t-86 -38.5t-87.5 -15q-24 0 -45 6.5t-37.5 20t-26 33.5t-9.5 46q0 32 12 60
t30.5 52.5t40 46l40 39t30.5 32t12 25.5q0 16 -12 26.5t-29.5 20t-38.5 18.5t-38.5 21t-29.5 29t-12 42q0 42 30 83t76.5 78t104 68.5t112.5 54.5t101.5 36t70.5 13q33 0 51 -16.5t18 -39.5z" />
    <glyph glyph-name="Aacute" unicode="&#xc1;" horiz-adv-x="764" 
d="M527 849q0 -21 -13.5 -36t-33.5 -25.5t-44 -16.5t-45 -9.5t-36 -4.5t-18 -1q-15 0 -15 12q0 14 26 23q47 16 65.5 33t26.5 30.5t16 22.5t34 9q20 0 28.5 -13t8.5 -24zM764 104q0 -28 -19 -55t-47.5 -48.5t-62.5 -34t-65 -12.5q-32 0 -52 13t-31.5 33.5t-15.5 45.5t-4 50
q0 36 4.5 68.5t10 59.5t10 46t4.5 26q0 4 -3 4q-5 0 -10 -9q-29 -72 -70 -133.5t-87 -106t-93.5 -70t-89.5 -25.5q-35 0 -66 14.5t-51 49.5q-14 25 -19.5 52.5t-5.5 53.5q0 63 23.5 133.5t64 139t95 131.5t117 110.5t129.5 76t133 28.5q23 0 39.5 -6t26.5 -15t14.5 -20
t4.5 -22q0 -21 -8.5 -36t-19.5 -24.5t-22 -14.5t-16 -5t-9.5 3t-5.5 11q-1 12 -10 24t-22 21.5t-29 15t-31 5.5q-42 0 -84 -21t-79.5 -55.5t-70 -78.5t-56.5 -90.5t-37.5 -91t-13.5 -80.5q0 -28 6.5 -54.5t20 -46.5t35 -32.5t50.5 -12.5q28 0 54 13.5t50 35t46 49.5t41 57
q23 34 42.5 76.5t35 80.5t25.5 66.5t13 34.5q4 10 11 15.5t15 5.5q9 0 14.5 -5.5t5.5 -13.5q0 -7 -3 -16q-18 -66 -23.5 -112.5t-5.5 -93.5q0 -45 8.5 -85t24 -70t38 -48t50.5 -18q18 0 31.5 7t18.5 11q8 6 14 6q5 0 8.5 -3t3.5 -8z" />
    <glyph glyph-name="Edieresis" unicode="&#xcb;" horiz-adv-x="472" 
d="M417 889q0 -25 -15.5 -42t-38.5 -17t-38.5 17t-15.5 42t15.5 42t38.5 17t38.5 -17t15.5 -42zM277 889q0 -25 -15.5 -42t-38.5 -17t-38.5 17t-15.5 42t15.5 42t38.5 17t38.5 -17t15.5 -42zM569 756q0 -20 -17 -38t-39.5 -31.5t-43 -21t-28.5 -7.5q-7 1 -10 1.5t-3 6.5
t2.5 10.5t2.5 9.5q0 10 -6 17t-15 11t-18.5 5.5t-15.5 1.5q-33 0 -77.5 -16.5t-85 -40.5t-69.5 -51t-29 -48q0 -19 11.5 -33t29.5 -26.5t39.5 -23.5t40 -23t30.5 -26t12 -32q0 -24 -11 -43t-27.5 -34.5t-36 -30.5t-36 -31.5t-27.5 -37t-11 -47.5q0 -18 8.5 -33.5t22 -27.5
t30.5 -18.5t35 -6.5q43 0 79 14.5t65.5 35t52.5 44t39 41.5q7 7 13 7q5 0 8 -2.5t5 -4.5q5 -7 5 -15q0 -13 -16 -36.5t-43.5 -51t-64.5 -56.5t-78.5 -52.5t-86 -38.5t-87.5 -15q-24 0 -45 6.5t-37.5 20t-26 33.5t-9.5 46q0 32 12 60t30.5 52.5t40 46l40 39t30.5 32t12 25.5
q0 16 -12 26.5t-29.5 20t-38.5 18.5t-38.5 21t-29.5 29t-12 42q0 42 30 83t76.5 78t104 68.5t112.5 54.5t101.5 36t70.5 13q33 0 51 -16.5t18 -39.5z" />
    <glyph glyph-name="Egrave" unicode="&#xc8;" horiz-adv-x="472" 
d="M399 827q0 -12 -15 -12q-3 0 -17 0.5t-33 3t-41 7.5t-40.5 14.5t-30.5 24t-12 35.5q0 11 8.5 24t28.5 13q25 0 33 -9t15.5 -22.5t23 -28.5t54.5 -27q26 -8 26 -23zM569 756q0 -20 -17 -38t-39.5 -31.5t-43 -21t-28.5 -7.5q-7 1 -10 1.5t-3 6.5t2.5 10.5t2.5 9.5
q0 10 -6 17t-15 11t-18.5 5.5t-15.5 1.5q-33 0 -77.5 -16.5t-85 -40.5t-69.5 -51t-29 -48q0 -19 11.5 -33t29.5 -26.5t39.5 -23.5t40 -23t30.5 -26t12 -32q0 -24 -11 -43t-27.5 -34.5t-36 -30.5t-36 -31.5t-27.5 -37t-11 -47.5q0 -18 8.5 -33.5t22 -27.5t30.5 -18.5t35 -6.5
q43 0 79 14.5t65.5 35t52.5 44t39 41.5q7 7 13 7q5 0 8 -2.5t5 -4.5q5 -7 5 -15q0 -13 -16 -36.5t-43.5 -51t-64.5 -56.5t-78.5 -52.5t-86 -38.5t-87.5 -15q-24 0 -45 6.5t-37.5 20t-26 33.5t-9.5 46q0 32 12 60t30.5 52.5t40 46l40 39t30.5 32t12 25.5q0 16 -12 26.5
t-29.5 20t-38.5 18.5t-38.5 21t-29.5 29t-12 42q0 42 30 83t76.5 78t104 68.5t112.5 54.5t101.5 36t70.5 13q33 0 51 -16.5t18 -39.5z" />
    <glyph glyph-name="Iacute" unicode="&#xcd;" horiz-adv-x="382" 
d="M268 972q0 -21 -13.5 -36t-33.5 -25.5t-44 -16.5t-45 -9.5t-36 -4.5t-18 -1q-15 0 -15 12q0 14 26 23q47 16 65.5 33t26.5 30.5t16 22.5t34 9q20 0 28.5 -13t8.5 -24zM293 778q0 -5 -2.5 -8.5t-11.5 -8.5q-4 -2 -21.5 -10l-41.5 -19l-51.5 -24l-53 -25.5t-46 -23.5
t-29.5 -19q-19 -15 -28 -15q-8 0 -8 10l17 101q1 4 4 6.5t7 4.5q8 5 39 21.5l68.5 35.5t72.5 33.5t50 14.5q10 0 13 -7q2 -5 5.5 -13l7.5 -17t6.5 -18.5t2.5 -18.5zM204 129q0 -17 -11 -34.5t-33 -17.5q-9 0 -9 14q0 15 -0.5 42.5t-1.5 61l-2 68.5t-2 65.5t-2 51t-1 25.5
q0 8 -1 28.5t-1.5 47.5t-1 57t-1 55.5t-1 44t-0.5 22.5q0 7 1 12.5t6 7.5q7 5 17 9t17 4q3 0 5 -2q2 -4 3 -14t1 -21q0 -7 0.5 -30.5t1.5 -56t2 -69t1.5 -69t1.5 -57t1 -31.5t1 -25t2 -41t2.5 -48t2.5 -46.5t1.5 -36.5t0.5 -17zM343 18q0 -11 -6 -15t-15 -9q-6 -3 -22.5 -13
l-38.5 -23l-46 -27.5l-45 -26.5l-36 -20t-20 -8q-12 0 -22.5 13.5t-19 31t-13.5 34t-5 21.5q0 7 16 19q9 5 35.5 23.5t59 38.5t66 36t56.5 16q5 0 10.5 -2t10.5 -8q4 -6 10 -18l11.5 -24t9.5 -23t4 -16z" />
    <glyph glyph-name="Icircumflex" unicode="&#xce;" horiz-adv-x="382" 
d="M283 896q0 -8 -13 -13t-36 -5q-5 0 -29.5 5.5t-53.5 30.5q-29 -25 -53.5 -30.5t-29.5 -5.5q-23 0 -36 5t-13 13q0 11 29 21q27 10 40 24t21.5 26.5t16.5 21.5t25 9t25 -9t16.5 -21.5t21.5 -26.5t40 -24q29 -10 29 -21zM293 778q0 -5 -2.5 -8.5t-11.5 -8.5
q-4 -2 -21.5 -10l-41.5 -19l-51.5 -24l-53 -25.5t-46 -23.5t-29.5 -19q-19 -15 -28 -15q-8 0 -8 10l17 101q1 4 4 6.5t7 4.5q8 5 39 21.5l68.5 35.5t72.5 33.5t50 14.5q10 0 13 -7q2 -5 5.5 -13l7.5 -17t6.5 -18.5t2.5 -18.5zM204 129q0 -17 -11 -34.5t-33 -17.5q-9 0 -9 14
q0 15 -0.5 42.5t-1.5 61l-2 68.5t-2 65.5t-2 51t-1 25.5q0 8 -1 28.5t-1.5 47.5t-1 57t-1 55.5t-1 44t-0.5 22.5q0 7 1 12.5t6 7.5q7 5 17 9t17 4q3 0 5 -2q2 -4 3 -14t1 -21q0 -7 0.5 -30.5t1.5 -56t2 -69t1.5 -69t1.5 -57t1 -31.5t1 -25t2 -41t2.5 -48t2.5 -46.5
t1.5 -36.5t0.5 -17zM343 18q0 -11 -6 -15t-15 -9q-6 -3 -22.5 -13l-38.5 -23l-46 -27.5l-45 -26.5l-36 -20t-20 -8q-12 0 -22.5 13.5t-19 31t-13.5 34t-5 21.5q0 7 16 19q9 5 35.5 23.5t59 38.5t66 36t56.5 16q5 0 10.5 -2t10.5 -8q4 -6 10 -18l11.5 -24t9.5 -23t4 -16z" />
    <glyph glyph-name="Idieresis" unicode="&#xcf;" horiz-adv-x="382" 
d="M300 942q0 -25 -15.5 -42t-38.5 -17t-38.5 17t-15.5 42t15.5 42t38.5 17t38.5 -17t15.5 -42zM160 942q0 -25 -15.5 -42t-38.5 -17t-38.5 17t-15.5 42t15.5 42t38.5 17t38.5 -17t15.5 -42zM293 778q0 -5 -2.5 -8.5t-11.5 -8.5q-4 -2 -21.5 -10l-41.5 -19l-51.5 -24
l-53 -25.5t-46 -23.5t-29.5 -19q-19 -15 -28 -15q-8 0 -8 10l17 101q1 4 4 6.5t7 4.5q8 5 39 21.5l68.5 35.5t72.5 33.5t50 14.5q10 0 13 -7q2 -5 5.5 -13l7.5 -17t6.5 -18.5t2.5 -18.5zM204 129q0 -17 -11 -34.5t-33 -17.5q-9 0 -9 14q0 15 -0.5 42.5t-1.5 61l-2 68.5
t-2 65.5t-2 51t-1 25.5q0 8 -1 28.5t-1.5 47.5t-1 57t-1 55.5t-1 44t-0.5 22.5q0 7 1 12.5t6 7.5q7 5 17 9t17 4q3 0 5 -2q2 -4 3 -14t1 -21q0 -7 0.5 -30.5t1.5 -56t2 -69t1.5 -69t1.5 -57t1 -31.5t1 -25t2 -41t2.5 -48t2.5 -46.5t1.5 -36.5t0.5 -17zM343 18q0 -11 -6 -15
t-15 -9q-6 -3 -22.5 -13l-38.5 -23l-46 -27.5l-45 -26.5l-36 -20t-20 -8q-12 0 -22.5 13.5t-19 31t-13.5 34t-5 21.5q0 7 16 19q9 5 35.5 23.5t59 38.5t66 36t56.5 16q5 0 10.5 -2t10.5 -8q4 -6 10 -18l11.5 -24t9.5 -23t4 -16z" />
    <glyph glyph-name="Igrave" unicode="&#xcc;" horiz-adv-x="382" 
d="M250 898q0 -12 -15 -12q-3 0 -17 0.5t-33 3t-41 7.5t-40.5 14.5t-30.5 24t-12 35.5q0 11 8.5 24t28.5 13q25 0 33 -9t15.5 -22.5t23 -28.5t54.5 -27q26 -8 26 -23zM293 778q0 -5 -2.5 -8.5t-11.5 -8.5q-4 -2 -21.5 -10l-41.5 -19l-51.5 -24l-53 -25.5t-46 -23.5
t-29.5 -19q-19 -15 -28 -15q-8 0 -8 10l17 101q1 4 4 6.5t7 4.5q8 5 39 21.5l68.5 35.5t72.5 33.5t50 14.5q10 0 13 -7q2 -5 5.5 -13l7.5 -17t6.5 -18.5t2.5 -18.5zM204 129q0 -17 -11 -34.5t-33 -17.5q-9 0 -9 14q0 15 -0.5 42.5t-1.5 61l-2 68.5t-2 65.5t-2 51t-1 25.5
q0 8 -1 28.5t-1.5 47.5t-1 57t-1 55.5t-1 44t-0.5 22.5q0 7 1 12.5t6 7.5q7 5 17 9t17 4q3 0 5 -2q2 -4 3 -14t1 -21q0 -7 0.5 -30.5t1.5 -56t2 -69t1.5 -69t1.5 -57t1 -31.5t1 -25t2 -41t2.5 -48t2.5 -46.5t1.5 -36.5t0.5 -17zM343 18q0 -11 -6 -15t-15 -9q-6 -3 -22.5 -13
l-38.5 -23l-46 -27.5l-45 -26.5l-36 -20t-20 -8q-12 0 -22.5 13.5t-19 31t-13.5 34t-5 21.5q0 7 16 19q9 5 35.5 23.5t59 38.5t66 36t56.5 16q5 0 10.5 -2t10.5 -8q4 -6 10 -18l11.5 -24t9.5 -23t4 -16z" />
    <glyph glyph-name="Oacute" unicode="&#xd3;" 
d="M491 961q0 -21 -13.5 -36t-33.5 -25.5t-44 -16.5t-45 -9.5t-36 -4.5t-18 -1q-15 0 -15 12q0 14 26 23q47 16 65.5 33t26.5 30.5t16 22.5t34 9q20 0 28.5 -13t8.5 -24zM614 354q0 -7 -9 -21.5t-25 -32.5t-37 -37.5t-47 -37.5q-30 -58 -67 -108.5t-78.5 -88.5t-87 -60
t-92.5 -22q-42 0 -73.5 18t-53.5 49t-33 73.5t-11 91.5q0 83 23 164.5t61 155t87.5 136.5t102 108.5t105 71.5t95.5 26q18 0 37.5 -15t19.5 -42q0 -16 -13.5 -37t-33.5 -31q27 0 47.5 -12t33.5 -32t19.5 -45t6.5 -51q0 -63 -16.5 -134.5t-45.5 -142.5q31 21 47.5 42t20.5 25
q3 3 5 3q5 0 8.5 -4.5t3.5 -9.5zM542 507q0 27 -6 53t-19 46.5t-32 33t-46 12.5q-33 0 -63 -20.5t-53 -52.5t-36.5 -72t-13.5 -79q0 -45 15.5 -76t37.5 -51t47 -29t44 -9q17 0 33 2.5t30 7.5q30 61 46 124t16 110zM456 713q-1 1 -1 5q0 26 -11.5 35t-39.5 9q-33 0 -69 -20
t-69.5 -54t-63.5 -79t-53 -94t-36 -99t-13 -95q0 -34 7.5 -74.5t26.5 -74.5t51.5 -57t83.5 -23q47 0 87 27t72 70q-40 -17 -79 -17q-37 0 -66 16.5t-48 41.5t-29 55.5t-10 57.5q0 49 19.5 109.5t54 115.5t82 95.5t104.5 49.5z" />
    <glyph glyph-name="Ocircumflex" unicode="&#xd4;" 
d="M546 877q0 -8 -13 -13t-36 -5q-5 0 -29.5 5.5t-53.5 30.5q-29 -25 -53.5 -30.5t-29.5 -5.5q-23 0 -36 5t-13 13q0 11 29 21q27 10 40 24t21.5 26.5t16.5 21.5t25 9t25 -9t16.5 -21.5t21.5 -26.5t40 -24q29 -10 29 -21zM614 354q0 -7 -9 -21.5t-25 -32.5t-37 -37.5
t-47 -37.5q-30 -58 -67 -108.5t-78.5 -88.5t-87 -60t-92.5 -22q-42 0 -73.5 18t-53.5 49t-33 73.5t-11 91.5q0 83 23 164.5t61 155t87.5 136.5t102 108.5t105 71.5t95.5 26q18 0 37.5 -15t19.5 -42q0 -16 -13.5 -37t-33.5 -31q27 0 47.5 -12t33.5 -32t19.5 -45t6.5 -51
q0 -63 -16.5 -134.5t-45.5 -142.5q31 21 47.5 42t20.5 25q3 3 5 3q5 0 8.5 -4.5t3.5 -9.5zM542 507q0 27 -6 53t-19 46.5t-32 33t-46 12.5q-33 0 -63 -20.5t-53 -52.5t-36.5 -72t-13.5 -79q0 -45 15.5 -76t37.5 -51t47 -29t44 -9q17 0 33 2.5t30 7.5q30 61 46 124t16 110z
M456 713q-1 1 -1 5q0 26 -11.5 35t-39.5 9q-33 0 -69 -20t-69.5 -54t-63.5 -79t-53 -94t-36 -99t-13 -95q0 -34 7.5 -74.5t26.5 -74.5t51.5 -57t83.5 -23q47 0 87 27t72 70q-40 -17 -79 -17q-37 0 -66 16.5t-48 41.5t-29 55.5t-10 57.5q0 49 19.5 109.5t54 115.5t82 95.5
t104.5 49.5z" />
    <glyph glyph-name="apple" unicode="&#xf8ff;" horiz-adv-x="799" 
d="M435 699q-9 1 -18 1.5t-18 0.5q-7 0 -17.5 -0.5t-17.5 -1.5l-113 108h74l74 -77l75 77h74zM799 258q0 -83 -31.5 -155.5t-85.5 -126.5t-127 -85.5t-156 -31.5q-82 0 -155 31.5t-127 85.5t-85.5 126.5t-31.5 155.5t31.5 155.5t85.5 126.5t127 85.5t155 31.5
q83 0 156 -31.5t127 -85.5t85.5 -126.5t31.5 -155.5zM742 258q0 71 -27 133t-73.5 108.5t-109 73.5t-133.5 27t-133 -27t-108.5 -73.5t-73.5 -108.5t-27 -133t27 -133t73.5 -108.5t108.5 -73.5t133 -27t133.5 27t109 73.5t73.5 108.5t27 133zM579 131q0 -35 -16.5 -61
t-43.5 -42.5t-62 -24.5t-73 -8q-46 0 -87.5 16t-76.5 33l12 60q45 -28 86 -40t75 -12q51 0 82.5 21t31.5 53q0 26 -20.5 46t-51 37.5t-66.5 35t-66.5 38t-51 46.5t-20.5 61q0 38 16 63t40 40t53.5 21.5t56.5 6.5q26 0 49 -6.5t42.5 -15t35 -17.5l26.5 -15l-13 -55
q-32 28 -67.5 40.5t-69.5 12.5q-45 0 -72.5 -19.5t-27.5 -50.5q0 -26 20.5 -44.5t51.5 -33.5t67.5 -30t67.5 -35.5t51.5 -49.5t20.5 -71z" />
    <glyph glyph-name="Ograve" unicode="&#xd2;" 
d="M489 877q0 -12 -15 -12q-3 0 -17 0.5t-33 3t-41 7.5t-40.5 14.5t-30.5 24t-12 35.5q0 11 8.5 24t28.5 13q25 0 33 -9t15.5 -22.5t23 -28.5t54.5 -27q26 -8 26 -23zM614 354q0 -7 -9 -21.5t-25 -32.5t-37 -37.5t-47 -37.5q-30 -58 -67 -108.5t-78.5 -88.5t-87 -60
t-92.5 -22q-42 0 -73.5 18t-53.5 49t-33 73.5t-11 91.5q0 83 23 164.5t61 155t87.5 136.5t102 108.5t105 71.5t95.5 26q18 0 37.5 -15t19.5 -42q0 -16 -13.5 -37t-33.5 -31q27 0 47.5 -12t33.5 -32t19.5 -45t6.5 -51q0 -63 -16.5 -134.5t-45.5 -142.5q31 21 47.5 42t20.5 25
q3 3 5 3q5 0 8.5 -4.5t3.5 -9.5zM542 507q0 27 -6 53t-19 46.5t-32 33t-46 12.5q-33 0 -63 -20.5t-53 -52.5t-36.5 -72t-13.5 -79q0 -45 15.5 -76t37.5 -51t47 -29t44 -9q17 0 33 2.5t30 7.5q30 61 46 124t16 110zM456 713q-1 1 -1 5q0 26 -11.5 35t-39.5 9q-33 0 -69 -20
t-69.5 -54t-63.5 -79t-53 -94t-36 -99t-13 -95q0 -34 7.5 -74.5t26.5 -74.5t51.5 -57t83.5 -23q47 0 87 27t72 70q-40 -17 -79 -17q-37 0 -66 16.5t-48 41.5t-29 55.5t-10 57.5q0 49 19.5 109.5t54 115.5t82 95.5t104.5 49.5z" />
    <glyph glyph-name="Uacute" unicode="&#xda;" horiz-adv-x="744" 
d="M469 861q0 -21 -13.5 -36t-33.5 -25.5t-44 -16.5t-45 -9.5t-36 -4.5t-18 -1q-15 0 -15 12q0 14 26 23q47 16 65.5 33t26.5 30.5t16 22.5t34 9q20 0 28.5 -13t8.5 -24zM744 52q0 -11 -14 -29.5t-38.5 -36t-58.5 -30.5t-74 -13q-23 0 -46.5 12t-45.5 35t-41 57t-32 79
q-48 -69 -108.5 -112t-132.5 -43q-46 0 -75.5 20.5t-47 54t-24 77t-6.5 88.5q0 67 11.5 142t30 145.5t42 131t47.5 99.5q2 4 12 12.5t27 8.5q9 0 9 -10q0 -6 -3 -15q-9 -18 -21.5 -48t-24.5 -73.5t-20 -101t-8 -131.5q0 -13 1 -38.5t5.5 -55t13.5 -60.5t25 -56t40.5 -41
t58.5 -16q40 0 74 19t62 51q-5 29 -9 61.5t-2 67.5q5 95 19.5 176t34.5 140.5t45 93t52 33.5q20 0 29.5 -27.5t9.5 -74.5q0 -36 -5.5 -80t-16.5 -92t-27 -99t-37 -100q12 -43 29.5 -83.5t41.5 -71t54.5 -49t67.5 -18.5q12 0 20 4t14 8.5l11.5 8.5t11.5 4q8 0 13.5 -8
t5.5 -16zM511 562q-1 6 -1.5 20.5t-2 29t-6 25.5t-14.5 11q-11 0 -18.5 -14t-12.5 -38t-7.5 -55.5t-2.5 -66.5q0 -34 4 -74.5t14 -83.5q23 63 35 127.5t12 118.5z" />
    <glyph glyph-name="Ucircumflex" unicode="&#xdb;" horiz-adv-x="744" 
d="M479 790q0 -8 -13 -13t-36 -5q-5 0 -29.5 5.5t-53.5 30.5q-29 -25 -53.5 -30.5t-29.5 -5.5q-23 0 -36 5t-13 13q0 11 29 21q27 10 40 24t21.5 26.5t16.5 21.5t25 9t25 -9t16.5 -21.5t21.5 -26.5t40 -24q29 -10 29 -21zM744 52q0 -11 -14 -29.5t-38.5 -36t-58.5 -30.5
t-74 -13q-23 0 -46.5 12t-45.5 35t-41 57t-32 79q-48 -69 -108.5 -112t-132.5 -43q-46 0 -75.5 20.5t-47 54t-24 77t-6.5 88.5q0 67 11.5 142t30 145.5t42 131t47.5 99.5q2 4 12 12.5t27 8.5q9 0 9 -10q0 -6 -3 -15q-9 -18 -21.5 -48t-24.5 -73.5t-20 -101t-8 -131.5
q0 -13 1 -38.5t5.5 -55t13.5 -60.5t25 -56t40.5 -41t58.5 -16q40 0 74 19t62 51q-5 29 -9 61.5t-2 67.5q5 95 19.5 176t34.5 140.5t45 93t52 33.5q20 0 29.5 -27.5t9.5 -74.5q0 -36 -5.5 -80t-16.5 -92t-27 -99t-37 -100q12 -43 29.5 -83.5t41.5 -71t54.5 -49t67.5 -18.5
q12 0 20 4t14 8.5l11.5 8.5t11.5 4q8 0 13.5 -8t5.5 -16zM511 562q-1 6 -1.5 20.5t-2 29t-6 25.5t-14.5 11q-11 0 -18.5 -14t-12.5 -38t-7.5 -55.5t-2.5 -66.5q0 -34 4 -74.5t14 -83.5q23 63 35 127.5t12 118.5z" />
    <glyph glyph-name="Ugrave" unicode="&#xd9;" horiz-adv-x="744" 
d="M426 788q0 -12 -15 -12q-3 0 -17 0.5t-33 3t-41 7.5t-40.5 14.5t-30.5 24t-12 35.5q0 11 8.5 24t28.5 13q25 0 33 -9t15.5 -22.5t23 -28.5t54.5 -27q26 -8 26 -23zM744 52q0 -11 -14 -29.5t-38.5 -36t-58.5 -30.5t-74 -13q-23 0 -46.5 12t-45.5 35t-41 57t-32 79
q-48 -69 -108.5 -112t-132.5 -43q-46 0 -75.5 20.5t-47 54t-24 77t-6.5 88.5q0 67 11.5 142t30 145.5t42 131t47.5 99.5q2 4 12 12.5t27 8.5q9 0 9 -10q0 -6 -3 -15q-9 -18 -21.5 -48t-24.5 -73.5t-20 -101t-8 -131.5q0 -13 1 -38.5t5.5 -55t13.5 -60.5t25 -56t40.5 -41
t58.5 -16q40 0 74 19t62 51q-5 29 -9 61.5t-2 67.5q5 95 19.5 176t34.5 140.5t45 93t52 33.5q20 0 29.5 -27.5t9.5 -74.5q0 -36 -5.5 -80t-16.5 -92t-27 -99t-37 -100q12 -43 29.5 -83.5t41.5 -71t54.5 -49t67.5 -18.5q12 0 20 4t14 8.5l11.5 8.5t11.5 4q8 0 13.5 -8
t5.5 -16zM511 562q-1 6 -1.5 20.5t-2 29t-6 25.5t-14.5 11q-11 0 -18.5 -14t-12.5 -38t-7.5 -55.5t-2.5 -66.5q0 -34 4 -74.5t14 -83.5q23 63 35 127.5t12 118.5z" />
    <glyph glyph-name="dotlessi" unicode="&#x131;" horiz-adv-x="234" 
d="M265 83q0 -11 -17.5 -32t-43 -41.5t-55.5 -35.5t-55 -15q-45 0 -69 33t-24 78q0 28 5 54.5t12.5 47.5t16.5 33.5t17 12.5q5 -1 6.5 -6.5t1.5 -13.5q0 -17 4 -40.5t15 -44.5t30 -35.5t49 -14.5q20 0 39.5 8.5t35.5 21.5q4 3 8.5 5.5t9.5 2.5q10 0 12 -5t2 -13z" />
    <glyph glyph-name="circumflex" unicode="&#x2c6;" horiz-adv-x="364" 
d="M314 308q0 -8 -13 -13t-36 -5q-5 0 -29.5 5.5t-53.5 30.5q-29 -25 -53.5 -30.5t-29.5 -5.5q-23 0 -36 5t-13 13q0 11 29 21q27 10 40 24t21.5 26.5t16.5 21.5t25 9t25 -9t16.5 -21.5t21.5 -26.5t40 -24q29 -10 29 -21z" />
    <glyph glyph-name="tilde" unicode="&#x2dc;" horiz-adv-x="329" 
d="M279 349q0 -8 -9 -17t-22 -17t-28.5 -13t-28.5 -5q-20 0 -33 4t-24 9t-22 9t-27 4h-11t-13 -2q-3 0 -6.5 1.5t-4.5 6.5q0 8 9 17t22 17t28 13.5t28 5.5q20 0 33.5 -4t25 -9.5t22.5 -9.5t27 -4h10.5t12.5 2q3 0 6.5 -1.5t4.5 -6.5z" />
    <glyph glyph-name="macron" unicode="&#xaf;" horiz-adv-x="358" 
d="M304 315q0 -7 -11.5 -10.5t-39.5 -3.5h-25t-43 -1t-54 -2t-58 -4q-3 0 -10 9t-7 26q0 14 15 18t28 4q1 0 6.5 -0.5t21.5 -1.5t44.5 -1.5t74.5 -0.5q18 0 38 -7.5t20 -24.5z" />
    <glyph glyph-name="ring" unicode="&#x2da;" horiz-adv-x="213" 
d="M175 357q0 -32 -19.5 -53.5t-48.5 -21.5t-48.5 21.5t-19.5 53.5t19.5 53.5t48.5 21.5t48.5 -21.5t19.5 -53.5zM140 360q0 12 -9 21t-21 9t-24 -11.5t-12 -24.5q0 -12 9 -21t21 -9q13 0 24.5 11.5t11.5 24.5z" />
    <glyph glyph-name="cedilla" unicode="&#xb8;" horiz-adv-x="195" 
d="M143 -64q0 -9 -4.5 -18.5t-16 -17.5t-32 -13t-53.5 -5q-14 0 -14 11q0 3 8.5 5t19 5t19 7.5t8.5 12.5t-3 13.5t-6.5 9t-6.5 7t-3 8.5q0 8 7 18t16 18.5t18 14t13 5.5q8 0 10.5 -3.5t2.5 -6.5q0 -11 -6.5 -17.5t-6.5 -14.5q0 -10 4.5 -14t10.5 -6.5t10.5 -6t4.5 -12.5z
" />
    <glyph glyph-name="hungarumlaut" unicode="&#x2dd;" horiz-adv-x="305" 
d="M271 387q0 -26 -17.5 -54t-39.5 -51t-41.5 -37.5t-23.5 -14.5q-5 0 -8 4.5t-3 9.5q0 11 12 24q26 32 32 55t6 39q0 9 -1 16t-1 13q0 3 2 10.5t7 15.5t13 13.5t21 5.5q12 0 20 -6t13 -14.5t7 -16.5t2 -12zM174 387q0 -26 -17.5 -54t-39.5 -51t-41.5 -37.5t-23.5 -14.5
q-5 0 -8 4.5t-3 9.5q0 11 12 24q26 32 32 55t6 39q0 9 -1 16t-1 13q0 3 2 10.5t7 15.5t13 13.5t21 5.5q12 0 20 -6t13 -14.5t7 -16.5t2 -12z" />
    <glyph glyph-name="caron" unicode="&#x2c7;" horiz-adv-x="364" 
d="M314 392q0 -11 -29 -21q-27 -10 -40 -23.5t-21.5 -26.5t-16.5 -22t-25 -9t-25 9t-16.5 22t-21.5 26.5t-40 23.5q-29 10 -29 21q0 8 13 13t36 5q12 0 33 -10.5t50 -35.5q29 25 50 35.5t33 10.5q23 0 36 -5t13 -13z" />
    <glyph glyph-name="Eth" unicode="&#xd0;" horiz-adv-x="693" 
d="M683 101q0 -12 -14.5 -33t-38 -41.5t-53 -35.5t-59.5 -15q-16 0 -32.5 5.5t-33.5 14.5q-57 -57 -129.5 -94.5t-155.5 -37.5q-57 0 -86 30t-29 85q0 27 10 60t28.5 65.5t45 61.5t60.5 48q-2 32 -5.5 65.5t-6.5 66.5q-35 -10 -68 -22t-51 -25q-1 -1 -5 -1t-4 6
q0 4 1.5 10.5t4 13t5 11.5t3.5 6q10 7 32.5 16t51.5 18l12.5 4t14.5 4l-8.5 89.5t-3.5 38.5q-2 12 -8 14t-6 13q0 7 4 14t9.5 13t11.5 9.5t10 3.5q8 0 12.5 -5.5t7 -12t3.5 -13.5t1 -10q0 -6 2.5 -46.5t7.5 -97.5q23 5 45.5 9t39.5 4q2 0 5.5 -1t3.5 -6q0 -6 -4 -19.5
t-12 -14.5q-10 -1 -30 -4.5t-45 -8.5q2 -31 4.5 -62.5t4.5 -61.5q15 5 30 7.5t32 2.5q32 0 59.5 -10.5t53 -27t49.5 -35.5t48 -36q12 22 19 45.5t7 49.5q0 37 -22 86.5t-59 102t-86 103.5t-101.5 91t-106 64.5t-100.5 24.5q-21 0 -47.5 -10t-57.5 -41q-5 -6 -13.5 -15
t-17 -20t-16 -22.5t-11.5 -20.5q-3 -4 -5.5 -8.5t-9.5 -4.5q-6 0 -10 2q-8 3 -10 7.5t-2 8.5v5q0 1 1 2q9 17 36.5 51.5t66 69t85 60.5t93.5 26q41 0 91.5 -17t102 -48.5t101 -75.5t87.5 -97t61.5 -114t23.5 -126q0 -44 -17 -96t-48 -105q17 -10 35 -15.5t37 -5.5q8 0 15 4
t14 8.5l13 8.5t12 4q14 0 14 -14zM408 24l-42.5 31.5l-42.5 32l-41 29t-39 22.5q3 -33 4.5 -55t1.5 -24q0 -12 -5.5 -17t-12.5 -5q-8 0 -13.5 4.5t-6.5 11.5q-1 5 -3 31t-6 65h-7q-19 0 -33.5 -13t-14.5 -47q0 -24 14 -44.5t35.5 -35.5t48.5 -23.5t53 -8.5q20 0 49.5 12
t60.5 34z" />
    <glyph glyph-name="Euro" unicode="&#x20ac;" horiz-adv-x="281" 
d="M303 248q0 -15 -9.5 -35.5t-25.5 -38.5t-35.5 -31t-39.5 -13q-17 0 -20 9t-3 14t3 12.5t8 14.5t11.5 11.5t13.5 4.5q10 0 12 -5t2 -11q11 2 18 17.5t7 23.5q0 16 -10.5 22t-21.5 6q-15 0 -30 -11.5t-26.5 -30.5t-19 -41.5t-9.5 -45.5q10 1 21 1.5t23 0.5q2 0 5.5 -1
t3.5 -6q0 -6 -4 -19.5t-12 -14.5q-7 -1 -15.5 -1.5t-17.5 -2.5q6 -22 23 -35.5t48 -13.5q17 0 26 3.5t14.5 8t11 8t14.5 3.5q3 0 9.5 -2t6.5 -13q0 -14 -15 -28.5t-36 -25.5t-43 -18t-36 -7q-59 0 -85.5 27t-29.5 67q-15 -7 -31 -18q-1 -1 -5 -1t-4 6q0 4 1.5 10.5t4 13
t5 11.5t3.5 6q15 11 30 18q7 35 26 69.5t46 63t61 46t71 17.5q26 0 40.5 -13.5t14.5 -31.5z" />
    <glyph glyph-name="currency" unicode="&#xa4;" horiz-adv-x="281" 
d="M303 248q0 -15 -9.5 -35.5t-25.5 -38.5t-35.5 -31t-39.5 -13q-17 0 -20 9t-3 14t3 12.5t8 14.5t11.5 11.5t13.5 4.5q10 0 12 -5t2 -11q11 2 18 17.5t7 23.5q0 16 -10.5 22t-21.5 6q-15 0 -30 -11.5t-26.5 -30.5t-19 -41.5t-9.5 -45.5q10 1 21 1.5t23 0.5q2 0 5.5 -1
t3.5 -6q0 -6 -4 -19.5t-12 -14.5q-7 -1 -15.5 -1.5t-17.5 -2.5q6 -22 23 -35.5t48 -13.5q17 0 26 3.5t14.5 8t11 8t14.5 3.5q3 0 9.5 -2t6.5 -13q0 -14 -15 -28.5t-36 -25.5t-43 -18t-36 -7q-59 0 -85.5 27t-29.5 67q-15 -7 -31 -18q-1 -1 -5 -1t-4 6q0 4 1.5 10.5t4 13
t5 11.5t3.5 6q15 11 30 18q7 35 26 69.5t46 63t61 46t71 17.5q26 0 40.5 -13.5t14.5 -31.5z" />
    <glyph glyph-name="onequarter" unicode="&#xbc;" horiz-adv-x="672" 
d="M671 48q0 -12 -15 -28.5t-38 -32t-52 -26t-56 -10.5q-47 0 -79.5 22t-53.5 57.5t-32.5 80t-17 88.5t-6.5 84t-1 67q0 30 0.5 62l1 61t1 54.5t0.5 43.5q-1 7 -7 7q-4 0 -7 -2.5t-5 -4.5l-31.5 -83.5l-41.5 -113.5l-44 -124l-40.5 -114.5l-30 -85.5l-12.5 -37
q-2 -7 -7.5 -15t-13 -15t-15 -11.5t-13.5 -4.5q-7 0 -9.5 6t-2.5 13q7 42 10 88.5t3 94.5q0 79 -7 157t-17 141.5t-22.5 104.5t-22.5 47q0 21 16 35t28 14q17 0 28.5 -22.5t19 -59.5t12 -84t6.5 -96t2.5 -96t1 -84t1.5 -59.5t4 -22.5t13 24t24.5 62.5l32 88.5l35.5 101.5
l35.5 100.5l32 87.5t24 61t12.5 21.5q-1 1 4 5.5t12.5 9.5t15.5 9.5t13 5.5q13 -2 17.5 -10.5t4.5 -16.5q1 -10 0.5 -52t2.5 -94l5.5 -77.5t12.5 -104t24 -112t39.5 -102t59 -74.5t82.5 -29q10 0 17 3t12 6t8.5 6t6.5 3q8 0 13.5 -6t5.5 -13z" />
    <glyph glyph-name="onehalf" unicode="&#xbd;" horiz-adv-x="219" 
d="M216 52q0 -19 -13.5 -38.5t-33.5 -35.5t-42 -26.5t-40 -10.5l-1 -22q12 -16 23 -37q9 -18 16 -44t7 -61q0 -27 -6 -51.5t-15 -44t-20 -31t-22 -11.5q-6 0 -13 3t-7 11q0 24 1.5 61l3 75t2.5 71.5t1 50.5v32q-38 6 -59.5 23.5t-21.5 28.5q0 7 7 15l14.5 17.5l17 20.5
l15.5 18t8 10q3 5 11 5q6 0 12 -3q2 51 3.5 105t3.5 107t3.5 101t3 86.5l2.5 64.5t1 34q1 10 7 24t20 14q10 0 16 -11.5t9.5 -28t4.5 -35t1 -33.5q0 -36 -6 -84t-25 -100q-2 -55 -5 -105l-4 -86.5t-2 -69.5l-1 -7q9 -5 21 -9t30 -4t27.5 3t15.5 6t10 6t11 3q8 0 8 -7z" />
    <glyph glyph-name="threequarters" unicode="&#xbe;" horiz-adv-x="271" 
d="M209 276q0 -7 -4.5 -20t-11.5 -25.5t-15.5 -21.5t-16.5 -9q-6 0 -8 3t-4 6.5t-6.5 6.5t-14.5 3q-31 0 -49 -26.5t-27.5 -63t-12.5 -73.5t-3 -58q0 -18 -7 -24t-20 -6q-5 0 -5 9q0 41 1 92.5t2 109l2 117.5t1 117t-2 108.5t-4 93.5q-1 10 5.5 18.5t19.5 8.5
q15 0 23.5 -16.5t13 -37.5t6 -41t1.5 -27q0 -29 -5.5 -56.5t-12.5 -48.5t-12 -34l-5 -13v-193q0 -12 4 -12q2 0 3 1.5t2 2.5q9 26 22 54t29 50.5t35.5 37t40.5 14.5q22 0 28.5 -15t6.5 -32zM316 103q0 -13 -14 -37t-37.5 -48t-53 -41.5t-60.5 -17.5q-14 0 -29.5 7t-29 20.5
t-22 33.5t-8.5 47q0 21 4 41t9.5 35.5t11.5 24.5t9 9q4 -2 4.5 -7t0.5 -13q0 -5 7 -19t20.5 -29t32.5 -26.5t44 -11.5q21 0 37.5 7.5t27.5 15.5q13 10 23 22q5 6 10 6t9 -5.5t4 -13.5z" />
    </font>
</defs>
</svg>
